<svg width="30" height="54" viewBox="0 0 30 54" fill="none" xmlns="http://www.w3.org/2000/svg">
<mask id="mask0_3_1535" style="mask-type:luminance" maskUnits="userSpaceOnUse" x="3" y="3" width="24" height="48">
<path d="M18.9216 5.97423H24.6854C24.8371 5.97423 25.4741 5.94389 25.9898 5.39785C26.5055 4.88215 26.5662 4.2451 26.5662 4.12376C26.5662 4.12376 26.5662 4.12376 26.5662 4.09342V3.09235H3.84485V4.09342C3.84485 5.12483 4.69424 5.97423 5.72565 5.97423H11.4894C13.0365 5.97423 14.3106 7.24832 14.3106 8.79544V44.3184C14.3106 45.8655 13.0365 47.1396 11.4894 47.1396H5.72565C4.69424 47.1396 3.84485 47.989 3.84485 49.0204V50.0215H26.5662L26.5359 49.0204C26.5359 47.989 25.6865 47.1396 24.6551 47.1396H18.8913C17.3442 47.1396 16.0701 45.8655 16.0701 44.3184H16.1004V8.79544C16.1004 7.24832 17.3442 5.97423 18.9216 5.97423Z" fill="white"/>
</mask>
<g mask="url(#mask0_3_1535)">
<path d="M-71.1751 -19.6902L4.45157 55.4814" stroke="white" stroke-width="2" stroke-miterlimit="10"/>
</g>
<mask id="mask1_3_1535" style="mask-type:luminance" maskUnits="userSpaceOnUse" x="3" y="3" width="24" height="48">
<path d="M18.9216 5.97423H24.6854C24.8371 5.97423 25.4741 5.94389 25.9898 5.39785C26.5055 4.88215 26.5662 4.2451 26.5662 4.12376C26.5662 4.12376 26.5662 4.12376 26.5662 4.09342V3.09235H3.84485V4.09342C3.84485 5.12483 4.69424 5.97423 5.72565 5.97423H11.4894C13.0365 5.97423 14.3106 7.24832 14.3106 8.79544V44.3184C14.3106 45.8655 13.0365 47.1396 11.4894 47.1396H5.72565C4.69424 47.1396 3.84485 47.989 3.84485 49.0204V50.0215H26.5662L26.5359 49.0204C26.5359 47.989 25.6865 47.1396 24.6551 47.1396H18.8913C17.3442 47.1396 16.0701 45.8655 16.0701 44.3184H16.1004V8.79544C16.1004 7.24832 17.3442 5.97423 18.9216 5.97423Z" fill="white"/>
</mask>
<g mask="url(#mask1_3_1535)">
<path d="M-69.5067 -19.326L6.15026 55.8455" stroke="white" stroke-width="2" stroke-miterlimit="10"/>
</g>
<mask id="mask2_3_1535" style="mask-type:luminance" maskUnits="userSpaceOnUse" x="3" y="3" width="24" height="48">
<path d="M18.9216 5.97423H24.6854C24.8371 5.97423 25.4741 5.94389 25.9898 5.39785C26.5055 4.88215 26.5662 4.2451 26.5662 4.12376C26.5662 4.12376 26.5662 4.12376 26.5662 4.09342V3.09235H3.84485V4.09342C3.84485 5.12483 4.69424 5.97423 5.72565 5.97423H11.4894C13.0365 5.97423 14.3106 7.24832 14.3106 8.79544V44.3184C14.3106 45.8655 13.0365 47.1396 11.4894 47.1396H5.72565C4.69424 47.1396 3.84485 47.989 3.84485 49.0204V50.0215H26.5662L26.5359 49.0204C26.5359 47.989 25.6865 47.1396 24.6551 47.1396H18.8913C17.3442 47.1396 16.0701 45.8655 16.0701 44.3184H16.1004V8.79544C16.1004 7.24832 17.3442 5.97423 18.9216 5.97423Z" fill="white"/>
</mask>
<g mask="url(#mask2_3_1535)">
<path d="M-67.8087 -18.9915L7.81794 56.18" stroke="white" stroke-width="2" stroke-miterlimit="10"/>
</g>
<mask id="mask3_3_1535" style="mask-type:luminance" maskUnits="userSpaceOnUse" x="3" y="3" width="24" height="48">
<path d="M18.9216 5.97423H24.6854C24.8371 5.97423 25.4741 5.94389 25.9898 5.39785C26.5055 4.88215 26.5662 4.2451 26.5662 4.12376C26.5662 4.12376 26.5662 4.12376 26.5662 4.09342V3.09235H3.84485V4.09342C3.84485 5.12483 4.69424 5.97423 5.72565 5.97423H11.4894C13.0365 5.97423 14.3106 7.24832 14.3106 8.79544V44.3184C14.3106 45.8655 13.0365 47.1396 11.4894 47.1396H5.72565C4.69424 47.1396 3.84485 47.989 3.84485 49.0204V50.0215H26.5662L26.5359 49.0204C26.5359 47.989 25.6865 47.1396 24.6551 47.1396H18.8913C17.3442 47.1396 16.0701 45.8655 16.0701 44.3184H16.1004V8.79544C16.1004 7.24832 17.3442 5.97423 18.9216 5.97423Z" fill="white"/>
</mask>
<g mask="url(#mask3_3_1535)">
<path d="M-66.1395 -18.6587L9.51746 56.5129" stroke="white" stroke-width="2" stroke-miterlimit="10"/>
</g>
<mask id="mask4_3_1535" style="mask-type:luminance" maskUnits="userSpaceOnUse" x="3" y="3" width="24" height="48">
<path d="M18.9216 5.97423H24.6854C24.8371 5.97423 25.4741 5.94389 25.9898 5.39785C26.5055 4.88215 26.5662 4.2451 26.5662 4.12376C26.5662 4.12376 26.5662 4.12376 26.5662 4.09342V3.09235H3.84485V4.09342C3.84485 5.12483 4.69424 5.97423 5.72565 5.97423H11.4894C13.0365 5.97423 14.3106 7.24832 14.3106 8.79544V44.3184C14.3106 45.8655 13.0365 47.1396 11.4894 47.1396H5.72565C4.69424 47.1396 3.84485 47.989 3.84485 49.0204V50.0215H26.5662L26.5359 49.0204C26.5359 47.989 25.6865 47.1396 24.6551 47.1396H18.8913C17.3442 47.1396 16.0701 45.8655 16.0701 44.3184H16.1004V8.79544C16.1004 7.24832 17.3442 5.97423 18.9216 5.97423Z" fill="white"/>
</mask>
<g mask="url(#mask4_3_1535)">
<path d="M-64.4407 -18.2946L11.186 56.877" stroke="white" stroke-width="2" stroke-miterlimit="10"/>
</g>
<mask id="mask5_3_1535" style="mask-type:luminance" maskUnits="userSpaceOnUse" x="3" y="3" width="24" height="48">
<path d="M18.9216 5.97423H24.6854C24.8371 5.97423 25.4741 5.94389 25.9898 5.39785C26.5055 4.88215 26.5662 4.2451 26.5662 4.12376C26.5662 4.12376 26.5662 4.12376 26.5662 4.09342V3.09235H3.84485V4.09342C3.84485 5.12483 4.69424 5.97423 5.72565 5.97423H11.4894C13.0365 5.97423 14.3106 7.24832 14.3106 8.79544V44.3184C14.3106 45.8655 13.0365 47.1396 11.4894 47.1396H5.72565C4.69424 47.1396 3.84485 47.989 3.84485 49.0204V50.0215H26.5662L26.5359 49.0204C26.5359 47.989 25.6865 47.1396 24.6551 47.1396H18.8913C17.3442 47.1396 16.0701 45.8655 16.0701 44.3184H16.1004V8.79544C16.1004 7.24832 17.3442 5.97423 18.9216 5.97423Z" fill="white"/>
</mask>
<g mask="url(#mask5_3_1535)">
<path d="M-62.7723 -17.9601L12.8847 57.2115" stroke="white" stroke-width="2" stroke-miterlimit="10"/>
</g>
<mask id="mask6_3_1535" style="mask-type:luminance" maskUnits="userSpaceOnUse" x="3" y="3" width="24" height="48">
<path d="M18.9216 5.97423H24.6854C24.8371 5.97423 25.4741 5.94389 25.9898 5.39785C26.5055 4.88215 26.5662 4.2451 26.5662 4.12376C26.5662 4.12376 26.5662 4.12376 26.5662 4.09342V3.09235H3.84485V4.09342C3.84485 5.12483 4.69424 5.97423 5.72565 5.97423H11.4894C13.0365 5.97423 14.3106 7.24832 14.3106 8.79544V44.3184C14.3106 45.8655 13.0365 47.1396 11.4894 47.1396H5.72565C4.69424 47.1396 3.84485 47.989 3.84485 49.0204V50.0215H26.5662L26.5359 49.0204C26.5359 47.989 25.6865 47.1396 24.6551 47.1396H18.8913C17.3442 47.1396 16.0701 45.8655 16.0701 44.3184H16.1004V8.79544C16.1004 7.24832 17.3442 5.97423 18.9216 5.97423Z" fill="white"/>
</mask>
<g mask="url(#mask6_3_1535)">
<path d="M-61.0735 -17.5975L14.5531 57.574" stroke="white" stroke-width="2" stroke-miterlimit="10"/>
</g>
<mask id="mask7_3_1535" style="mask-type:luminance" maskUnits="userSpaceOnUse" x="3" y="3" width="24" height="48">
<path d="M18.9216 5.97423H24.6854C24.8371 5.97423 25.4741 5.94389 25.9898 5.39785C26.5055 4.88215 26.5662 4.2451 26.5662 4.12376C26.5662 4.12376 26.5662 4.12376 26.5662 4.09342V3.09235H3.84485V4.09342C3.84485 5.12483 4.69424 5.97423 5.72565 5.97423H11.4894C13.0365 5.97423 14.3106 7.24832 14.3106 8.79544V44.3184C14.3106 45.8655 13.0365 47.1396 11.4894 47.1396H5.72565C4.69424 47.1396 3.84485 47.989 3.84485 49.0204V50.0215H26.5662L26.5359 49.0204C26.5359 47.989 25.6865 47.1396 24.6551 47.1396H18.8913C17.3442 47.1396 16.0701 45.8655 16.0701 44.3184H16.1004V8.79544C16.1004 7.24832 17.3442 5.97423 18.9216 5.97423Z" fill="white"/>
</mask>
<g mask="url(#mask7_3_1535)">
<path d="M-59.4051 -17.2631L16.2518 57.9085" stroke="white" stroke-width="2" stroke-miterlimit="10"/>
</g>
<mask id="mask8_3_1535" style="mask-type:luminance" maskUnits="userSpaceOnUse" x="3" y="3" width="24" height="48">
<path d="M18.9216 5.97423H24.6854C24.8371 5.97423 25.4741 5.94389 25.9898 5.39785C26.5055 4.88215 26.5662 4.2451 26.5662 4.12376C26.5662 4.12376 26.5662 4.12376 26.5662 4.09342V3.09235H3.84485V4.09342C3.84485 5.12483 4.69424 5.97423 5.72565 5.97423H11.4894C13.0365 5.97423 14.3106 7.24832 14.3106 8.79544V44.3184C14.3106 45.8655 13.0365 47.1396 11.4894 47.1396H5.72565C4.69424 47.1396 3.84485 47.989 3.84485 49.0204V50.0215H26.5662L26.5359 49.0204C26.5359 47.989 25.6865 47.1396 24.6551 47.1396H18.8913C17.3442 47.1396 16.0701 45.8655 16.0701 44.3184H16.1004V8.79544C16.1004 7.24832 17.3442 5.97423 18.9216 5.97423Z" fill="white"/>
</mask>
<g mask="url(#mask8_3_1535)">
<path d="M-57.7063 -16.9302L17.9203 58.2414" stroke="white" stroke-width="2" stroke-miterlimit="10"/>
</g>
<mask id="mask9_3_1535" style="mask-type:luminance" maskUnits="userSpaceOnUse" x="3" y="3" width="24" height="48">
<path d="M18.9216 5.97423H24.6854C24.8371 5.97423 25.4741 5.94389 25.9898 5.39785C26.5055 4.88215 26.5662 4.2451 26.5662 4.12376C26.5662 4.12376 26.5662 4.12376 26.5662 4.09342V3.09235H3.84485V4.09342C3.84485 5.12483 4.69424 5.97423 5.72565 5.97423H11.4894C13.0365 5.97423 14.3106 7.24832 14.3106 8.79544V44.3184C14.3106 45.8655 13.0365 47.1396 11.4894 47.1396H5.72565C4.69424 47.1396 3.84485 47.989 3.84485 49.0204V50.0215H26.5662L26.5359 49.0204C26.5359 47.989 25.6865 47.1396 24.6551 47.1396H18.8913C17.3442 47.1396 16.0701 45.8655 16.0701 44.3184H16.1004V8.79544C16.1004 7.24832 17.3442 5.97423 18.9216 5.97423Z" fill="white"/>
</mask>
<g mask="url(#mask9_3_1535)">
<path d="M-56.0371 -16.5661L19.6199 58.6055" stroke="white" stroke-width="2" stroke-miterlimit="10"/>
</g>
<mask id="mask10_3_1535" style="mask-type:luminance" maskUnits="userSpaceOnUse" x="3" y="3" width="24" height="48">
<path d="M18.9216 5.97423H24.6854C24.8371 5.97423 25.4741 5.94389 25.9898 5.39785C26.5055 4.88215 26.5662 4.2451 26.5662 4.12376C26.5662 4.12376 26.5662 4.12376 26.5662 4.09342V3.09235H3.84485V4.09342C3.84485 5.12483 4.69424 5.97423 5.72565 5.97423H11.4894C13.0365 5.97423 14.3106 7.24832 14.3106 8.79544V44.3184C14.3106 45.8655 13.0365 47.1396 11.4894 47.1396H5.72565C4.69424 47.1396 3.84485 47.989 3.84485 49.0204V50.0215H26.5662L26.5359 49.0204C26.5359 47.989 25.6865 47.1396 24.6551 47.1396H18.8913C17.3442 47.1396 16.0701 45.8655 16.0701 44.3184H16.1004V8.79544C16.1004 7.24832 17.3442 5.97423 18.9216 5.97423Z" fill="white"/>
</mask>
<g mask="url(#mask10_3_1535)">
<path d="M-54.3391 -16.2332L21.2875 58.9384" stroke="white" stroke-width="2" stroke-miterlimit="10"/>
</g>
<mask id="mask11_3_1535" style="mask-type:luminance" maskUnits="userSpaceOnUse" x="3" y="3" width="24" height="48">
<path d="M18.9216 5.97423H24.6854C24.8371 5.97423 25.4741 5.94389 25.9898 5.39785C26.5055 4.88215 26.5662 4.2451 26.5662 4.12376C26.5662 4.12376 26.5662 4.12376 26.5662 4.09342V3.09235H3.84485V4.09342C3.84485 5.12483 4.69424 5.97423 5.72565 5.97423H11.4894C13.0365 5.97423 14.3106 7.24832 14.3106 8.79544V44.3184C14.3106 45.8655 13.0365 47.1396 11.4894 47.1396H5.72565C4.69424 47.1396 3.84485 47.989 3.84485 49.0204V50.0215H26.5662L26.5359 49.0204C26.5359 47.989 25.6865 47.1396 24.6551 47.1396H18.8913C17.3442 47.1396 16.0701 45.8655 16.0701 44.3184H16.1004V8.79544C16.1004 7.24832 17.3442 5.97423 18.9216 5.97423Z" fill="white"/>
</mask>
<g mask="url(#mask11_3_1535)">
<path d="M-52.6699 -15.869L22.9567 59.3025" stroke="white" stroke-width="2" stroke-miterlimit="10"/>
</g>
<mask id="mask12_3_1535" style="mask-type:luminance" maskUnits="userSpaceOnUse" x="3" y="3" width="24" height="48">
<path d="M18.9216 5.97423H24.6854C24.8371 5.97423 25.4741 5.94389 25.9898 5.39785C26.5055 4.88215 26.5662 4.2451 26.5662 4.12376C26.5662 4.12376 26.5662 4.12376 26.5662 4.09342V3.09235H3.84485V4.09342C3.84485 5.12483 4.69424 5.97423 5.72565 5.97423H11.4894C13.0365 5.97423 14.3106 7.24832 14.3106 8.79544V44.3184C14.3106 45.8655 13.0365 47.1396 11.4894 47.1396H5.72565C4.69424 47.1396 3.84485 47.989 3.84485 49.0204V50.0215H26.5662L26.5359 49.0204C26.5359 47.989 25.6865 47.1396 24.6551 47.1396H18.8913C17.3442 47.1396 16.0701 45.8655 16.0701 44.3184H16.1004V8.79544C16.1004 7.24832 17.3442 5.97423 18.9216 5.97423Z" fill="white"/>
</mask>
<g mask="url(#mask12_3_1535)">
<path d="M-50.9719 -15.5346L24.6547 59.637" stroke="white" stroke-width="2" stroke-miterlimit="10"/>
</g>
<mask id="mask13_3_1535" style="mask-type:luminance" maskUnits="userSpaceOnUse" x="3" y="3" width="24" height="48">
<path d="M18.9216 5.97423H24.6854C24.8371 5.97423 25.4741 5.94389 25.9898 5.39785C26.5055 4.88215 26.5662 4.2451 26.5662 4.12376C26.5662 4.12376 26.5662 4.12376 26.5662 4.09342V3.09235H3.84485V4.09342C3.84485 5.12483 4.69424 5.97423 5.72565 5.97423H11.4894C13.0365 5.97423 14.3106 7.24832 14.3106 8.79544V44.3184C14.3106 45.8655 13.0365 47.1396 11.4894 47.1396H5.72565C4.69424 47.1396 3.84485 47.989 3.84485 49.0204V50.0215H26.5662L26.5359 49.0204C26.5359 47.989 25.6865 47.1396 24.6551 47.1396H18.8913C17.3442 47.1396 16.0701 45.8655 16.0701 44.3184H16.1004V8.79544C16.1004 7.24832 17.3442 5.97423 18.9216 5.97423Z" fill="white"/>
</mask>
<g mask="url(#mask13_3_1535)">
<path d="M-49.3027 -15.2017L26.3239 59.9699" stroke="white" stroke-width="2" stroke-miterlimit="10"/>
</g>
<mask id="mask14_3_1535" style="mask-type:luminance" maskUnits="userSpaceOnUse" x="3" y="3" width="24" height="48">
<path d="M18.9216 5.97423H24.6854C24.8371 5.97423 25.4741 5.94389 25.9898 5.39785C26.5055 4.88215 26.5662 4.2451 26.5662 4.12376C26.5662 4.12376 26.5662 4.12376 26.5662 4.09342V3.09235H3.84485V4.09342C3.84485 5.12483 4.69424 5.97423 5.72565 5.97423H11.4894C13.0365 5.97423 14.3106 7.24832 14.3106 8.79544V44.3184C14.3106 45.8655 13.0365 47.1396 11.4894 47.1396H5.72565C4.69424 47.1396 3.84485 47.989 3.84485 49.0204V50.0215H26.5662L26.5359 49.0204C26.5359 47.989 25.6865 47.1396 24.6551 47.1396H18.8913C17.3442 47.1396 16.0701 45.8655 16.0701 44.3184H16.1004V8.79544C16.1004 7.24832 17.3442 5.97423 18.9216 5.97423Z" fill="white"/>
</mask>
<g mask="url(#mask14_3_1535)">
<path d="M-47.6352 -14.8359L28.0218 60.3357" stroke="white" stroke-width="2" stroke-miterlimit="10"/>
</g>
<mask id="mask15_3_1535" style="mask-type:luminance" maskUnits="userSpaceOnUse" x="3" y="3" width="24" height="48">
<path d="M18.9216 5.97423H24.6854C24.8371 5.97423 25.4741 5.94389 25.9898 5.39785C26.5055 4.88215 26.5662 4.2451 26.5662 4.12376C26.5662 4.12376 26.5662 4.12376 26.5662 4.09342V3.09235H3.84485V4.09342C3.84485 5.12483 4.69424 5.97423 5.72565 5.97423H11.4894C13.0365 5.97423 14.3106 7.24832 14.3106 8.79544V44.3184C14.3106 45.8655 13.0365 47.1396 11.4894 47.1396H5.72565C4.69424 47.1396 3.84485 47.989 3.84485 49.0204V50.0215H26.5662L26.5359 49.0204C26.5359 47.989 25.6865 47.1396 24.6551 47.1396H18.8913C17.3442 47.1396 16.0701 45.8655 16.0701 44.3184H16.1004V8.79544C16.1004 7.24832 17.3442 5.97423 18.9216 5.97423Z" fill="white"/>
</mask>
<g mask="url(#mask15_3_1535)">
<path d="M-45.9355 -14.5014L29.6911 60.6702" stroke="white" stroke-width="2" stroke-miterlimit="10"/>
</g>
<mask id="mask16_3_1535" style="mask-type:luminance" maskUnits="userSpaceOnUse" x="3" y="3" width="24" height="48">
<path d="M18.9216 5.97423H24.6854C24.8371 5.97423 25.4741 5.94389 25.9898 5.39785C26.5055 4.88215 26.5662 4.2451 26.5662 4.12376C26.5662 4.12376 26.5662 4.12376 26.5662 4.09342V3.09235H3.84485V4.09342C3.84485 5.12483 4.69424 5.97423 5.72565 5.97423H11.4894C13.0365 5.97423 14.3106 7.24832 14.3106 8.79544V44.3184C14.3106 45.8655 13.0365 47.1396 11.4894 47.1396H5.72565C4.69424 47.1396 3.84485 47.989 3.84485 49.0204V50.0215H26.5662L26.5359 49.0204C26.5359 47.989 25.6865 47.1396 24.6551 47.1396H18.8913C17.3442 47.1396 16.0701 45.8655 16.0701 44.3184H16.1004V8.79544C16.1004 7.24832 17.3442 5.97423 18.9216 5.97423Z" fill="white"/>
</mask>
<g mask="url(#mask16_3_1535)">
<path d="M-44.2672 -14.1389L31.3898 61.0327" stroke="white" stroke-width="2" stroke-miterlimit="10"/>
</g>
<mask id="mask17_3_1535" style="mask-type:luminance" maskUnits="userSpaceOnUse" x="3" y="3" width="24" height="48">
<path d="M18.9216 5.97423H24.6854C24.8371 5.97423 25.4741 5.94389 25.9898 5.39785C26.5055 4.88215 26.5662 4.2451 26.5662 4.12376C26.5662 4.12376 26.5662 4.12376 26.5662 4.09342V3.09235H3.84485V4.09342C3.84485 5.12483 4.69424 5.97423 5.72565 5.97423H11.4894C13.0365 5.97423 14.3106 7.24832 14.3106 8.79544V44.3184C14.3106 45.8655 13.0365 47.1396 11.4894 47.1396H5.72565C4.69424 47.1396 3.84485 47.989 3.84485 49.0204V50.0215H26.5662L26.5359 49.0204C26.5359 47.989 25.6865 47.1396 24.6551 47.1396H18.8913C17.3442 47.1396 16.0701 45.8655 16.0701 44.3184H16.1004V8.79544C16.1004 7.24832 17.3442 5.97423 18.9216 5.97423Z" fill="white"/>
</mask>
<g mask="url(#mask17_3_1535)">
<path d="M-42.5684 -13.8044L33.0583 61.3672" stroke="white" stroke-width="2" stroke-miterlimit="10"/>
</g>
<mask id="mask18_3_1535" style="mask-type:luminance" maskUnits="userSpaceOnUse" x="3" y="3" width="24" height="48">
<path d="M18.9216 5.97423H24.6854C24.8371 5.97423 25.4741 5.94389 25.9898 5.39785C26.5055 4.88215 26.5662 4.2451 26.5662 4.12376C26.5662 4.12376 26.5662 4.12376 26.5662 4.09342V3.09235H3.84485V4.09342C3.84485 5.12483 4.69424 5.97423 5.72565 5.97423H11.4894C13.0365 5.97423 14.3106 7.24832 14.3106 8.79544V44.3184C14.3106 45.8655 13.0365 47.1396 11.4894 47.1396H5.72565C4.69424 47.1396 3.84485 47.989 3.84485 49.0204V50.0215H26.5662L26.5359 49.0204C26.5359 47.989 25.6865 47.1396 24.6551 47.1396H18.8913C17.3442 47.1396 16.0701 45.8655 16.0701 44.3184H16.1004V8.79544C16.1004 7.24832 17.3442 5.97423 18.9216 5.97423Z" fill="white"/>
</mask>
<g mask="url(#mask18_3_1535)">
<path d="M-40.9 -13.4716L34.757 61.7304" stroke="white" stroke-width="2" stroke-miterlimit="10"/>
</g>
<mask id="mask19_3_1535" style="mask-type:luminance" maskUnits="userSpaceOnUse" x="3" y="3" width="24" height="48">
<path d="M18.9216 5.97423H24.6854C24.8371 5.97423 25.4741 5.94389 25.9898 5.39785C26.5055 4.88215 26.5662 4.2451 26.5662 4.12376C26.5662 4.12376 26.5662 4.12376 26.5662 4.09342V3.09235H3.84485V4.09342C3.84485 5.12483 4.69424 5.97423 5.72565 5.97423H11.4894C13.0365 5.97423 14.3106 7.24832 14.3106 8.79544V44.3184C14.3106 45.8655 13.0365 47.1396 11.4894 47.1396H5.72565C4.69424 47.1396 3.84485 47.989 3.84485 49.0204V50.0215H26.5662L26.5359 49.0204C26.5359 47.989 25.6865 47.1396 24.6551 47.1396H18.8913C17.3442 47.1396 16.0701 45.8655 16.0701 44.3184H16.1004V8.79544C16.1004 7.24832 17.3442 5.97423 18.9216 5.97423Z" fill="white"/>
</mask>
<g mask="url(#mask19_3_1535)">
<path d="M-39.2012 -13.1074L36.4255 62.0642" stroke="white" stroke-width="2" stroke-miterlimit="10"/>
</g>
<mask id="mask20_3_1535" style="mask-type:luminance" maskUnits="userSpaceOnUse" x="3" y="3" width="24" height="48">
<path d="M18.9216 5.97423H24.6854C24.8371 5.97423 25.4741 5.94389 25.9898 5.39785C26.5055 4.88215 26.5662 4.2451 26.5662 4.12376C26.5662 4.12376 26.5662 4.12376 26.5662 4.09342V3.09235H3.84485V4.09342C3.84485 5.12483 4.69424 5.97423 5.72565 5.97423H11.4894C13.0365 5.97423 14.3106 7.24832 14.3106 8.79544V44.3184C14.3106 45.8655 13.0365 47.1396 11.4894 47.1396H5.72565C4.69424 47.1396 3.84485 47.989 3.84485 49.0204V50.0215H26.5662L26.5359 49.0204C26.5359 47.989 25.6865 47.1396 24.6551 47.1396H18.8913C17.3442 47.1396 16.0701 45.8655 16.0701 44.3184H16.1004V8.79544C16.1004 7.24832 17.3442 5.97423 18.9216 5.97423Z" fill="white"/>
</mask>
<g mask="url(#mask20_3_1535)">
<path d="M-37.5328 -12.7729L38.1242 62.3987" stroke="white" stroke-width="2" stroke-miterlimit="10"/>
</g>
<mask id="mask21_3_1535" style="mask-type:luminance" maskUnits="userSpaceOnUse" x="3" y="3" width="24" height="48">
<path d="M18.9216 5.97423H24.6854C24.8371 5.97423 25.4741 5.94389 25.9898 5.39785C26.5055 4.88215 26.5662 4.2451 26.5662 4.12376C26.5662 4.12376 26.5662 4.12376 26.5662 4.09342V3.09235H3.84485V4.09342C3.84485 5.12483 4.69424 5.97423 5.72565 5.97423H11.4894C13.0365 5.97423 14.3106 7.24832 14.3106 8.79544V44.3184C14.3106 45.8655 13.0365 47.1396 11.4894 47.1396H5.72565C4.69424 47.1396 3.84485 47.989 3.84485 49.0204V50.0215H26.5662L26.5359 49.0204C26.5359 47.989 25.6865 47.1396 24.6551 47.1396H18.8913C17.3442 47.1396 16.0701 45.8655 16.0701 44.3184H16.1004V8.79544C16.1004 7.24832 17.3442 5.97423 18.9216 5.97423Z" fill="white"/>
</mask>
<g mask="url(#mask21_3_1535)">
<path d="M-35.834 -12.4088L39.7927 62.7628" stroke="white" stroke-width="2" stroke-miterlimit="10"/>
</g>
<mask id="mask22_3_1535" style="mask-type:luminance" maskUnits="userSpaceOnUse" x="3" y="3" width="24" height="48">
<path d="M18.9216 5.97423H24.6854C24.8371 5.97423 25.4741 5.94389 25.9898 5.39785C26.5055 4.88215 26.5662 4.2451 26.5662 4.12376C26.5662 4.12376 26.5662 4.12376 26.5662 4.09342V3.09235H3.84485V4.09342C3.84485 5.12483 4.69424 5.97423 5.72565 5.97423H11.4894C13.0365 5.97423 14.3106 7.24832 14.3106 8.79544V44.3184C14.3106 45.8655 13.0365 47.1396 11.4894 47.1396H5.72565C4.69424 47.1396 3.84485 47.989 3.84485 49.0204V50.0215H26.5662L26.5359 49.0204C26.5359 47.989 25.6865 47.1396 24.6551 47.1396H18.8913C17.3442 47.1396 16.0701 45.8655 16.0701 44.3184H16.1004V8.79544C16.1004 7.24832 17.3442 5.97423 18.9216 5.97423Z" fill="white"/>
</mask>
<g mask="url(#mask22_3_1535)">
<path d="M-34.1656 -12.0776L41.4914 63.094" stroke="white" stroke-width="2" stroke-miterlimit="10"/>
</g>
<mask id="mask23_3_1535" style="mask-type:luminance" maskUnits="userSpaceOnUse" x="3" y="3" width="24" height="48">
<path d="M18.9216 5.97423H24.6854C24.8371 5.97423 25.4741 5.94389 25.9898 5.39785C26.5055 4.88215 26.5662 4.2451 26.5662 4.12376C26.5662 4.12376 26.5662 4.12376 26.5662 4.09342V3.09235H3.84485V4.09342C3.84485 5.12483 4.69424 5.97423 5.72565 5.97423H11.4894C13.0365 5.97423 14.3106 7.24832 14.3106 8.79544V44.3184C14.3106 45.8655 13.0365 47.1396 11.4894 47.1396H5.72565C4.69424 47.1396 3.84485 47.989 3.84485 49.0204V50.0215H26.5662L26.5359 49.0204C26.5359 47.989 25.6865 47.1396 24.6551 47.1396H18.8913C17.3442 47.1396 16.0701 45.8655 16.0701 44.3184H16.1004V8.79544C16.1004 7.24832 17.3442 5.97423 18.9216 5.97423Z" fill="white"/>
</mask>
<g mask="url(#mask23_3_1535)">
<path d="M-32.4668 -11.7134L43.1599 63.4582" stroke="white" stroke-width="2" stroke-miterlimit="10"/>
</g>
<mask id="mask24_3_1535" style="mask-type:luminance" maskUnits="userSpaceOnUse" x="3" y="3" width="24" height="48">
<path d="M18.9216 5.97423H24.6854C24.8371 5.97423 25.4741 5.94389 25.9898 5.39785C26.5055 4.88215 26.5662 4.2451 26.5662 4.12376C26.5662 4.12376 26.5662 4.12376 26.5662 4.09342V3.09235H3.84485V4.09342C3.84485 5.12483 4.69424 5.97423 5.72565 5.97423H11.4894C13.0365 5.97423 14.3106 7.24832 14.3106 8.79544V44.3184C14.3106 45.8655 13.0365 47.1396 11.4894 47.1396H5.72565C4.69424 47.1396 3.84485 47.989 3.84485 49.0204V50.0215H26.5662L26.5359 49.0204C26.5359 47.989 25.6865 47.1396 24.6551 47.1396H18.8913C17.3442 47.1396 16.0701 45.8655 16.0701 44.3184H16.1004V8.79544C16.1004 7.24832 17.3442 5.97423 18.9216 5.97423Z" fill="white"/>
</mask>
<g mask="url(#mask24_3_1535)">
<path d="M-30.7984 -11.3789L44.8585 63.7927" stroke="white" stroke-width="2" stroke-miterlimit="10"/>
</g>
<mask id="mask25_3_1535" style="mask-type:luminance" maskUnits="userSpaceOnUse" x="3" y="3" width="24" height="48">
<path d="M18.9216 5.97423H24.6854C24.8371 5.97423 25.4741 5.94389 25.9898 5.39785C26.5055 4.88215 26.5662 4.2451 26.5662 4.12376C26.5662 4.12376 26.5662 4.12376 26.5662 4.09342V3.09235H3.84485V4.09342C3.84485 5.12483 4.69424 5.97423 5.72565 5.97423H11.4894C13.0365 5.97423 14.3106 7.24832 14.3106 8.79544V44.3184C14.3106 45.8655 13.0365 47.1396 11.4894 47.1396H5.72565C4.69424 47.1396 3.84485 47.989 3.84485 49.0204V50.0215H26.5662L26.5359 49.0204C26.5359 47.989 25.6865 47.1396 24.6551 47.1396H18.8913C17.3442 47.1396 16.0701 45.8655 16.0701 44.3184H16.1004V8.79544C16.1004 7.24832 17.3442 5.97423 18.9216 5.97423Z" fill="white"/>
</mask>
<g mask="url(#mask25_3_1535)">
<path d="M-29.0996 -11.0444L46.5271 64.1272" stroke="white" stroke-width="2" stroke-miterlimit="10"/>
</g>
<mask id="mask26_3_1535" style="mask-type:luminance" maskUnits="userSpaceOnUse" x="3" y="3" width="24" height="48">
<path d="M18.9216 5.97423H24.6854C24.8371 5.97423 25.4741 5.94389 25.9898 5.39785C26.5055 4.88215 26.5662 4.2451 26.5662 4.12376C26.5662 4.12376 26.5662 4.12376 26.5662 4.09342V3.09235H3.84485V4.09342C3.84485 5.12483 4.69424 5.97423 5.72565 5.97423H11.4894C13.0365 5.97423 14.3106 7.24832 14.3106 8.79544V44.3184C14.3106 45.8655 13.0365 47.1396 11.4894 47.1396H5.72565C4.69424 47.1396 3.84485 47.989 3.84485 49.0204V50.0215H26.5662L26.5359 49.0204C26.5359 47.989 25.6865 47.1396 24.6551 47.1396H18.8913C17.3442 47.1396 16.0701 45.8655 16.0701 44.3184H16.1004V8.79544C16.1004 7.24832 17.3442 5.97423 18.9216 5.97423Z" fill="white"/>
</mask>
<g mask="url(#mask26_3_1535)">
<path d="M-27.4312 -10.6803L48.1954 64.4913" stroke="white" stroke-width="2" stroke-miterlimit="10"/>
</g>
<mask id="mask27_3_1535" style="mask-type:luminance" maskUnits="userSpaceOnUse" x="3" y="3" width="24" height="48">
<path d="M18.9216 5.97423H24.6854C24.8371 5.97423 25.4741 5.94389 25.9898 5.39785C26.5055 4.88215 26.5662 4.2451 26.5662 4.12376C26.5662 4.12376 26.5662 4.12376 26.5662 4.09342V3.09235H3.84485V4.09342C3.84485 5.12483 4.69424 5.97423 5.72565 5.97423H11.4894C13.0365 5.97423 14.3106 7.24832 14.3106 8.79544V44.3184C14.3106 45.8655 13.0365 47.1396 11.4894 47.1396H5.72565C4.69424 47.1396 3.84485 47.989 3.84485 49.0204V50.0215H26.5662L26.5359 49.0204C26.5359 47.989 25.6865 47.1396 24.6551 47.1396H18.8913C17.3442 47.1396 16.0701 45.8655 16.0701 44.3184H16.1004V8.79544C16.1004 7.24832 17.3442 5.97423 18.9216 5.97423Z" fill="white"/>
</mask>
<g mask="url(#mask27_3_1535)">
<path d="M-25.7629 -10.3458L49.8941 64.8258" stroke="white" stroke-width="2" stroke-miterlimit="10"/>
</g>
<mask id="mask28_3_1535" style="mask-type:luminance" maskUnits="userSpaceOnUse" x="3" y="3" width="24" height="48">
<path d="M18.9216 5.97423H24.6854C24.8371 5.97423 25.4741 5.94389 25.9898 5.39785C26.5055 4.88215 26.5662 4.2451 26.5662 4.12376C26.5662 4.12376 26.5662 4.12376 26.5662 4.09342V3.09235H3.84485V4.09342C3.84485 5.12483 4.69424 5.97423 5.72565 5.97423H11.4894C13.0365 5.97423 14.3106 7.24832 14.3106 8.79544V44.3184C14.3106 45.8655 13.0365 47.1396 11.4894 47.1396H5.72565C4.69424 47.1396 3.84485 47.989 3.84485 49.0204V50.0215H26.5662L26.5359 49.0204C26.5359 47.989 25.6865 47.1396 24.6551 47.1396H18.8913C17.3442 47.1396 16.0701 45.8655 16.0701 44.3184H16.1004V8.79544C16.1004 7.24832 17.3442 5.97423 18.9216 5.97423Z" fill="white"/>
</mask>
<g mask="url(#mask28_3_1535)">
<path d="M-24.064 -9.98326L51.5626 65.1883" stroke="white" stroke-width="2" stroke-miterlimit="10"/>
</g>
<mask id="mask29_3_1535" style="mask-type:luminance" maskUnits="userSpaceOnUse" x="3" y="3" width="24" height="48">
<path d="M18.9216 5.97423H24.6854C24.8371 5.97423 25.4741 5.94389 25.9898 5.39785C26.5055 4.88215 26.5662 4.2451 26.5662 4.12376C26.5662 4.12376 26.5662 4.12376 26.5662 4.09342V3.09235H3.84485V4.09342C3.84485 5.12483 4.69424 5.97423 5.72565 5.97423H11.4894C13.0365 5.97423 14.3106 7.24832 14.3106 8.79544V44.3184C14.3106 45.8655 13.0365 47.1396 11.4894 47.1396H5.72565C4.69424 47.1396 3.84485 47.989 3.84485 49.0204V50.0215H26.5662L26.5359 49.0204C26.5359 47.989 25.6865 47.1396 24.6551 47.1396H18.8913C17.3442 47.1396 16.0701 45.8655 16.0701 44.3184H16.1004V8.79544C16.1004 7.24832 17.3442 5.97423 18.9216 5.97423Z" fill="white"/>
</mask>
<g mask="url(#mask29_3_1535)">
<path d="M-22.3949 -9.64877L53.2621 65.5228" stroke="white" stroke-width="2" stroke-miterlimit="10"/>
</g>
<mask id="mask30_3_1535" style="mask-type:luminance" maskUnits="userSpaceOnUse" x="3" y="3" width="24" height="48">
<path d="M18.9216 5.97423H24.6854C24.8371 5.97423 25.4741 5.94389 25.9898 5.39785C26.5055 4.88215 26.5662 4.2451 26.5662 4.12376C26.5662 4.12376 26.5662 4.12376 26.5662 4.09342V3.09235H3.84485V4.09342C3.84485 5.12483 4.69424 5.97423 5.72565 5.97423H11.4894C13.0365 5.97423 14.3106 7.24832 14.3106 8.79544V44.3184C14.3106 45.8655 13.0365 47.1396 11.4894 47.1396H5.72565C4.69424 47.1396 3.84485 47.989 3.84485 49.0204V50.0215H26.5662L26.5359 49.0204C26.5359 47.989 25.6865 47.1396 24.6551 47.1396H18.8913C17.3442 47.1396 16.0701 45.8655 16.0701 44.3184H16.1004V8.79544C16.1004 7.24832 17.3442 5.97423 18.9216 5.97423Z" fill="white"/>
</mask>
<g mask="url(#mask30_3_1535)">
<path d="M-20.6969 -9.31427L54.9298 65.8877" stroke="white" stroke-width="2" stroke-miterlimit="10"/>
</g>
<mask id="mask31_3_1535" style="mask-type:luminance" maskUnits="userSpaceOnUse" x="3" y="3" width="24" height="48">
<path d="M18.9216 5.97423H24.6854C24.8371 5.97423 25.4741 5.94389 25.9898 5.39785C26.5055 4.88215 26.5662 4.2451 26.5662 4.12376C26.5662 4.12376 26.5662 4.12376 26.5662 4.09342V3.09235H3.84485V4.09342C3.84485 5.12483 4.69424 5.97423 5.72565 5.97423H11.4894C13.0365 5.97423 14.3106 7.24832 14.3106 8.79544V44.3184C14.3106 45.8655 13.0365 47.1396 11.4894 47.1396H5.72565C4.69424 47.1396 3.84485 47.989 3.84485 49.0204V50.0215H26.5662L26.5359 49.0204C26.5359 47.989 25.6865 47.1396 24.6551 47.1396H18.8913C17.3442 47.1396 16.0701 45.8655 16.0701 44.3184H16.1004V8.79544C16.1004 7.24832 17.3442 5.97423 18.9216 5.97423Z" fill="white"/>
</mask>
<g mask="url(#mask31_3_1535)">
<path d="M-19.0277 -8.95177L56.6293 66.2198" stroke="white" stroke-width="2" stroke-miterlimit="10"/>
</g>
<mask id="mask32_3_1535" style="mask-type:luminance" maskUnits="userSpaceOnUse" x="3" y="3" width="24" height="48">
<path d="M18.9216 5.97423H24.6854C24.8371 5.97423 25.4741 5.94389 25.9898 5.39785C26.5055 4.88215 26.5662 4.2451 26.5662 4.12376C26.5662 4.12376 26.5662 4.12376 26.5662 4.09342V3.09235H3.84485V4.09342C3.84485 5.12483 4.69424 5.97423 5.72565 5.97423H11.4894C13.0365 5.97423 14.3106 7.24832 14.3106 8.79544V44.3184C14.3106 45.8655 13.0365 47.1396 11.4894 47.1396H5.72565C4.69424 47.1396 3.84485 47.989 3.84485 49.0204V50.0215H26.5662L26.5359 49.0204C26.5359 47.989 25.6865 47.1396 24.6551 47.1396H18.8913C17.3442 47.1396 16.0701 45.8655 16.0701 44.3184H16.1004V8.79544C16.1004 7.24832 17.3442 5.97423 18.9216 5.97423Z" fill="white"/>
</mask>
<g mask="url(#mask32_3_1535)">
<path d="M-17.3297 -8.61728L58.297 66.5543" stroke="white" stroke-width="2" stroke-miterlimit="10"/>
</g>
<mask id="mask33_3_1535" style="mask-type:luminance" maskUnits="userSpaceOnUse" x="3" y="3" width="24" height="48">
<path d="M18.9216 5.97423H24.6854C24.8371 5.97423 25.4741 5.94389 25.9898 5.39785C26.5055 4.88215 26.5662 4.2451 26.5662 4.12376C26.5662 4.12376 26.5662 4.12376 26.5662 4.09342V3.09235H3.84485V4.09342C3.84485 5.12483 4.69424 5.97423 5.72565 5.97423H11.4894C13.0365 5.97423 14.3106 7.24832 14.3106 8.79544V44.3184C14.3106 45.8655 13.0365 47.1396 11.4894 47.1396H5.72565C4.69424 47.1396 3.84485 47.989 3.84485 49.0204V50.0215H26.5662L26.5359 49.0204C26.5359 47.989 25.6865 47.1396 24.6551 47.1396H18.8913C17.3442 47.1396 16.0701 45.8655 16.0701 44.3184H16.1004V8.79544C16.1004 7.24832 17.3442 5.97423 18.9216 5.97423Z" fill="white"/>
</mask>
<g mask="url(#mask33_3_1535)">
<path d="M-15.6605 -8.25311L59.9965 66.9185" stroke="white" stroke-width="2" stroke-miterlimit="10"/>
</g>
<mask id="mask34_3_1535" style="mask-type:luminance" maskUnits="userSpaceOnUse" x="3" y="3" width="24" height="48">
<path d="M18.9216 5.97423H24.6854C24.8371 5.97423 25.4741 5.94389 25.9898 5.39785C26.5055 4.88215 26.5662 4.2451 26.5662 4.12376C26.5662 4.12376 26.5662 4.12376 26.5662 4.09342V3.09235H3.84485V4.09342C3.84485 5.12483 4.69424 5.97423 5.72565 5.97423H11.4894C13.0365 5.97423 14.3106 7.24832 14.3106 8.79544V44.3184C14.3106 45.8655 13.0365 47.1396 11.4894 47.1396H5.72565C4.69424 47.1396 3.84485 47.989 3.84485 49.0204V50.0215H26.5662L26.5359 49.0204C26.5359 47.989 25.6865 47.1396 24.6551 47.1396H18.8913C17.3442 47.1396 16.0701 45.8655 16.0701 44.3184H16.1004V8.79544C16.1004 7.24832 17.3442 5.97423 18.9216 5.97423Z" fill="white"/>
</mask>
<g mask="url(#mask34_3_1535)">
<path d="M-13.9616 -7.92027L61.665 67.2513" stroke="white" stroke-width="2" stroke-miterlimit="10"/>
</g>
<mask id="mask35_3_1535" style="mask-type:luminance" maskUnits="userSpaceOnUse" x="3" y="3" width="24" height="48">
<path d="M18.9216 5.97423H24.6854C24.8371 5.97423 25.4741 5.94389 25.9898 5.39785C26.5055 4.88215 26.5662 4.2451 26.5662 4.12376C26.5662 4.12376 26.5662 4.12376 26.5662 4.09342V3.09235H3.84485V4.09342C3.84485 5.12483 4.69424 5.97423 5.72565 5.97423H11.4894C13.0365 5.97423 14.3106 7.24832 14.3106 8.79544V44.3184C14.3106 45.8655 13.0365 47.1396 11.4894 47.1396H5.72565C4.69424 47.1396 3.84485 47.989 3.84485 49.0204V50.0215H26.5662L26.5359 49.0204C26.5359 47.989 25.6865 47.1396 24.6551 47.1396H18.8913C17.3442 47.1396 16.0701 45.8655 16.0701 44.3184H16.1004V8.79544C16.1004 7.24832 17.3442 5.97423 18.9216 5.97423Z" fill="white"/>
</mask>
<g mask="url(#mask35_3_1535)">
<path d="M-12.2933 -7.58578L63.3637 67.6162" stroke="white" stroke-width="2" stroke-miterlimit="10"/>
</g>
<mask id="mask36_3_1535" style="mask-type:luminance" maskUnits="userSpaceOnUse" x="3" y="3" width="24" height="48">
<path d="M18.9216 5.97423H24.6854C24.8371 5.97423 25.4741 5.94389 25.9898 5.39785C26.5055 4.88215 26.5662 4.2451 26.5662 4.12376C26.5662 4.12376 26.5662 4.12376 26.5662 4.09342V3.09235H3.84485V4.09342C3.84485 5.12483 4.69424 5.97423 5.72565 5.97423H11.4894C13.0365 5.97423 14.3106 7.24832 14.3106 8.79544V44.3184C14.3106 45.8655 13.0365 47.1396 11.4894 47.1396H5.72565C4.69424 47.1396 3.84485 47.989 3.84485 49.0204V50.0215H26.5662L26.5359 49.0204C26.5359 47.989 25.6865 47.1396 24.6551 47.1396H18.8913C17.3442 47.1396 16.0701 45.8655 16.0701 44.3184H16.1004V8.79544C16.1004 7.24832 17.3442 5.97423 18.9216 5.97423Z" fill="white"/>
</mask>
<g mask="url(#mask36_3_1535)">
<path d="M-10.5945 -7.22327L65.0322 67.9483" stroke="white" stroke-width="2" stroke-miterlimit="10"/>
</g>
<mask id="mask37_3_1535" style="mask-type:luminance" maskUnits="userSpaceOnUse" x="3" y="3" width="24" height="48">
<path d="M18.9216 5.97423H24.6854C24.8371 5.97423 25.4741 5.94389 25.9898 5.39785C26.5055 4.88215 26.5662 4.2451 26.5662 4.12376C26.5662 4.12376 26.5662 4.12376 26.5662 4.09342V3.09235H3.84485V4.09342C3.84485 5.12483 4.69424 5.97423 5.72565 5.97423H11.4894C13.0365 5.97423 14.3106 7.24832 14.3106 8.79544V44.3184C14.3106 45.8655 13.0365 47.1396 11.4894 47.1396H5.72565C4.69424 47.1396 3.84485 47.989 3.84485 49.0204V50.0215H26.5662L26.5359 49.0204C26.5359 47.989 25.6865 47.1396 24.6551 47.1396H18.8913C17.3442 47.1396 16.0701 45.8655 16.0701 44.3184H16.1004V8.79544C16.1004 7.24832 17.3442 5.97423 18.9216 5.97423Z" fill="white"/>
</mask>
<g mask="url(#mask37_3_1535)">
<path d="M-8.92526 -6.89043L66.7014 68.2812" stroke="white" stroke-width="2" stroke-miterlimit="10"/>
</g>
<mask id="mask38_3_1535" style="mask-type:luminance" maskUnits="userSpaceOnUse" x="3" y="3" width="24" height="48">
<path d="M18.9216 5.97423H24.6854C24.8371 5.97423 25.4741 5.94389 25.9898 5.39785C26.5055 4.88215 26.5662 4.2451 26.5662 4.12376C26.5662 4.12376 26.5662 4.12376 26.5662 4.09342V3.09235H3.84485V4.09342C3.84485 5.12483 4.69424 5.97423 5.72565 5.97423H11.4894C13.0365 5.97423 14.3106 7.24832 14.3106 8.79544V44.3184C14.3106 45.8655 13.0365 47.1396 11.4894 47.1396H5.72565C4.69424 47.1396 3.84485 47.989 3.84485 49.0204V50.0215H26.5662L26.5359 49.0204C26.5359 47.989 25.6865 47.1396 24.6551 47.1396H18.8913C17.3442 47.1396 16.0701 45.8655 16.0701 44.3184H16.1004V8.79544C16.1004 7.24832 17.3442 5.97423 18.9216 5.97423Z" fill="white"/>
</mask>
<g mask="url(#mask38_3_1535)">
<path d="M-7.22726 -6.52463L68.3994 68.647" stroke="white" stroke-width="2" stroke-miterlimit="10"/>
</g>
<mask id="mask39_3_1535" style="mask-type:luminance" maskUnits="userSpaceOnUse" x="3" y="3" width="24" height="48">
<path d="M18.9216 5.97423H24.6854C24.8371 5.97423 25.4741 5.94389 25.9898 5.39785C26.5055 4.88215 26.5662 4.2451 26.5662 4.12376C26.5662 4.12376 26.5662 4.12376 26.5662 4.09342V3.09235H3.84485V4.09342C3.84485 5.12483 4.69424 5.97423 5.72565 5.97423H11.4894C13.0365 5.97423 14.3106 7.24832 14.3106 8.79544V44.3184C14.3106 45.8655 13.0365 47.1396 11.4894 47.1396H5.72565C4.69424 47.1396 3.84485 47.989 3.84485 49.0204V50.0215H26.5662L26.5359 49.0204C26.5359 47.989 25.6865 47.1396 24.6551 47.1396H18.8913C17.3442 47.1396 16.0701 45.8655 16.0701 44.3184H16.1004V8.79544C16.1004 7.24832 17.3442 5.97423 18.9216 5.97423Z" fill="white"/>
</mask>
<g mask="url(#mask39_3_1535)">
<path d="M-5.5589 -6.19012L70.0981 68.9815" stroke="white" stroke-width="2" stroke-miterlimit="10"/>
</g>
<mask id="mask40_3_1535" style="mask-type:luminance" maskUnits="userSpaceOnUse" x="3" y="3" width="24" height="48">
<path d="M18.9216 5.97423H24.6854C24.8371 5.97423 25.4741 5.94389 25.9898 5.39785C26.5055 4.88215 26.5662 4.2451 26.5662 4.12376C26.5662 4.12376 26.5662 4.12376 26.5662 4.09342V3.09235H3.84485V4.09342C3.84485 5.12483 4.69424 5.97423 5.72565 5.97423H11.4894C13.0365 5.97423 14.3106 7.24832 14.3106 8.79544V44.3184C14.3106 45.8655 13.0365 47.1396 11.4894 47.1396H5.72565C4.69424 47.1396 3.84485 47.989 3.84485 49.0204V50.0215H26.5662L26.5359 49.0204C26.5359 47.989 25.6865 47.1396 24.6551 47.1396H18.8913C17.3442 47.1396 16.0701 45.8655 16.0701 44.3184H16.1004V8.79544C16.1004 7.24832 17.3442 5.97423 18.9216 5.97423Z" fill="white"/>
</mask>
<g mask="url(#mask40_3_1535)">
<path d="M-3.89137 -5.85728L71.7656 69.3143" stroke="white" stroke-width="2" stroke-miterlimit="10"/>
</g>
<mask id="mask41_3_1535" style="mask-type:luminance" maskUnits="userSpaceOnUse" x="3" y="3" width="24" height="48">
<path d="M18.9216 5.97423H24.6854C24.8371 5.97423 25.4741 5.94389 25.9898 5.39785C26.5055 4.88215 26.5662 4.2451 26.5662 4.12376C26.5662 4.12376 26.5662 4.12376 26.5662 4.09342V3.09235H3.84485V4.09342C3.84485 5.12483 4.69424 5.97423 5.72565 5.97423H11.4894C13.0365 5.97423 14.3106 7.24832 14.3106 8.79544V44.3184C14.3106 45.8655 13.0365 47.1396 11.4894 47.1396H5.72565C4.69424 47.1396 3.84485 47.989 3.84485 49.0204V50.0215H26.5662L26.5359 49.0204C26.5359 47.989 25.6865 47.1396 24.6551 47.1396H18.8913C17.3442 47.1396 16.0701 45.8655 16.0701 44.3184H16.1004V8.79544C16.1004 7.24832 17.3442 5.97423 18.9216 5.97423Z" fill="white"/>
</mask>
<g mask="url(#mask41_3_1535)">
<path d="M-2.19171 -5.49313L73.4349 69.6785" stroke="white" stroke-width="2" stroke-miterlimit="10"/>
</g>
<mask id="mask42_3_1535" style="mask-type:luminance" maskUnits="userSpaceOnUse" x="3" y="3" width="24" height="48">
<path d="M18.9216 5.97423H24.6854C24.8371 5.97423 25.4741 5.94389 25.9898 5.39785C26.5055 4.88215 26.5662 4.2451 26.5662 4.12376C26.5662 4.12376 26.5662 4.12376 26.5662 4.09342V3.09235H3.84485V4.09342C3.84485 5.12483 4.69424 5.97423 5.72565 5.97423H11.4894C13.0365 5.97423 14.3106 7.24832 14.3106 8.79544V44.3184C14.3106 45.8655 13.0365 47.1396 11.4894 47.1396H5.72565C4.69424 47.1396 3.84485 47.989 3.84485 49.0204V50.0215H26.5662L26.5359 49.0204C26.5359 47.989 25.6865 47.1396 24.6551 47.1396H18.8913C17.3442 47.1396 16.0701 45.8655 16.0701 44.3184H16.1004V8.79544C16.1004 7.24832 17.3442 5.97423 18.9216 5.97423Z" fill="white"/>
</mask>
<g mask="url(#mask42_3_1535)">
<path d="M-35.712 -40.0763L39.9449 35.0953" stroke="white" stroke-width="2" stroke-miterlimit="10"/>
</g>
<mask id="mask43_3_1535" style="mask-type:luminance" maskUnits="userSpaceOnUse" x="3" y="3" width="24" height="48">
<path d="M18.9216 5.97423H24.6854C24.8371 5.97423 25.4741 5.94389 25.9898 5.39785C26.5055 4.88215 26.5662 4.2451 26.5662 4.12376C26.5662 4.12376 26.5662 4.12376 26.5662 4.09342V3.09235H3.84485V4.09342C3.84485 5.12483 4.69424 5.97423 5.72565 5.97423H11.4894C13.0365 5.97423 14.3106 7.24832 14.3106 8.79544V44.3184C14.3106 45.8655 13.0365 47.1396 11.4894 47.1396H5.72565C4.69424 47.1396 3.84485 47.989 3.84485 49.0204V50.0215H26.5662L26.5359 49.0204C26.5359 47.989 25.6865 47.1396 24.6551 47.1396H18.8913C17.3442 47.1396 16.0701 45.8655 16.0701 44.3184H16.1004V8.79544C16.1004 7.24832 17.3442 5.97423 18.9216 5.97423Z" fill="white"/>
</mask>
<g mask="url(#mask43_3_1535)">
<path d="M-34.0445 -39.7418L41.6125 35.4298" stroke="white" stroke-width="2" stroke-miterlimit="10"/>
</g>
<mask id="mask44_3_1535" style="mask-type:luminance" maskUnits="userSpaceOnUse" x="3" y="3" width="24" height="48">
<path d="M18.9216 5.97423H24.6854C24.8371 5.97423 25.4741 5.94389 25.9898 5.39785C26.5055 4.88215 26.5662 4.2451 26.5662 4.12376C26.5662 4.12376 26.5662 4.12376 26.5662 4.09342V3.09235H3.84485V4.09342C3.84485 5.12483 4.69424 5.97423 5.72565 5.97423H11.4894C13.0365 5.97423 14.3106 7.24832 14.3106 8.79544V44.3184C14.3106 45.8655 13.0365 47.1396 11.4894 47.1396H5.72565C4.69424 47.1396 3.84485 47.989 3.84485 49.0204V50.0215H26.5662L26.5359 49.0204C26.5359 47.989 25.6865 47.1396 24.6551 47.1396H18.8913C17.3442 47.1396 16.0701 45.8655 16.0701 44.3184H16.1004V8.79544C16.1004 7.24832 17.3442 5.97423 18.9216 5.97423Z" fill="white"/>
</mask>
<g mask="url(#mask44_3_1535)">
<path d="M-32.3457 -39.3793L43.281 35.7923" stroke="white" stroke-width="2" stroke-miterlimit="10"/>
</g>
<mask id="mask45_3_1535" style="mask-type:luminance" maskUnits="userSpaceOnUse" x="3" y="3" width="24" height="48">
<path d="M18.9216 5.97423H24.6854C24.8371 5.97423 25.4741 5.94389 25.9898 5.39785C26.5055 4.88215 26.5662 4.2451 26.5662 4.12376C26.5662 4.12376 26.5662 4.12376 26.5662 4.09342V3.09235H3.84485V4.09342C3.84485 5.12483 4.69424 5.97423 5.72565 5.97423H11.4894C13.0365 5.97423 14.3106 7.24832 14.3106 8.79544V44.3184C14.3106 45.8655 13.0365 47.1396 11.4894 47.1396H5.72565C4.69424 47.1396 3.84485 47.989 3.84485 49.0204V50.0215H26.5662L26.5359 49.0204C26.5359 47.989 25.6865 47.1396 24.6551 47.1396H18.8913C17.3442 47.1396 16.0701 45.8655 16.0701 44.3184H16.1004V8.79544C16.1004 7.24832 17.3442 5.97423 18.9216 5.97423Z" fill="white"/>
</mask>
<g mask="url(#mask45_3_1535)">
<path d="M-30.6773 -39.0448L44.9797 36.1268" stroke="white" stroke-width="2" stroke-miterlimit="10"/>
</g>
<mask id="mask46_3_1535" style="mask-type:luminance" maskUnits="userSpaceOnUse" x="3" y="3" width="24" height="48">
<path d="M18.9216 5.97423H24.6854C24.8371 5.97423 25.4741 5.94389 25.9898 5.39785C26.5055 4.88215 26.5662 4.2451 26.5662 4.12376C26.5662 4.12376 26.5662 4.12376 26.5662 4.09342V3.09235H3.84485V4.09342C3.84485 5.12483 4.69424 5.97423 5.72565 5.97423H11.4894C13.0365 5.97423 14.3106 7.24832 14.3106 8.79544V44.3184C14.3106 45.8655 13.0365 47.1396 11.4894 47.1396H5.72565C4.69424 47.1396 3.84485 47.989 3.84485 49.0204V50.0215H26.5662L26.5359 49.0204C26.5359 47.989 25.6865 47.1396 24.6551 47.1396H18.8913C17.3442 47.1396 16.0701 45.8655 16.0701 44.3184H16.1004V8.79544C16.1004 7.24832 17.3442 5.97423 18.9216 5.97423Z" fill="white"/>
</mask>
<g mask="url(#mask46_3_1535)">
<path d="M-28.9785 -38.7103L46.6482 36.4917" stroke="white" stroke-width="2" stroke-miterlimit="10"/>
</g>
<mask id="mask47_3_1535" style="mask-type:luminance" maskUnits="userSpaceOnUse" x="3" y="3" width="24" height="48">
<path d="M18.9216 5.97423H24.6854C24.8371 5.97423 25.4741 5.94389 25.9898 5.39785C26.5055 4.88215 26.5662 4.2451 26.5662 4.12376C26.5662 4.12376 26.5662 4.12376 26.5662 4.09342V3.09235H3.84485V4.09342C3.84485 5.12483 4.69424 5.97423 5.72565 5.97423H11.4894C13.0365 5.97423 14.3106 7.24832 14.3106 8.79544V44.3184C14.3106 45.8655 13.0365 47.1396 11.4894 47.1396H5.72565C4.69424 47.1396 3.84485 47.989 3.84485 49.0204V50.0215H26.5662L26.5359 49.0204C26.5359 47.989 25.6865 47.1396 24.6551 47.1396H18.8913C17.3442 47.1396 16.0701 45.8655 16.0701 44.3184H16.1004V8.79544C16.1004 7.24832 17.3442 5.97423 18.9216 5.97423Z" fill="white"/>
</mask>
<g mask="url(#mask47_3_1535)">
<path d="M-27.3101 -38.3461L48.3469 36.8255" stroke="white" stroke-width="2" stroke-miterlimit="10"/>
</g>
<mask id="mask48_3_1535" style="mask-type:luminance" maskUnits="userSpaceOnUse" x="3" y="3" width="24" height="48">
<path d="M18.9216 5.97423H24.6854C24.8371 5.97423 25.4741 5.94389 25.9898 5.39785C26.5055 4.88215 26.5662 4.2451 26.5662 4.12376C26.5662 4.12376 26.5662 4.12376 26.5662 4.09342V3.09235H3.84485V4.09342C3.84485 5.12483 4.69424 5.97423 5.72565 5.97423H11.4894C13.0365 5.97423 14.3106 7.24832 14.3106 8.79544V44.3184C14.3106 45.8655 13.0365 47.1396 11.4894 47.1396H5.72565C4.69424 47.1396 3.84485 47.989 3.84485 49.0204V50.0215H26.5662L26.5359 49.0204C26.5359 47.989 25.6865 47.1396 24.6551 47.1396H18.8913C17.3442 47.1396 16.0701 45.8655 16.0701 44.3184H16.1004V8.79544C16.1004 7.24832 17.3442 5.97423 18.9216 5.97423Z" fill="white"/>
</mask>
<g mask="url(#mask48_3_1535)">
<path d="M-25.6105 -38.0133L50.0162 37.1583" stroke="white" stroke-width="2" stroke-miterlimit="10"/>
</g>
<mask id="mask49_3_1535" style="mask-type:luminance" maskUnits="userSpaceOnUse" x="3" y="3" width="24" height="48">
<path d="M18.9216 5.97423H24.6854C24.8371 5.97423 25.4741 5.94389 25.9898 5.39785C26.5055 4.88215 26.5662 4.2451 26.5662 4.12376C26.5662 4.12376 26.5662 4.12376 26.5662 4.09342V3.09235H3.84485V4.09342C3.84485 5.12483 4.69424 5.97423 5.72565 5.97423H11.4894C13.0365 5.97423 14.3106 7.24832 14.3106 8.79544V44.3184C14.3106 45.8655 13.0365 47.1396 11.4894 47.1396H5.72565C4.69424 47.1396 3.84485 47.989 3.84485 49.0204V50.0215H26.5662L26.5359 49.0204C26.5359 47.989 25.6865 47.1396 24.6551 47.1396H18.8913C17.3442 47.1396 16.0701 45.8655 16.0701 44.3184H16.1004V8.79544C16.1004 7.24832 17.3442 5.97423 18.9216 5.97423Z" fill="white"/>
</mask>
<g mask="url(#mask49_3_1535)">
<path d="M-23.9429 -37.6491L51.714 37.5225" stroke="white" stroke-width="2" stroke-miterlimit="10"/>
</g>
<mask id="mask50_3_1535" style="mask-type:luminance" maskUnits="userSpaceOnUse" x="3" y="3" width="24" height="48">
<path d="M18.9216 5.97423H24.6854C24.8371 5.97423 25.4741 5.94389 25.9898 5.39785C26.5055 4.88215 26.5662 4.2451 26.5662 4.12376C26.5662 4.12376 26.5662 4.12376 26.5662 4.09342V3.09235H3.84485V4.09342C3.84485 5.12483 4.69424 5.97423 5.72565 5.97423H11.4894C13.0365 5.97423 14.3106 7.24832 14.3106 8.79544V44.3184C14.3106 45.8655 13.0365 47.1396 11.4894 47.1396H5.72565C4.69424 47.1396 3.84485 47.989 3.84485 49.0204V50.0215H26.5662L26.5359 49.0204C26.5359 47.989 25.6865 47.1396 24.6551 47.1396H18.8913C17.3442 47.1396 16.0701 45.8655 16.0701 44.3184H16.1004V8.79544C16.1004 7.24832 17.3442 5.97423 18.9216 5.97423Z" fill="white"/>
</mask>
<g mask="url(#mask50_3_1535)">
<path d="M-22.2433 -37.313L53.3834 37.8586" stroke="white" stroke-width="2" stroke-miterlimit="10"/>
</g>
<mask id="mask51_3_1535" style="mask-type:luminance" maskUnits="userSpaceOnUse" x="3" y="3" width="24" height="48">
<path d="M18.9216 5.97423H24.6854C24.8371 5.97423 25.4741 5.94389 25.9898 5.39785C26.5055 4.88215 26.5662 4.2451 26.5662 4.12376C26.5662 4.12376 26.5662 4.12376 26.5662 4.09342V3.09235H3.84485V4.09342C3.84485 5.12483 4.69424 5.97423 5.72565 5.97423H11.4894C13.0365 5.97423 14.3106 7.24832 14.3106 8.79544V44.3184C14.3106 45.8655 13.0365 47.1396 11.4894 47.1396H5.72565C4.69424 47.1396 3.84485 47.989 3.84485 49.0204V50.0215H26.5662L26.5359 49.0204C26.5359 47.989 25.6865 47.1396 24.6551 47.1396H18.8913C17.3442 47.1396 16.0701 45.8655 16.0701 44.3184H16.1004V8.79544C16.1004 7.24832 17.3442 5.97423 18.9216 5.97423Z" fill="white"/>
</mask>
<g mask="url(#mask51_3_1535)">
<path d="M-20.5749 -36.9521L55.0821 38.2195" stroke="white" stroke-width="2" stroke-miterlimit="10"/>
</g>
<mask id="mask52_3_1535" style="mask-type:luminance" maskUnits="userSpaceOnUse" x="3" y="3" width="24" height="48">
<path d="M18.9216 5.97423H24.6854C24.8371 5.97423 25.4741 5.94389 25.9898 5.39785C26.5055 4.88215 26.5662 4.2451 26.5662 4.12376C26.5662 4.12376 26.5662 4.12376 26.5662 4.09342V3.09235H3.84485V4.09342C3.84485 5.12483 4.69424 5.97423 5.72565 5.97423H11.4894C13.0365 5.97423 14.3106 7.24832 14.3106 8.79544V44.3184C14.3106 45.8655 13.0365 47.1396 11.4894 47.1396H5.72565C4.69424 47.1396 3.84485 47.989 3.84485 49.0204V50.0215H26.5662L26.5359 49.0204C26.5359 47.989 25.6865 47.1396 24.6551 47.1396H18.8913C17.3442 47.1396 16.0701 45.8655 16.0701 44.3184H16.1004V8.79544C16.1004 7.24832 17.3442 5.97423 18.9216 5.97423Z" fill="white"/>
</mask>
<g mask="url(#mask52_3_1535)">
<path d="M-18.8769 -36.6176L56.7497 38.554" stroke="white" stroke-width="2" stroke-miterlimit="10"/>
</g>
<mask id="mask53_3_1535" style="mask-type:luminance" maskUnits="userSpaceOnUse" x="3" y="3" width="24" height="48">
<path d="M18.9216 5.97423H24.6854C24.8371 5.97423 25.4741 5.94389 25.9898 5.39785C26.5055 4.88215 26.5662 4.2451 26.5662 4.12376C26.5662 4.12376 26.5662 4.12376 26.5662 4.09342V3.09235H3.84485V4.09342C3.84485 5.12483 4.69424 5.97423 5.72565 5.97423H11.4894C13.0365 5.97423 14.3106 7.24832 14.3106 8.79544V44.3184C14.3106 45.8655 13.0365 47.1396 11.4894 47.1396H5.72565C4.69424 47.1396 3.84485 47.989 3.84485 49.0204V50.0215H26.5662L26.5359 49.0204C26.5359 47.989 25.6865 47.1396 24.6551 47.1396H18.8913C17.3442 47.1396 16.0701 45.8655 16.0701 44.3184H16.1004V8.79544C16.1004 7.24832 17.3442 5.97423 18.9216 5.97423Z" fill="white"/>
</mask>
<g mask="url(#mask53_3_1535)">
<path d="M-17.2085 -36.2831L58.4484 38.8885" stroke="white" stroke-width="2" stroke-miterlimit="10"/>
</g>
<mask id="mask54_3_1535" style="mask-type:luminance" maskUnits="userSpaceOnUse" x="3" y="3" width="24" height="48">
<path d="M18.9216 5.97423H24.6854C24.8371 5.97423 25.4741 5.94389 25.9898 5.39785C26.5055 4.88215 26.5662 4.2451 26.5662 4.12376C26.5662 4.12376 26.5662 4.12376 26.5662 4.09342V3.09235H3.84485V4.09342C3.84485 5.12483 4.69424 5.97423 5.72565 5.97423H11.4894C13.0365 5.97423 14.3106 7.24832 14.3106 8.79544V44.3184C14.3106 45.8655 13.0365 47.1396 11.4894 47.1396H5.72565C4.69424 47.1396 3.84485 47.989 3.84485 49.0204V50.0215H26.5662L26.5359 49.0204C26.5359 47.989 25.6865 47.1396 24.6551 47.1396H18.8913C17.3442 47.1396 16.0701 45.8655 16.0701 44.3184H16.1004V8.79544C16.1004 7.24832 17.3442 5.97423 18.9216 5.97423Z" fill="white"/>
</mask>
<g mask="url(#mask54_3_1535)">
<path d="M-15.5097 -35.919L60.1169 39.2526" stroke="white" stroke-width="2" stroke-miterlimit="10"/>
</g>
<mask id="mask55_3_1535" style="mask-type:luminance" maskUnits="userSpaceOnUse" x="3" y="3" width="24" height="48">
<path d="M18.9216 5.97423H24.6854C24.8371 5.97423 25.4741 5.94389 25.9898 5.39785C26.5055 4.88215 26.5662 4.2451 26.5662 4.12376C26.5662 4.12376 26.5662 4.12376 26.5662 4.09342V3.09235H3.84485V4.09342C3.84485 5.12483 4.69424 5.97423 5.72565 5.97423H11.4894C13.0365 5.97423 14.3106 7.24832 14.3106 8.79544V44.3184C14.3106 45.8655 13.0365 47.1396 11.4894 47.1396H5.72565C4.69424 47.1396 3.84485 47.989 3.84485 49.0204V50.0215H26.5662L26.5359 49.0204C26.5359 47.989 25.6865 47.1396 24.6551 47.1396H18.8913C17.3442 47.1396 16.0701 45.8655 16.0701 44.3184H16.1004V8.79544C16.1004 7.24832 17.3442 5.97423 18.9216 5.97423Z" fill="white"/>
</mask>
<g mask="url(#mask55_3_1535)">
<path d="M-13.8405 -35.5845L61.7861 39.5871" stroke="white" stroke-width="2" stroke-miterlimit="10"/>
</g>
<mask id="mask56_3_1535" style="mask-type:luminance" maskUnits="userSpaceOnUse" x="3" y="3" width="24" height="48">
<path d="M18.9216 5.97423H24.6854C24.8371 5.97423 25.4741 5.94389 25.9898 5.39785C26.5055 4.88215 26.5662 4.2451 26.5662 4.12376C26.5662 4.12376 26.5662 4.12376 26.5662 4.09342V3.09235H3.84485V4.09342C3.84485 5.12483 4.69424 5.97423 5.72565 5.97423H11.4894C13.0365 5.97423 14.3106 7.24832 14.3106 8.79544V44.3184C14.3106 45.8655 13.0365 47.1396 11.4894 47.1396H5.72565C4.69424 47.1396 3.84485 47.989 3.84485 49.0204V50.0215H26.5662L26.5359 49.0204C26.5359 47.989 25.6865 47.1396 24.6551 47.1396H18.8913C17.3442 47.1396 16.0701 45.8655 16.0701 44.3184H16.1004V8.79544C16.1004 7.24832 17.3442 5.97423 18.9216 5.97423Z" fill="white"/>
</mask>
<g mask="url(#mask56_3_1535)">
<path d="M-12.1722 -35.222L63.4848 39.9496" stroke="white" stroke-width="2" stroke-miterlimit="10"/>
</g>
<mask id="mask57_3_1535" style="mask-type:luminance" maskUnits="userSpaceOnUse" x="3" y="3" width="24" height="48">
<path d="M18.9216 5.97423H24.6854C24.8371 5.97423 25.4741 5.94389 25.9898 5.39785C26.5055 4.88215 26.5662 4.2451 26.5662 4.12376C26.5662 4.12376 26.5662 4.12376 26.5662 4.09342V3.09235H3.84485V4.09342C3.84485 5.12483 4.69424 5.97423 5.72565 5.97423H11.4894C13.0365 5.97423 14.3106 7.24832 14.3106 8.79544V44.3184C14.3106 45.8655 13.0365 47.1396 11.4894 47.1396H5.72565C4.69424 47.1396 3.84485 47.989 3.84485 49.0204V50.0215H26.5662L26.5359 49.0204C26.5359 47.989 25.6865 47.1396 24.6551 47.1396H18.8913C17.3442 47.1396 16.0701 45.8655 16.0701 44.3184H16.1004V8.79544C16.1004 7.24832 17.3442 5.97423 18.9216 5.97423Z" fill="white"/>
</mask>
<g mask="url(#mask57_3_1535)">
<path d="M-10.4733 -34.8891L65.1533 40.2825" stroke="white" stroke-width="2" stroke-miterlimit="10"/>
</g>
<mask id="mask58_3_1535" style="mask-type:luminance" maskUnits="userSpaceOnUse" x="3" y="3" width="24" height="48">
<path d="M18.9216 5.97423H24.6854C24.8371 5.97423 25.4741 5.94389 25.9898 5.39785C26.5055 4.88215 26.5662 4.2451 26.5662 4.12376C26.5662 4.12376 26.5662 4.12376 26.5662 4.09342V3.09235H3.84485V4.09342C3.84485 5.12483 4.69424 5.97423 5.72565 5.97423H11.4894C13.0365 5.97423 14.3106 7.24832 14.3106 8.79544V44.3184C14.3106 45.8655 13.0365 47.1396 11.4894 47.1396H5.72565C4.69424 47.1396 3.84485 47.989 3.84485 49.0204V50.0215H26.5662L26.5359 49.0204C26.5359 47.989 25.6865 47.1396 24.6551 47.1396H18.8913C17.3442 47.1396 16.0701 45.8655 16.0701 44.3184H16.1004V8.79544C16.1004 7.24832 17.3442 5.97423 18.9216 5.97423Z" fill="white"/>
</mask>
<g mask="url(#mask58_3_1535)">
<path d="M-8.80498 -34.5546L66.852 40.6473" stroke="white" stroke-width="2" stroke-miterlimit="10"/>
</g>
<mask id="mask59_3_1535" style="mask-type:luminance" maskUnits="userSpaceOnUse" x="3" y="3" width="24" height="48">
<path d="M18.9216 5.97423H24.6854C24.8371 5.97423 25.4741 5.94389 25.9898 5.39785C26.5055 4.88215 26.5662 4.2451 26.5662 4.12376C26.5662 4.12376 26.5662 4.12376 26.5662 4.09342V3.09235H3.84485V4.09342C3.84485 5.12483 4.69424 5.97423 5.72565 5.97423H11.4894C13.0365 5.97423 14.3106 7.24832 14.3106 8.79544V44.3184C14.3106 45.8655 13.0365 47.1396 11.4894 47.1396H5.72565C4.69424 47.1396 3.84485 47.989 3.84485 49.0204V50.0215H26.5662L26.5359 49.0204C26.5359 47.989 25.6865 47.1396 24.6551 47.1396H18.8913C17.3442 47.1396 16.0701 45.8655 16.0701 44.3184H16.1004V8.79544C16.1004 7.24832 17.3442 5.97423 18.9216 5.97423Z" fill="white"/>
</mask>
<g mask="url(#mask59_3_1535)">
<path d="M-7.10614 -34.1921L68.5205 40.9795" stroke="white" stroke-width="2" stroke-miterlimit="10"/>
</g>
<mask id="mask60_3_1535" style="mask-type:luminance" maskUnits="userSpaceOnUse" x="3" y="3" width="24" height="48">
<path d="M18.9216 5.97423H24.6854C24.8371 5.97423 25.4741 5.94389 25.9898 5.39785C26.5055 4.88215 26.5662 4.2451 26.5662 4.12376C26.5662 4.12376 26.5662 4.12376 26.5662 4.09342V3.09235H3.84485V4.09342C3.84485 5.12483 4.69424 5.97423 5.72565 5.97423H11.4894C13.0365 5.97423 14.3106 7.24832 14.3106 8.79544V44.3184C14.3106 45.8655 13.0365 47.1396 11.4894 47.1396H5.72565C4.69424 47.1396 3.84485 47.989 3.84485 49.0204V50.0215H26.5662L26.5359 49.0204C26.5359 47.989 25.6865 47.1396 24.6551 47.1396H18.8913C17.3442 47.1396 16.0701 45.8655 16.0701 44.3184H16.1004V8.79544C16.1004 7.24832 17.3442 5.97423 18.9216 5.97423Z" fill="white"/>
</mask>
<g mask="url(#mask60_3_1535)">
<path d="M-5.43779 -33.8576L70.2192 41.314" stroke="white" stroke-width="2" stroke-miterlimit="10"/>
</g>
<mask id="mask61_3_1535" style="mask-type:luminance" maskUnits="userSpaceOnUse" x="3" y="3" width="24" height="48">
<path d="M18.9216 5.97423H24.6854C24.8371 5.97423 25.4741 5.94389 25.9898 5.39785C26.5055 4.88215 26.5662 4.2451 26.5662 4.12376C26.5662 4.12376 26.5662 4.12376 26.5662 4.09342V3.09235H3.84485V4.09342C3.84485 5.12483 4.69424 5.97423 5.72565 5.97423H11.4894C13.0365 5.97423 14.3106 7.24832 14.3106 8.79544V44.3184C14.3106 45.8655 13.0365 47.1396 11.4894 47.1396H5.72565C4.69424 47.1396 3.84485 47.989 3.84485 49.0204V50.0215H26.5662L26.5359 49.0204C26.5359 47.989 25.6865 47.1396 24.6551 47.1396H18.8913C17.3442 47.1396 16.0701 45.8655 16.0701 44.3184H16.1004V8.79544C16.1004 7.24832 17.3442 5.97423 18.9216 5.97423Z" fill="white"/>
</mask>
<g mask="url(#mask61_3_1535)">
<path d="M-3.73895 -33.4918L71.8877 41.6798" stroke="white" stroke-width="2" stroke-miterlimit="10"/>
</g>
<mask id="mask62_3_1535" style="mask-type:luminance" maskUnits="userSpaceOnUse" x="3" y="3" width="24" height="48">
<path d="M18.9216 5.97423H24.6854C24.8371 5.97423 25.4741 5.94389 25.9898 5.39785C26.5055 4.88215 26.5662 4.2451 26.5662 4.12376C26.5662 4.12376 26.5662 4.12376 26.5662 4.09342V3.09235H3.84485V4.09342C3.84485 5.12483 4.69424 5.97423 5.72565 5.97423H11.4894C13.0365 5.97423 14.3106 7.24832 14.3106 8.79544V44.3184C14.3106 45.8655 13.0365 47.1396 11.4894 47.1396H5.72565C4.69424 47.1396 3.84485 47.989 3.84485 49.0204V50.0215H26.5662L26.5359 49.0204C26.5359 47.989 25.6865 47.1396 24.6551 47.1396H18.8913C17.3442 47.1396 16.0701 45.8655 16.0701 44.3184H16.1004V8.79544C16.1004 7.24832 17.3442 5.97423 18.9216 5.97423Z" fill="white"/>
</mask>
<g mask="url(#mask62_3_1535)">
<path d="M-2.06978 -33.1573L73.5872 42.0143" stroke="white" stroke-width="2" stroke-miterlimit="10"/>
</g>
<mask id="mask63_3_1535" style="mask-type:luminance" maskUnits="userSpaceOnUse" x="3" y="3" width="24" height="48">
<path d="M18.9216 5.97423H24.6854C24.8371 5.97423 25.4741 5.94389 25.9898 5.39785C26.5055 4.88215 26.5662 4.2451 26.5662 4.12376C26.5662 4.12376 26.5662 4.12376 26.5662 4.09342V3.09235H3.84485V4.09342C3.84485 5.12483 4.69424 5.97423 5.72565 5.97423H11.4894C13.0365 5.97423 14.3106 7.24832 14.3106 8.79544V44.3184C14.3106 45.8655 13.0365 47.1396 11.4894 47.1396H5.72565C4.69424 47.1396 3.84485 47.989 3.84485 49.0204V50.0215H26.5662L26.5359 49.0204C26.5359 47.989 25.6865 47.1396 24.6551 47.1396H18.8913C17.3442 47.1396 16.0701 45.8655 16.0701 44.3184H16.1004V8.79544C16.1004 7.24832 17.3442 5.97423 18.9216 5.97423Z" fill="white"/>
</mask>
<g mask="url(#mask63_3_1535)">
<path d="M-0.371765 -32.7948L75.2549 42.3768" stroke="white" stroke-width="2" stroke-miterlimit="10"/>
</g>
<mask id="mask64_3_1535" style="mask-type:luminance" maskUnits="userSpaceOnUse" x="3" y="3" width="24" height="48">
<path d="M18.9216 5.97423H24.6854C24.8371 5.97423 25.4741 5.94389 25.9898 5.39785C26.5055 4.88215 26.5662 4.2451 26.5662 4.12376C26.5662 4.12376 26.5662 4.12376 26.5662 4.09342V3.09235H3.84485V4.09342C3.84485 5.12483 4.69424 5.97423 5.72565 5.97423H11.4894C13.0365 5.97423 14.3106 7.24832 14.3106 8.79544V44.3184C14.3106 45.8655 13.0365 47.1396 11.4894 47.1396H5.72565C4.69424 47.1396 3.84485 47.989 3.84485 49.0204V50.0215H26.5662L26.5359 49.0204C26.5359 47.989 25.6865 47.1396 24.6551 47.1396H18.8913C17.3442 47.1396 16.0701 45.8655 16.0701 44.3184H16.1004V8.79544C16.1004 7.24832 17.3442 5.97423 18.9216 5.97423Z" fill="white"/>
</mask>
<g mask="url(#mask64_3_1535)">
<path d="M1.29659 -32.462L76.9536 42.7096" stroke="white" stroke-width="2" stroke-miterlimit="10"/>
</g>
<mask id="mask65_3_1535" style="mask-type:luminance" maskUnits="userSpaceOnUse" x="3" y="3" width="24" height="48">
<path d="M18.9216 5.97423H24.6854C24.8371 5.97423 25.4741 5.94389 25.9898 5.39785C26.5055 4.88215 26.5662 4.2451 26.5662 4.12376C26.5662 4.12376 26.5662 4.12376 26.5662 4.09342V3.09235H3.84485V4.09342C3.84485 5.12483 4.69424 5.97423 5.72565 5.97423H11.4894C13.0365 5.97423 14.3106 7.24832 14.3106 8.79544V44.3184C14.3106 45.8655 13.0365 47.1396 11.4894 47.1396H5.72565C4.69424 47.1396 3.84485 47.989 3.84485 49.0204V50.0215H26.5662L26.5359 49.0204C26.5359 47.989 25.6865 47.1396 24.6551 47.1396H18.8913C17.3442 47.1396 16.0701 45.8655 16.0701 44.3184H16.1004V8.79544C16.1004 7.24832 17.3442 5.97423 18.9216 5.97423Z" fill="white"/>
</mask>
<g mask="url(#mask65_3_1535)">
<path d="M2.99542 -32.1275L78.6221 43.0441" stroke="white" stroke-width="2" stroke-miterlimit="10"/>
</g>
<mask id="mask66_3_1535" style="mask-type:luminance" maskUnits="userSpaceOnUse" x="3" y="3" width="24" height="48">
<path d="M18.9216 5.97423H24.6854C24.8371 5.97423 25.4741 5.94389 25.9898 5.39785C26.5055 4.88215 26.5662 4.2451 26.5662 4.12376C26.5662 4.12376 26.5662 4.12376 26.5662 4.09342V3.09235H3.84485V4.09342C3.84485 5.12483 4.69424 5.97423 5.72565 5.97423H11.4894C13.0365 5.97423 14.3106 7.24832 14.3106 8.79544V44.3184C14.3106 45.8655 13.0365 47.1396 11.4894 47.1396H5.72565C4.69424 47.1396 3.84485 47.989 3.84485 49.0204V50.0215H26.5662L26.5359 49.0204C26.5359 47.989 25.6865 47.1396 24.6551 47.1396H18.8913C17.3442 47.1396 16.0701 45.8655 16.0701 44.3184H16.1004V8.79544C16.1004 7.24832 17.3442 5.97423 18.9216 5.97423Z" fill="white"/>
</mask>
<g mask="url(#mask66_3_1535)">
<path d="M4.66461 -31.7633L80.3216 43.4083" stroke="white" stroke-width="2" stroke-miterlimit="10"/>
</g>
<mask id="mask67_3_1535" style="mask-type:luminance" maskUnits="userSpaceOnUse" x="3" y="3" width="24" height="48">
<path d="M18.9216 5.97423H24.6854C24.8371 5.97423 25.4741 5.94389 25.9898 5.39785C26.5055 4.88215 26.5662 4.2451 26.5662 4.12376C26.5662 4.12376 26.5662 4.12376 26.5662 4.09342V3.09235H3.84485V4.09342C3.84485 5.12483 4.69424 5.97423 5.72565 5.97423H11.4894C13.0365 5.97423 14.3106 7.24832 14.3106 8.79544V44.3184C14.3106 45.8655 13.0365 47.1396 11.4894 47.1396H5.72565C4.69424 47.1396 3.84485 47.989 3.84485 49.0204V50.0215H26.5662L26.5359 49.0204C26.5359 47.989 25.6865 47.1396 24.6551 47.1396H18.8913C17.3442 47.1396 16.0701 45.8655 16.0701 44.3184H16.1004V8.79544C16.1004 7.24832 17.3442 5.97423 18.9216 5.97423Z" fill="white"/>
</mask>
<g mask="url(#mask67_3_1535)">
<path d="M6.36345 -31.4305L81.9901 43.7411" stroke="white" stroke-width="2" stroke-miterlimit="10"/>
</g>
<mask id="mask68_3_1535" style="mask-type:luminance" maskUnits="userSpaceOnUse" x="3" y="3" width="24" height="48">
<path d="M18.9216 5.97423H24.6854C24.8371 5.97423 25.4741 5.94389 25.9898 5.39785C26.5055 4.88215 26.5662 4.2451 26.5662 4.12376C26.5662 4.12376 26.5662 4.12376 26.5662 4.09342V3.09235H3.84485V4.09342C3.84485 5.12483 4.69424 5.97423 5.72565 5.97423H11.4894C13.0365 5.97423 14.3106 7.24832 14.3106 8.79544V44.3184C14.3106 45.8655 13.0365 47.1396 11.4894 47.1396H5.72565C4.69424 47.1396 3.84485 47.989 3.84485 49.0204V50.0215H26.5662L26.5359 49.0204C26.5359 47.989 25.6865 47.1396 24.6551 47.1396H18.8913C17.3442 47.1396 16.0701 45.8655 16.0701 44.3184H16.1004V8.79544C16.1004 7.24832 17.3442 5.97423 18.9216 5.97423Z" fill="white"/>
</mask>
<g mask="url(#mask68_3_1535)">
<path d="M8.0318 -31.096L83.6584 44.106" stroke="white" stroke-width="2" stroke-miterlimit="10"/>
</g>
<mask id="mask69_3_1535" style="mask-type:luminance" maskUnits="userSpaceOnUse" x="3" y="3" width="24" height="48">
<path d="M18.9216 5.97423H24.6854C24.8371 5.97423 25.4741 5.94389 25.9898 5.39785C26.5055 4.88215 26.5662 4.2451 26.5662 4.12376C26.5662 4.12376 26.5662 4.12376 26.5662 4.09342V3.09235H3.84485V4.09342C3.84485 5.12483 4.69424 5.97423 5.72565 5.97423H11.4894C13.0365 5.97423 14.3106 7.24832 14.3106 8.79544V44.3184C14.3106 45.8655 13.0365 47.1396 11.4894 47.1396H5.72565C4.69424 47.1396 3.84485 47.989 3.84485 49.0204V50.0215H26.5662L26.5359 49.0204C26.5359 47.989 25.6865 47.1396 24.6551 47.1396H18.8913C17.3442 47.1396 16.0701 45.8655 16.0701 44.3184H16.1004V8.79544C16.1004 7.24832 17.3442 5.97423 18.9216 5.97423Z" fill="white"/>
</mask>
<g mask="url(#mask69_3_1535)">
<path d="M9.73064 -30.7318L85.3573 44.4398" stroke="white" stroke-width="2" stroke-miterlimit="10"/>
</g>
<mask id="mask70_3_1535" style="mask-type:luminance" maskUnits="userSpaceOnUse" x="3" y="3" width="24" height="48">
<path d="M18.9216 5.97423H24.6854C24.8371 5.97423 25.4741 5.94389 25.9898 5.39785C26.5055 4.88215 26.5662 4.2451 26.5662 4.12376C26.5662 4.12376 26.5662 4.12376 26.5662 4.09342V3.09235H3.84485V4.09342C3.84485 5.12483 4.69424 5.97423 5.72565 5.97423H11.4894C13.0365 5.97423 14.3106 7.24832 14.3106 8.79544V44.3184C14.3106 45.8655 13.0365 47.1396 11.4894 47.1396H5.72565C4.69424 47.1396 3.84485 47.989 3.84485 49.0204V50.0215H26.5662L26.5359 49.0204C26.5359 47.989 25.6865 47.1396 24.6551 47.1396H18.8913C17.3442 47.1396 16.0701 45.8655 16.0701 44.3184H16.1004V8.79544C16.1004 7.24832 17.3442 5.97423 18.9216 5.97423Z" fill="white"/>
</mask>
<g mask="url(#mask70_3_1535)">
<path d="M11.3982 -30.399L87.0248 44.7726" stroke="white" stroke-width="2" stroke-miterlimit="10"/>
</g>
<mask id="mask71_3_1535" style="mask-type:luminance" maskUnits="userSpaceOnUse" x="3" y="3" width="24" height="48">
<path d="M18.9216 5.97423H24.6854C24.8371 5.97423 25.4741 5.94389 25.9898 5.39785C26.5055 4.88215 26.5662 4.2451 26.5662 4.12376C26.5662 4.12376 26.5662 4.12376 26.5662 4.09342V3.09235H3.84485V4.09342C3.84485 5.12483 4.69424 5.97423 5.72565 5.97423H11.4894C13.0365 5.97423 14.3106 7.24832 14.3106 8.79544V44.3184C14.3106 45.8655 13.0365 47.1396 11.4894 47.1396H5.72565C4.69424 47.1396 3.84485 47.989 3.84485 49.0204V50.0215H26.5662L26.5359 49.0204C26.5359 47.989 25.6865 47.1396 24.6551 47.1396H18.8913C17.3442 47.1396 16.0701 45.8655 16.0701 44.3184H16.1004V8.79544C16.1004 7.24832 17.3442 5.97423 18.9216 5.97423Z" fill="white"/>
</mask>
<g mask="url(#mask71_3_1535)">
<path d="M13.0665 -30.0348L88.7235 45.1368" stroke="white" stroke-width="2" stroke-miterlimit="10"/>
</g>
<mask id="mask72_3_1535" style="mask-type:luminance" maskUnits="userSpaceOnUse" x="3" y="3" width="24" height="48">
<path d="M18.9216 5.97423H24.6854C24.8371 5.97423 25.4741 5.94389 25.9898 5.39785C26.5055 4.88215 26.5662 4.2451 26.5662 4.12376C26.5662 4.12376 26.5662 4.12376 26.5662 4.09342V3.09235H3.84485V4.09342C3.84485 5.12483 4.69424 5.97423 5.72565 5.97423H11.4894C13.0365 5.97423 14.3106 7.24832 14.3106 8.79544V44.3184C14.3106 45.8655 13.0365 47.1396 11.4894 47.1396H5.72565C4.69424 47.1396 3.84485 47.989 3.84485 49.0204V50.0215H26.5662L26.5359 49.0204C26.5359 47.989 25.6865 47.1396 24.6551 47.1396H18.8913C17.3442 47.1396 16.0701 45.8655 16.0701 44.3184H16.1004V8.79544C16.1004 7.24832 17.3442 5.97423 18.9216 5.97423Z" fill="white"/>
</mask>
<g mask="url(#mask72_3_1535)">
<path d="M14.7654 -29.702L90.392 45.4696" stroke="white" stroke-width="2" stroke-miterlimit="10"/>
</g>
<mask id="mask73_3_1535" style="mask-type:luminance" maskUnits="userSpaceOnUse" x="3" y="3" width="24" height="48">
<path d="M18.9216 5.97423H24.6854C24.8371 5.97423 25.4741 5.94389 25.9898 5.39785C26.5055 4.88215 26.5662 4.2451 26.5662 4.12376C26.5662 4.12376 26.5662 4.12376 26.5662 4.09342V3.09235H3.84485V4.09342C3.84485 5.12483 4.69424 5.97423 5.72565 5.97423H11.4894C13.0365 5.97423 14.3106 7.24832 14.3106 8.79544V44.3184C14.3106 45.8655 13.0365 47.1396 11.4894 47.1396H5.72565C4.69424 47.1396 3.84485 47.989 3.84485 49.0204V50.0215H26.5662L26.5359 49.0204C26.5359 47.989 25.6865 47.1396 24.6551 47.1396H18.8913C17.3442 47.1396 16.0701 45.8655 16.0701 44.3184H16.1004V8.79544C16.1004 7.24832 17.3442 5.97423 18.9216 5.97423Z" fill="white"/>
</mask>
<g mask="url(#mask73_3_1535)">
<path d="M16.4337 -29.3362L92.0907 45.8354" stroke="white" stroke-width="2" stroke-miterlimit="10"/>
</g>
<mask id="mask74_3_1535" style="mask-type:luminance" maskUnits="userSpaceOnUse" x="3" y="3" width="24" height="48">
<path d="M18.9216 5.97423H24.6854C24.8371 5.97423 25.4741 5.94389 25.9898 5.39785C26.5055 4.88215 26.5662 4.2451 26.5662 4.12376C26.5662 4.12376 26.5662 4.12376 26.5662 4.09342V3.09235H3.84485V4.09342C3.84485 5.12483 4.69424 5.97423 5.72565 5.97423H11.4894C13.0365 5.97423 14.3106 7.24832 14.3106 8.79544V44.3184C14.3106 45.8655 13.0365 47.1396 11.4894 47.1396H5.72565C4.69424 47.1396 3.84485 47.989 3.84485 49.0204V50.0215H26.5662L26.5359 49.0204C26.5359 47.989 25.6865 47.1396 24.6551 47.1396H18.8913C17.3442 47.1396 16.0701 45.8655 16.0701 44.3184H16.1004V8.79544C16.1004 7.24832 17.3442 5.97423 18.9216 5.97423Z" fill="white"/>
</mask>
<g mask="url(#mask74_3_1535)">
<path d="M18.1326 -29.0033L93.7592 46.1683" stroke="white" stroke-width="2" stroke-miterlimit="10"/>
</g>
<mask id="mask75_3_1535" style="mask-type:luminance" maskUnits="userSpaceOnUse" x="3" y="3" width="24" height="48">
<path d="M18.9216 5.97423H24.6854C24.8371 5.97423 25.4741 5.94389 25.9898 5.39785C26.5055 4.88215 26.5662 4.2451 26.5662 4.12376C26.5662 4.12376 26.5662 4.12376 26.5662 4.09342V3.09235H3.84485V4.09342C3.84485 5.12483 4.69424 5.97423 5.72565 5.97423H11.4894C13.0365 5.97423 14.3106 7.24832 14.3106 8.79544V44.3184C14.3106 45.8655 13.0365 47.1396 11.4894 47.1396H5.72565C4.69424 47.1396 3.84485 47.989 3.84485 49.0204V50.0215H26.5662L26.5359 49.0204C26.5359 47.989 25.6865 47.1396 24.6551 47.1396H18.8913C17.3442 47.1396 16.0701 45.8655 16.0701 44.3184H16.1004V8.79544C16.1004 7.24832 17.3442 5.97423 18.9216 5.97423Z" fill="white"/>
</mask>
<g mask="url(#mask75_3_1535)">
<path d="M19.8017 -28.6688L95.4587 46.5028" stroke="white" stroke-width="2" stroke-miterlimit="10"/>
</g>
<mask id="mask76_3_1535" style="mask-type:luminance" maskUnits="userSpaceOnUse" x="3" y="3" width="24" height="48">
<path d="M18.9216 5.97423H24.6854C24.8371 5.97423 25.4741 5.94389 25.9898 5.39785C26.5055 4.88215 26.5662 4.2451 26.5662 4.12376C26.5662 4.12376 26.5662 4.12376 26.5662 4.09342V3.09235H3.84485V4.09342C3.84485 5.12483 4.69424 5.97423 5.72565 5.97423H11.4894C13.0365 5.97423 14.3106 7.24832 14.3106 8.79544V44.3184C14.3106 45.8655 13.0365 47.1396 11.4894 47.1396H5.72565C4.69424 47.1396 3.84485 47.989 3.84485 49.0204V50.0215H26.5662L26.5359 49.0204C26.5359 47.989 25.6865 47.1396 24.6551 47.1396H18.8913C17.3442 47.1396 16.0701 45.8655 16.0701 44.3184H16.1004V8.79544C16.1004 7.24832 17.3442 5.97423 18.9216 5.97423Z" fill="white"/>
</mask>
<g mask="url(#mask76_3_1535)">
<path d="M21.5006 -28.3047L97.1272 46.8669" stroke="white" stroke-width="2" stroke-miterlimit="10"/>
</g>
<mask id="mask77_3_1535" style="mask-type:luminance" maskUnits="userSpaceOnUse" x="3" y="3" width="24" height="48">
<path d="M18.9216 5.97423H24.6854C24.8371 5.97423 25.4741 5.94389 25.9898 5.39785C26.5055 4.88215 26.5662 4.2451 26.5662 4.12376C26.5662 4.12376 26.5662 4.12376 26.5662 4.09342V3.09235H3.84485V4.09342C3.84485 5.12483 4.69424 5.97423 5.72565 5.97423H11.4894C13.0365 5.97423 14.3106 7.24832 14.3106 8.79544V44.3184C14.3106 45.8655 13.0365 47.1396 11.4894 47.1396H5.72565C4.69424 47.1396 3.84485 47.989 3.84485 49.0204V50.0215H26.5662L26.5359 49.0204C26.5359 47.989 25.6865 47.1396 24.6551 47.1396H18.8913C17.3442 47.1396 16.0701 45.8655 16.0701 44.3184H16.1004V8.79544C16.1004 7.24832 17.3442 5.97423 18.9216 5.97423Z" fill="white"/>
</mask>
<g mask="url(#mask77_3_1535)">
<path d="M23.1689 -27.9718L98.8259 47.1998" stroke="white" stroke-width="2" stroke-miterlimit="10"/>
</g>
<mask id="mask78_3_1535" style="mask-type:luminance" maskUnits="userSpaceOnUse" x="3" y="3" width="24" height="48">
<path d="M18.9216 5.97423H24.6854C24.8371 5.97423 25.4741 5.94389 25.9898 5.39785C26.5055 4.88215 26.5662 4.2451 26.5662 4.12376C26.5662 4.12376 26.5662 4.12376 26.5662 4.09342V3.09235H3.84485V4.09342C3.84485 5.12483 4.69424 5.97423 5.72565 5.97423H11.4894C13.0365 5.97423 14.3106 7.24832 14.3106 8.79544V44.3184C14.3106 45.8655 13.0365 47.1396 11.4894 47.1396H5.72565C4.69424 47.1396 3.84485 47.989 3.84485 49.0204V50.0215H26.5662L26.5359 49.0204C26.5359 47.989 25.6865 47.1396 24.6551 47.1396H18.8913C17.3442 47.1396 16.0701 45.8655 16.0701 44.3184H16.1004V8.79544C16.1004 7.24832 17.3442 5.97423 18.9216 5.97423Z" fill="white"/>
</mask>
<g mask="url(#mask78_3_1535)">
<path d="M24.8678 -27.6077L100.494 47.5639" stroke="white" stroke-width="2" stroke-miterlimit="10"/>
</g>
<mask id="mask79_3_1535" style="mask-type:luminance" maskUnits="userSpaceOnUse" x="3" y="3" width="24" height="48">
<path d="M18.9216 5.97423H24.6854C24.8371 5.97423 25.4741 5.94389 25.9898 5.39785C26.5055 4.88215 26.5662 4.2451 26.5662 4.12376C26.5662 4.12376 26.5662 4.12376 26.5662 4.09342V3.09235H3.84485V4.09342C3.84485 5.12483 4.69424 5.97423 5.72565 5.97423H11.4894C13.0365 5.97423 14.3106 7.24832 14.3106 8.79544V44.3184C14.3106 45.8655 13.0365 47.1396 11.4894 47.1396H5.72565C4.69424 47.1396 3.84485 47.989 3.84485 49.0204V50.0215H26.5662L26.5359 49.0204C26.5359 47.989 25.6865 47.1396 24.6551 47.1396H18.8913C17.3442 47.1396 16.0701 45.8655 16.0701 44.3184H16.1004V8.79544C16.1004 7.24832 17.3442 5.97423 18.9216 5.97423Z" fill="white"/>
</mask>
<g mask="url(#mask79_3_1535)">
<path d="M26.5361 -27.2732L102.193 47.8984" stroke="white" stroke-width="2" stroke-miterlimit="10"/>
</g>
<path d="M28.0665 1.59109V4.12234C28.0665 4.47488 27.947 5.56112 27.0509 6.45731L27.049 6.45535C26.119 7.41619 24.9935 7.4729 24.6857 7.47293H18.922C18.1835 7.47293 17.6007 8.065 17.6007 8.79422V44.5911C17.7302 45.1825 18.2667 45.638 18.8917 45.638H24.6554C26.5 45.6381 28.0108 47.1348 28.0353 48.9739L28.0656 49.9749L28.1124 51.5198H2.34485V49.0188C2.34504 47.1592 3.86599 45.638 5.72571 45.638H11.4894C12.2079 45.638 12.8104 45.0361 12.8107 44.3177V8.79422C12.8107 8.07553 12.2081 7.47293 11.4894 7.47293H5.72571C3.86587 7.47293 2.34485 5.95191 2.34485 4.09207V1.59109H28.0665Z" fill="white" stroke="white" stroke-width="3" stroke-miterlimit="10"/>
</svg>
