<svg width="32" height="53" viewBox="0 0 32 53" fill="none" xmlns="http://www.w3.org/2000/svg">
<g filter="url(#filter0_d_3_972)">
<mask id="mask0_3_972" style="mask-type:luminance" maskUnits="userSpaceOnUse" x="6" y="2" width="21" height="41">
<path d="M25.6709 2.5V2.90137C25.6706 2.90748 25.6646 3.01657 25.6133 3.16797C25.5619 3.31983 25.4702 3.4992 25.3086 3.6582L25.3038 3.66309L25.2979 3.66797C24.9804 3.99868 24.5845 4.01758 24.501 4.01758H19.3848C17.7124 4.01758 16.38 5.35066 16.3799 6.98242V37.5176H16.3526V38.0176C16.3527 39.6528 17.7155 40.9824 19.3575 40.9824H24.4737C25.1206 40.9824 25.6434 41.5077 25.6436 42.125V42.1406L25.6553 42.5H6.50005V42.125C6.50027 41.5077 7.02306 40.9824 7.66997 40.9824H12.7862C14.4281 40.9824 15.791 39.6528 15.7911 38.0176V6.98242C15.791 5.34718 14.4281 4.01758 12.7862 4.01758H7.66997C7.02306 4.01758 6.50027 3.49227 6.50005 2.875V2.5H25.6709Z" fill="white" stroke="white"/>
</mask>
<g mask="url(#mask0_3_972)">
<path d="M-60.6003 -17.899L6.53664 47.7752" stroke="#302C6D" stroke-width="2" stroke-miterlimit="10"/>
</g>
<mask id="mask1_3_972" style="mask-type:luminance" maskUnits="userSpaceOnUse" x="6" y="2" width="21" height="41">
<path d="M25.6709 2.5V2.90137C25.6706 2.90748 25.6646 3.01657 25.6133 3.16797C25.5619 3.31983 25.4702 3.4992 25.3086 3.6582L25.3038 3.66309L25.2979 3.66797C24.9804 3.99868 24.5845 4.01758 24.501 4.01758H19.3848C17.7124 4.01758 16.38 5.35066 16.3799 6.98242V37.5176H16.3526V38.0176C16.3527 39.6528 17.7155 40.9824 19.3575 40.9824H24.4737C25.1206 40.9824 25.6434 41.5077 25.6436 42.125V42.1406L25.6553 42.5H6.50005V42.125C6.50027 41.5077 7.02306 40.9824 7.66997 40.9824H12.7862C14.4281 40.9824 15.791 39.6528 15.7911 38.0176V6.98242C15.791 5.34718 14.4281 4.01758 12.7862 4.01758H7.66997C7.02306 4.01758 6.50027 3.49227 6.50005 2.875V2.5H25.6709Z" fill="white" stroke="white"/>
</mask>
<g mask="url(#mask1_3_972)">
<path d="M-59.119 -17.5847L8.04486 48.0896" stroke="#302C6D" stroke-width="2" stroke-miterlimit="10"/>
</g>
<mask id="mask2_3_972" style="mask-type:luminance" maskUnits="userSpaceOnUse" x="6" y="2" width="21" height="41">
<path d="M25.6709 2.5V2.90137C25.6706 2.90748 25.6646 3.01657 25.6133 3.16797C25.5619 3.31983 25.4702 3.4992 25.3086 3.6582L25.3038 3.66309L25.2979 3.66797C24.9804 3.99868 24.5845 4.01758 24.501 4.01758H19.3848C17.7124 4.01758 16.38 5.35066 16.3799 6.98242V37.5176H16.3526V38.0176C16.3527 39.6528 17.7155 40.9824 19.3575 40.9824H24.4737C25.1206 40.9824 25.6434 41.5077 25.6436 42.125V42.1406L25.6553 42.5H6.50005V42.125C6.50027 41.5077 7.02306 40.9824 7.66997 40.9824H12.7862C14.4281 40.9824 15.791 39.6528 15.7911 38.0176V6.98242C15.791 5.34718 14.4281 4.01758 12.7862 4.01758H7.66997C7.02306 4.01758 6.50027 3.49227 6.50005 2.875V2.5H25.6709Z" fill="white" stroke="white"/>
</mask>
<g mask="url(#mask2_3_972)">
<path d="M-57.6105 -17.2916L9.52645 48.3826" stroke="#302C6D" stroke-width="2" stroke-miterlimit="10"/>
</g>
<mask id="mask3_3_972" style="mask-type:luminance" maskUnits="userSpaceOnUse" x="6" y="2" width="21" height="41">
<path d="M25.6709 2.5V2.90137C25.6706 2.90748 25.6646 3.01657 25.6133 3.16797C25.5619 3.31983 25.4702 3.4992 25.3086 3.6582L25.3038 3.66309L25.2979 3.66797C24.9804 3.99868 24.5845 4.01758 24.501 4.01758H19.3848C17.7124 4.01758 16.38 5.35066 16.3799 6.98242V37.5176H16.3526V38.0176C16.3527 39.6528 17.7155 40.9824 19.3575 40.9824H24.4737C25.1206 40.9824 25.6434 41.5077 25.6436 42.125V42.1406L25.6553 42.5H6.50005V42.125C6.50027 41.5077 7.02306 40.9824 7.66997 40.9824H12.7862C14.4281 40.9824 15.791 39.6528 15.7911 38.0176V6.98242C15.791 5.34718 14.4281 4.01758 12.7862 4.01758H7.66997C7.02306 4.01758 6.50027 3.49227 6.50005 2.875V2.5H25.6709Z" fill="white" stroke="white"/>
</mask>
<g mask="url(#mask3_3_972)">
<path d="M-56.1293 -17.0027L11.0345 48.6715" stroke="#302C6D" stroke-width="2" stroke-miterlimit="10"/>
</g>
<mask id="mask4_3_972" style="mask-type:luminance" maskUnits="userSpaceOnUse" x="6" y="2" width="21" height="41">
<path d="M25.6709 2.5V2.90137C25.6706 2.90748 25.6646 3.01657 25.6133 3.16797C25.5619 3.31983 25.4702 3.4992 25.3086 3.6582L25.3038 3.66309L25.2979 3.66797C24.9804 3.99868 24.5845 4.01758 24.501 4.01758H19.3848C17.7124 4.01758 16.38 5.35066 16.3799 6.98242V37.5176H16.3526V38.0176C16.3527 39.6528 17.7155 40.9824 19.3575 40.9824H24.4737C25.1206 40.9824 25.6434 41.5077 25.6436 42.125V42.1406L25.6553 42.5H6.50005V42.125C6.50027 41.5077 7.02306 40.9824 7.66997 40.9824H12.7862C14.4281 40.9824 15.791 39.6528 15.7911 38.0176V6.98242C15.791 5.34718 14.4281 4.01758 12.7862 4.01758H7.66997C7.02306 4.01758 6.50027 3.49227 6.50005 2.875V2.5H25.6709Z" fill="white" stroke="white"/>
</mask>
<g mask="url(#mask4_3_972)">
<path d="M-54.6208 -16.6841L12.5161 48.9901" stroke="#302C6D" stroke-width="2" stroke-miterlimit="10"/>
</g>
<mask id="mask5_3_972" style="mask-type:luminance" maskUnits="userSpaceOnUse" x="6" y="2" width="21" height="41">
<path d="M25.6709 2.5V2.90137C25.6706 2.90748 25.6646 3.01657 25.6133 3.16797C25.5619 3.31983 25.4702 3.4992 25.3086 3.6582L25.3038 3.66309L25.2979 3.66797C24.9804 3.99868 24.5845 4.01758 24.501 4.01758H19.3848C17.7124 4.01758 16.38 5.35066 16.3799 6.98242V37.5176H16.3526V38.0176C16.3527 39.6528 17.7155 40.9824 19.3575 40.9824H24.4737C25.1206 40.9824 25.6434 41.5077 25.6436 42.125V42.1406L25.6553 42.5H6.50005V42.125C6.50027 41.5077 7.02306 40.9824 7.66997 40.9824H12.7862C14.4281 40.9824 15.791 39.6528 15.7911 38.0176V6.98242C15.791 5.34718 14.4281 4.01758 12.7862 4.01758H7.66997C7.02306 4.01758 6.50027 3.49227 6.50005 2.875V2.5H25.6709Z" fill="white" stroke="white"/>
</mask>
<g mask="url(#mask5_3_972)">
<path d="M-53.1389 -16.391L14.025 49.2832" stroke="#302C6D" stroke-width="2" stroke-miterlimit="10"/>
</g>
<mask id="mask6_3_972" style="mask-type:luminance" maskUnits="userSpaceOnUse" x="6" y="2" width="21" height="41">
<path d="M25.6709 2.5V2.90137C25.6706 2.90748 25.6646 3.01657 25.6133 3.16797C25.5619 3.31983 25.4702 3.4992 25.3086 3.6582L25.3038 3.66309L25.2979 3.66797C24.9804 3.99868 24.5845 4.01758 24.501 4.01758H19.3848C17.7124 4.01758 16.38 5.35066 16.3799 6.98242V37.5176H16.3526V38.0176C16.3527 39.6528 17.7155 40.9824 19.3575 40.9824H24.4737C25.1206 40.9824 25.6434 41.5077 25.6436 42.125V42.1406L25.6553 42.5H6.50005V42.125C6.50027 41.5077 7.02306 40.9824 7.66997 40.9824H12.7862C14.4281 40.9824 15.791 39.6528 15.7911 38.0176V6.98242C15.791 5.34718 14.4281 4.01758 12.7862 4.01758H7.66997C7.02306 4.01758 6.50027 3.49227 6.50005 2.875V2.5H25.6709Z" fill="white" stroke="white"/>
</mask>
<g mask="url(#mask6_3_972)">
<path d="M-51.6311 -16.0746L15.5058 49.5996" stroke="#302C6D" stroke-width="2" stroke-miterlimit="10"/>
</g>
<mask id="mask7_3_972" style="mask-type:luminance" maskUnits="userSpaceOnUse" x="6" y="2" width="21" height="41">
<path d="M25.6709 2.5V2.90137C25.6706 2.90748 25.6646 3.01657 25.6133 3.16797C25.5619 3.31983 25.4702 3.4992 25.3086 3.6582L25.3038 3.66309L25.2979 3.66797C24.9804 3.99868 24.5845 4.01758 24.501 4.01758H19.3848C17.7124 4.01758 16.38 5.35066 16.3799 6.98242V37.5176H16.3526V38.0176C16.3527 39.6528 17.7155 40.9824 19.3575 40.9824H24.4737C25.1206 40.9824 25.6434 41.5077 25.6436 42.125V42.1406L25.6553 42.5H6.50005V42.125C6.50027 41.5077 7.02306 40.9824 7.66997 40.9824H12.7862C14.4281 40.9824 15.791 39.6528 15.7911 38.0176V6.98242C15.791 5.34718 14.4281 4.01758 12.7862 4.01758H7.66997C7.02306 4.01758 6.50027 3.49227 6.50005 2.875V2.5H25.6709Z" fill="white" stroke="white"/>
</mask>
<g mask="url(#mask7_3_972)">
<path d="M-50.1506 -15.7836L17.0132 49.8906" stroke="#302C6D" stroke-width="2" stroke-miterlimit="10"/>
</g>
<mask id="mask8_3_972" style="mask-type:luminance" maskUnits="userSpaceOnUse" x="6" y="2" width="21" height="41">
<path d="M25.6709 2.5V2.90137C25.6706 2.90748 25.6646 3.01657 25.6133 3.16797C25.5619 3.31983 25.4702 3.4992 25.3086 3.6582L25.3038 3.66309L25.2979 3.66797C24.9804 3.99868 24.5845 4.01758 24.501 4.01758H19.3848C17.7124 4.01758 16.38 5.35066 16.3799 6.98242V37.5176H16.3526V38.0176C16.3527 39.6528 17.7155 40.9824 19.3575 40.9824H24.4737C25.1206 40.9824 25.6434 41.5077 25.6436 42.125V42.1406L25.6553 42.5H6.50005V42.125C6.50027 41.5077 7.02306 40.9824 7.66997 40.9824H12.7862C14.4281 40.9824 15.791 39.6528 15.7911 38.0176V6.98242C15.791 5.34718 14.4281 4.01758 12.7862 4.01758H7.66997C7.02306 4.01758 6.50027 3.49227 6.50005 2.875V2.5H25.6709Z" fill="white" stroke="white"/>
</mask>
<g mask="url(#mask8_3_972)">
<path d="M-48.6421 -15.4947L18.4948 50.1795" stroke="#302C6D" stroke-width="2" stroke-miterlimit="10"/>
</g>
<mask id="mask9_3_972" style="mask-type:luminance" maskUnits="userSpaceOnUse" x="6" y="2" width="21" height="41">
<path d="M25.6709 2.5V2.90137C25.6706 2.90748 25.6646 3.01657 25.6133 3.16797C25.5619 3.31983 25.4702 3.4992 25.3086 3.6582L25.3038 3.66309L25.2979 3.66797C24.9804 3.99868 24.5845 4.01758 24.501 4.01758H19.3848C17.7124 4.01758 16.38 5.35066 16.3799 6.98242V37.5176H16.3526V38.0176C16.3527 39.6528 17.7155 40.9824 19.3575 40.9824H24.4737C25.1206 40.9824 25.6434 41.5077 25.6436 42.125V42.1406L25.6553 42.5H6.50005V42.125C6.50027 41.5077 7.02306 40.9824 7.66997 40.9824H12.7862C14.4281 40.9824 15.791 39.6528 15.7911 38.0176V6.98242C15.791 5.34718 14.4281 4.01758 12.7862 4.01758H7.66997C7.02306 4.01758 6.50027 3.49227 6.50005 2.875V2.5H25.6709Z" fill="white" stroke="white"/>
</mask>
<g mask="url(#mask9_3_972)">
<path d="M-47.1602 -15.1698L20.0037 50.5044" stroke="#302C6D" stroke-width="2" stroke-miterlimit="10"/>
</g>
<mask id="mask10_3_972" style="mask-type:luminance" maskUnits="userSpaceOnUse" x="6" y="2" width="21" height="41">
<path d="M25.6709 2.5V2.90137C25.6706 2.90748 25.6646 3.01657 25.6133 3.16797C25.5619 3.31983 25.4702 3.4992 25.3086 3.6582L25.3038 3.66309L25.2979 3.66797C24.9804 3.99868 24.5845 4.01758 24.501 4.01758H19.3848C17.7124 4.01758 16.38 5.35066 16.3799 6.98242V37.5176H16.3526V38.0176C16.3527 39.6528 17.7155 40.9824 19.3575 40.9824H24.4737C25.1206 40.9824 25.6434 41.5077 25.6436 42.125V42.1406L25.6553 42.5H6.50005V42.125C6.50027 41.5077 7.02306 40.9824 7.66997 40.9824H12.7862C14.4281 40.9824 15.791 39.6528 15.7911 38.0176V6.98242C15.791 5.34718 14.4281 4.01758 12.7862 4.01758H7.66997C7.02306 4.01758 6.50027 3.49227 6.50005 2.875V2.5H25.6709Z" fill="white" stroke="white"/>
</mask>
<g mask="url(#mask10_3_972)">
<path d="M-45.6538 -14.8809L21.4832 50.7933" stroke="#302C6D" stroke-width="2" stroke-miterlimit="10"/>
</g>
<mask id="mask11_3_972" style="mask-type:luminance" maskUnits="userSpaceOnUse" x="6" y="2" width="21" height="41">
<path d="M25.6709 2.5V2.90137C25.6706 2.90748 25.6646 3.01657 25.6133 3.16797C25.5619 3.31983 25.4702 3.4992 25.3086 3.6582L25.3038 3.66309L25.2979 3.66797C24.9804 3.99868 24.5845 4.01758 24.501 4.01758H19.3848C17.7124 4.01758 16.38 5.35066 16.3799 6.98242V37.5176H16.3526V38.0176C16.3527 39.6528 17.7155 40.9824 19.3575 40.9824H24.4737C25.1206 40.9824 25.6434 41.5077 25.6436 42.125V42.1406L25.6553 42.5H6.50005V42.125C6.50027 41.5077 7.02306 40.9824 7.66997 40.9824H12.7862C14.4281 40.9824 15.791 39.6528 15.7911 38.0176V6.98242C15.791 5.34718 14.4281 4.01758 12.7862 4.01758H7.66997C7.02306 4.01758 6.50027 3.49227 6.50005 2.875V2.5H25.6709Z" fill="white" stroke="white"/>
</mask>
<g mask="url(#mask11_3_972)">
<path d="M-44.1719 -14.5666L22.965 51.1076" stroke="#302C6D" stroke-width="2" stroke-miterlimit="10"/>
</g>
<mask id="mask12_3_972" style="mask-type:luminance" maskUnits="userSpaceOnUse" x="6" y="2" width="21" height="41">
<path d="M25.6709 2.5V2.90137C25.6706 2.90748 25.6646 3.01657 25.6133 3.16797C25.5619 3.31983 25.4702 3.4992 25.3086 3.6582L25.3038 3.66309L25.2979 3.66797C24.9804 3.99868 24.5845 4.01758 24.501 4.01758H19.3848C17.7124 4.01758 16.38 5.35066 16.3799 6.98242V37.5176H16.3526V38.0176C16.3527 39.6528 17.7155 40.9824 19.3575 40.9824H24.4737C25.1206 40.9824 25.6434 41.5077 25.6436 42.125V42.1406L25.6553 42.5H6.50005V42.125C6.50027 41.5077 7.02306 40.9824 7.66997 40.9824H12.7862C14.4281 40.9824 15.791 39.6528 15.7911 38.0176V6.98242C15.791 5.34718 14.4281 4.01758 12.7862 4.01758H7.66997C7.02306 4.01758 6.50027 3.49227 6.50005 2.875V2.5H25.6709Z" fill="white" stroke="white"/>
</mask>
<g mask="url(#mask12_3_972)">
<path d="M-42.6634 -14.2735L24.4735 51.4007" stroke="#302C6D" stroke-width="2" stroke-miterlimit="10"/>
</g>
<mask id="mask13_3_972" style="mask-type:luminance" maskUnits="userSpaceOnUse" x="6" y="2" width="21" height="41">
<path d="M25.6709 2.5V2.90137C25.6706 2.90748 25.6646 3.01657 25.6133 3.16797C25.5619 3.31983 25.4702 3.4992 25.3086 3.6582L25.3038 3.66309L25.2979 3.66797C24.9804 3.99868 24.5845 4.01758 24.501 4.01758H19.3848C17.7124 4.01758 16.38 5.35066 16.3799 6.98242V37.5176H16.3526V38.0176C16.3527 39.6528 17.7155 40.9824 19.3575 40.9824H24.4737C25.1206 40.9824 25.6434 41.5077 25.6436 42.125V42.1406L25.6553 42.5H6.50005V42.125C6.50027 41.5077 7.02306 40.9824 7.66997 40.9824H12.7862C14.4281 40.9824 15.791 39.6528 15.7911 38.0176V6.98242C15.791 5.34718 14.4281 4.01758 12.7862 4.01758H7.66997C7.02306 4.01758 6.50027 3.49227 6.50005 2.875V2.5H25.6709Z" fill="white" stroke="white"/>
</mask>
<g mask="url(#mask13_3_972)">
<path d="M-41.1815 -13.9804L25.9555 51.6938" stroke="#302C6D" stroke-width="2" stroke-miterlimit="10"/>
</g>
<mask id="mask14_3_972" style="mask-type:luminance" maskUnits="userSpaceOnUse" x="6" y="2" width="21" height="41">
<path d="M25.6709 2.5V2.90137C25.6706 2.90748 25.6646 3.01657 25.6133 3.16797C25.5619 3.31983 25.4702 3.4992 25.3086 3.6582L25.3038 3.66309L25.2979 3.66797C24.9804 3.99868 24.5845 4.01758 24.501 4.01758H19.3848C17.7124 4.01758 16.38 5.35066 16.3799 6.98242V37.5176H16.3526V38.0176C16.3527 39.6528 17.7155 40.9824 19.3575 40.9824H24.4737C25.1206 40.9824 25.6434 41.5077 25.6436 42.125V42.1406L25.6553 42.5H6.50005V42.125C6.50027 41.5077 7.02306 40.9824 7.66997 40.9824H12.7862C14.4281 40.9824 15.791 39.6528 15.7911 38.0176V6.98242C15.791 5.34718 14.4281 4.01758 12.7862 4.01758H7.66997C7.02306 4.01758 6.50027 3.49227 6.50005 2.875V2.5H25.6709Z" fill="white" stroke="white"/>
</mask>
<g mask="url(#mask14_3_972)">
<path d="M-39.7023 -13.6682L27.4616 52.0061" stroke="#302C6D" stroke-width="2" stroke-miterlimit="10"/>
</g>
<mask id="mask15_3_972" style="mask-type:luminance" maskUnits="userSpaceOnUse" x="6" y="2" width="21" height="41">
<path d="M25.6709 2.5V2.90137C25.6706 2.90748 25.6646 3.01657 25.6133 3.16797C25.5619 3.31983 25.4702 3.4992 25.3086 3.6582L25.3038 3.66309L25.2979 3.66797C24.9804 3.99868 24.5845 4.01758 24.501 4.01758H19.3848C17.7124 4.01758 16.38 5.35066 16.3799 6.98242V37.5176H16.3526V38.0176C16.3527 39.6528 17.7155 40.9824 19.3575 40.9824H24.4737C25.1206 40.9824 25.6434 41.5077 25.6436 42.125V42.1406L25.6553 42.5H6.50005V42.125C6.50027 41.5077 7.02306 40.9824 7.66997 40.9824H12.7862C14.4281 40.9824 15.791 39.6528 15.7911 38.0176V6.98242C15.791 5.34718 14.4281 4.01758 12.7862 4.01758H7.66997C7.02306 4.01758 6.50027 3.49227 6.50005 2.875V2.5H25.6709Z" fill="white" stroke="white"/>
</mask>
<g mask="url(#mask15_3_972)">
<path d="M-38.1946 -13.3751L28.9424 52.2991" stroke="#302C6D" stroke-width="2" stroke-miterlimit="10"/>
</g>
<mask id="mask16_3_972" style="mask-type:luminance" maskUnits="userSpaceOnUse" x="6" y="2" width="21" height="41">
<path d="M25.6709 2.5V2.90137C25.6706 2.90748 25.6646 3.01657 25.6133 3.16797C25.5619 3.31983 25.4702 3.4992 25.3086 3.6582L25.3038 3.66309L25.2979 3.66797C24.9804 3.99868 24.5845 4.01758 24.501 4.01758H19.3848C17.7124 4.01758 16.38 5.35066 16.3799 6.98242V37.5176H16.3526V38.0176C16.3527 39.6528 17.7155 40.9824 19.3575 40.9824H24.4737C25.1206 40.9824 25.6434 41.5077 25.6436 42.125V42.1406L25.6553 42.5H6.50005V42.125C6.50027 41.5077 7.02306 40.9824 7.66997 40.9824H12.7862C14.4281 40.9824 15.791 39.6528 15.7911 38.0176V6.98242C15.791 5.34718 14.4281 4.01758 12.7862 4.01758H7.66997C7.02306 4.01758 6.50027 3.49227 6.50005 2.875V2.5H25.6709Z" fill="white" stroke="white"/>
</mask>
<g mask="url(#mask16_3_972)">
<path d="M-36.7119 -13.0522L30.4519 52.622" stroke="#302C6D" stroke-width="2" stroke-miterlimit="10"/>
</g>
<mask id="mask17_3_972" style="mask-type:luminance" maskUnits="userSpaceOnUse" x="6" y="2" width="21" height="41">
<path d="M25.6709 2.5V2.90137C25.6706 2.90748 25.6646 3.01657 25.6133 3.16797C25.5619 3.31983 25.4702 3.4992 25.3086 3.6582L25.3038 3.66309L25.2979 3.66797C24.9804 3.99868 24.5845 4.01758 24.501 4.01758H19.3848C17.7124 4.01758 16.38 5.35066 16.3799 6.98242V37.5176H16.3526V38.0176C16.3527 39.6528 17.7155 40.9824 19.3575 40.9824H24.4737C25.1206 40.9824 25.6434 41.5077 25.6436 42.125V42.1406L25.6553 42.5H6.50005V42.125C6.50027 41.5077 7.02306 40.9824 7.66997 40.9824H12.7862C14.4281 40.9824 15.791 39.6528 15.7911 38.0176V6.98242C15.791 5.34718 14.4281 4.01758 12.7862 4.01758H7.66997C7.02306 4.01758 6.50027 3.49227 6.50005 2.875V2.5H25.6709Z" fill="white" stroke="white"/>
</mask>
<g mask="url(#mask17_3_972)">
<path d="M-35.2041 -12.7634L31.9329 52.9108" stroke="#302C6D" stroke-width="2" stroke-miterlimit="10"/>
</g>
<mask id="mask18_3_972" style="mask-type:luminance" maskUnits="userSpaceOnUse" x="6" y="2" width="21" height="41">
<path d="M25.6709 2.5V2.90137C25.6706 2.90748 25.6646 3.01657 25.6133 3.16797C25.5619 3.31983 25.4702 3.4992 25.3086 3.6582L25.3038 3.66309L25.2979 3.66797C24.9804 3.99868 24.5845 4.01758 24.501 4.01758H19.3848C17.7124 4.01758 16.38 5.35066 16.3799 6.98242V37.5176H16.3526V38.0176C16.3527 39.6528 17.7155 40.9824 19.3575 40.9824H24.4737C25.1206 40.9824 25.6434 41.5077 25.6436 42.125V42.1406L25.6553 42.5H6.50005V42.125C6.50027 41.5077 7.02306 40.9824 7.66997 40.9824H12.7862C14.4281 40.9824 15.791 39.6528 15.7911 38.0176V6.98242C15.791 5.34718 14.4281 4.01758 12.7862 4.01758H7.66997C7.02306 4.01758 6.50027 3.49227 6.50005 2.875V2.5H25.6709Z" fill="white" stroke="white"/>
</mask>
<g mask="url(#mask18_3_972)">
<path d="M-33.7228 -12.4703L33.4411 53.2304" stroke="#302C6D" stroke-width="2" stroke-miterlimit="10"/>
</g>
<mask id="mask19_3_972" style="mask-type:luminance" maskUnits="userSpaceOnUse" x="6" y="2" width="21" height="41">
<path d="M25.6709 2.5V2.90137C25.6706 2.90748 25.6646 3.01657 25.6133 3.16797C25.5619 3.31983 25.4702 3.4992 25.3086 3.6582L25.3038 3.66309L25.2979 3.66797C24.9804 3.99868 24.5845 4.01758 24.501 4.01758H19.3848C17.7124 4.01758 16.38 5.35066 16.3799 6.98242V37.5176H16.3526V38.0176C16.3527 39.6528 17.7155 40.9824 19.3575 40.9824H24.4737C25.1206 40.9824 25.6434 41.5077 25.6436 42.125V42.1406L25.6553 42.5H6.50005V42.125C6.50027 41.5077 7.02306 40.9824 7.66997 40.9824H12.7862C14.4281 40.9824 15.791 39.6528 15.7911 38.0176V6.98242C15.791 5.34718 14.4281 4.01758 12.7862 4.01758H7.66997C7.02306 4.01758 6.50027 3.49227 6.50005 2.875V2.5H25.6709Z" fill="white" stroke="white"/>
</mask>
<g mask="url(#mask19_3_972)">
<path d="M-32.2136 -12.1559L34.9234 53.5183" stroke="#302C6D" stroke-width="2" stroke-miterlimit="10"/>
</g>
<mask id="mask20_3_972" style="mask-type:luminance" maskUnits="userSpaceOnUse" x="6" y="2" width="21" height="41">
<path d="M25.6709 2.5V2.90137C25.6706 2.90748 25.6646 3.01657 25.6133 3.16797C25.5619 3.31983 25.4702 3.4992 25.3086 3.6582L25.3038 3.66309L25.2979 3.66797C24.9804 3.99868 24.5845 4.01758 24.501 4.01758H19.3848C17.7124 4.01758 16.38 5.35066 16.3799 6.98242V37.5176H16.3526V38.0176C16.3527 39.6528 17.7155 40.9824 19.3575 40.9824H24.4737C25.1206 40.9824 25.6434 41.5077 25.6436 42.125V42.1406L25.6553 42.5H6.50005V42.125C6.50027 41.5077 7.02306 40.9824 7.66997 40.9824H12.7862C14.4281 40.9824 15.791 39.6528 15.7911 38.0176V6.98242C15.791 5.34718 14.4281 4.01758 12.7862 4.01758H7.66997C7.02306 4.01758 6.50027 3.49227 6.50005 2.875V2.5H25.6709Z" fill="white" stroke="white"/>
</mask>
<g mask="url(#mask20_3_972)">
<path d="M-30.7338 -11.865L36.4301 53.8093" stroke="#302C6D" stroke-width="2" stroke-miterlimit="10"/>
</g>
<mask id="mask21_3_972" style="mask-type:luminance" maskUnits="userSpaceOnUse" x="6" y="2" width="21" height="41">
<path d="M25.6709 2.5V2.90137C25.6706 2.90748 25.6646 3.01657 25.6133 3.16797C25.5619 3.31983 25.4702 3.4992 25.3086 3.6582L25.3038 3.66309L25.2979 3.66797C24.9804 3.99868 24.5845 4.01758 24.501 4.01758H19.3848C17.7124 4.01758 16.38 5.35066 16.3799 6.98242V37.5176H16.3526V38.0176C16.3527 39.6528 17.7155 40.9824 19.3575 40.9824H24.4737C25.1206 40.9824 25.6434 41.5077 25.6436 42.125V42.1406L25.6553 42.5H6.50005V42.125C6.50027 41.5077 7.02306 40.9824 7.66997 40.9824H12.7862C14.4281 40.9824 15.791 39.6528 15.7911 38.0176V6.98242C15.791 5.34718 14.4281 4.01758 12.7862 4.01758H7.66997C7.02306 4.01758 6.50027 3.49227 6.50005 2.875V2.5H25.6709Z" fill="white" stroke="white"/>
</mask>
<g mask="url(#mask21_3_972)">
<path d="M-29.2253 -11.5421L37.9117 54.1321" stroke="#302C6D" stroke-width="2" stroke-miterlimit="10"/>
</g>
<mask id="mask22_3_972" style="mask-type:luminance" maskUnits="userSpaceOnUse" x="6" y="2" width="21" height="41">
<path d="M25.6709 2.5V2.90137C25.6706 2.90748 25.6646 3.01657 25.6133 3.16797C25.5619 3.31983 25.4702 3.4992 25.3086 3.6582L25.3038 3.66309L25.2979 3.66797C24.9804 3.99868 24.5845 4.01758 24.501 4.01758H19.3848C17.7124 4.01758 16.38 5.35066 16.3799 6.98242V37.5176H16.3526V38.0176C16.3527 39.6528 17.7155 40.9824 19.3575 40.9824H24.4737C25.1206 40.9824 25.6434 41.5077 25.6436 42.125V42.1406L25.6553 42.5H6.50005V42.125C6.50027 41.5077 7.02306 40.9824 7.66997 40.9824H12.7862C14.4281 40.9824 15.791 39.6528 15.7911 38.0176V6.98242C15.791 5.34718 14.4281 4.01758 12.7862 4.01758H7.66997C7.02306 4.01758 6.50027 3.49227 6.50005 2.875V2.5H25.6709Z" fill="white" stroke="white"/>
</mask>
<g mask="url(#mask22_3_972)">
<path d="M-27.7433 -11.2511L39.4206 54.4231" stroke="#302C6D" stroke-width="2" stroke-miterlimit="10"/>
</g>
<mask id="mask23_3_972" style="mask-type:luminance" maskUnits="userSpaceOnUse" x="6" y="2" width="21" height="41">
<path d="M25.6709 2.5V2.90137C25.6706 2.90748 25.6646 3.01657 25.6133 3.16797C25.5619 3.31983 25.4702 3.4992 25.3086 3.6582L25.3038 3.66309L25.2979 3.66797C24.9804 3.99868 24.5845 4.01758 24.501 4.01758H19.3848C17.7124 4.01758 16.38 5.35066 16.3799 6.98242V37.5176H16.3526V38.0176C16.3527 39.6528 17.7155 40.9824 19.3575 40.9824H24.4737C25.1206 40.9824 25.6434 41.5077 25.6436 42.125V42.1406L25.6553 42.5H6.50005V42.125C6.50027 41.5077 7.02306 40.9824 7.66997 40.9824H12.7862C14.4281 40.9824 15.791 39.6528 15.7911 38.0176V6.98242C15.791 5.34718 14.4281 4.01758 12.7862 4.01758H7.66997C7.02306 4.01758 6.50027 3.49227 6.50005 2.875V2.5H25.6709Z" fill="white" stroke="white"/>
</mask>
<g mask="url(#mask23_3_972)">
<path d="M-26.237 -10.9347L40.8999 54.7396" stroke="#302C6D" stroke-width="2" stroke-miterlimit="10"/>
</g>
<mask id="mask24_3_972" style="mask-type:luminance" maskUnits="userSpaceOnUse" x="6" y="2" width="21" height="41">
<path d="M25.6709 2.5V2.90137C25.6706 2.90748 25.6646 3.01657 25.6133 3.16797C25.5619 3.31983 25.4702 3.4992 25.3086 3.6582L25.3038 3.66309L25.2979 3.66797C24.9804 3.99868 24.5845 4.01758 24.501 4.01758H19.3848C17.7124 4.01758 16.38 5.35066 16.3799 6.98242V37.5176H16.3526V38.0176C16.3527 39.6528 17.7155 40.9824 19.3575 40.9824H24.4737C25.1206 40.9824 25.6434 41.5077 25.6436 42.125V42.1406L25.6553 42.5H6.50005V42.125C6.50027 41.5077 7.02306 40.9824 7.66997 40.9824H12.7862C14.4281 40.9824 15.791 39.6528 15.7911 38.0176V6.98242C15.791 5.34718 14.4281 4.01758 12.7862 4.01758H7.66997C7.02306 4.01758 6.50027 3.49227 6.50005 2.875V2.5H25.6709Z" fill="white" stroke="white"/>
</mask>
<g mask="url(#mask24_3_972)">
<path d="M-24.7544 -10.6437L42.4095 55.0305" stroke="#302C6D" stroke-width="2" stroke-miterlimit="10"/>
</g>
<mask id="mask25_3_972" style="mask-type:luminance" maskUnits="userSpaceOnUse" x="6" y="2" width="21" height="41">
<path d="M25.6709 2.5V2.90137C25.6706 2.90748 25.6646 3.01657 25.6133 3.16797C25.5619 3.31983 25.4702 3.4992 25.3086 3.6582L25.3038 3.66309L25.2979 3.66797C24.9804 3.99868 24.5845 4.01758 24.501 4.01758H19.3848C17.7124 4.01758 16.38 5.35066 16.3799 6.98242V37.5176H16.3526V38.0176C16.3527 39.6528 17.7155 40.9824 19.3575 40.9824H24.4737C25.1206 40.9824 25.6434 41.5077 25.6436 42.125V42.1406L25.6553 42.5H6.50005V42.125C6.50027 41.5077 7.02306 40.9824 7.66997 40.9824H12.7862C14.4281 40.9824 15.791 39.6528 15.7911 38.0176V6.98242C15.791 5.34718 14.4281 4.01758 12.7862 4.01758H7.66997C7.02306 4.01758 6.50027 3.49227 6.50005 2.875V2.5H25.6709Z" fill="white" stroke="white"/>
</mask>
<g mask="url(#mask25_3_972)">
<path d="M-23.2472 -10.3527L43.8897 55.3215" stroke="#302C6D" stroke-width="2" stroke-miterlimit="10"/>
</g>
<mask id="mask26_3_972" style="mask-type:luminance" maskUnits="userSpaceOnUse" x="6" y="2" width="21" height="41">
<path d="M25.6709 2.5V2.90137C25.6706 2.90748 25.6646 3.01657 25.6133 3.16797C25.5619 3.31983 25.4702 3.4992 25.3086 3.6582L25.3038 3.66309L25.2979 3.66797C24.9804 3.99868 24.5845 4.01758 24.501 4.01758H19.3848C17.7124 4.01758 16.38 5.35066 16.3799 6.98242V37.5176H16.3526V38.0176C16.3527 39.6528 17.7155 40.9824 19.3575 40.9824H24.4737C25.1206 40.9824 25.6434 41.5077 25.6436 42.125V42.1406L25.6553 42.5H6.50005V42.125C6.50027 41.5077 7.02306 40.9824 7.66997 40.9824H12.7862C14.4281 40.9824 15.791 39.6528 15.7911 38.0176V6.98242C15.791 5.34718 14.4281 4.01758 12.7862 4.01758H7.66997C7.02306 4.01758 6.50027 3.49227 6.50005 2.875V2.5H25.6709Z" fill="white" stroke="white"/>
</mask>
<g mask="url(#mask26_3_972)">
<path d="M-21.7661 -10.0278L45.3709 55.6464" stroke="#302C6D" stroke-width="2" stroke-miterlimit="10"/>
</g>
<mask id="mask27_3_972" style="mask-type:luminance" maskUnits="userSpaceOnUse" x="6" y="2" width="21" height="41">
<path d="M25.6709 2.5V2.90137C25.6706 2.90748 25.6646 3.01657 25.6133 3.16797C25.5619 3.31983 25.4702 3.4992 25.3086 3.6582L25.3038 3.66309L25.2979 3.66797C24.9804 3.99868 24.5845 4.01758 24.501 4.01758H19.3848C17.7124 4.01758 16.38 5.35066 16.3799 6.98242V37.5176H16.3526V38.0176C16.3527 39.6528 17.7155 40.9824 19.3575 40.9824H24.4737C25.1206 40.9824 25.6434 41.5077 25.6436 42.125V42.1406L25.6553 42.5H6.50005V42.125C6.50027 41.5077 7.02306 40.9824 7.66997 40.9824H12.7862C14.4281 40.9824 15.791 39.6528 15.7911 38.0176V6.98242C15.791 5.34718 14.4281 4.01758 12.7862 4.01758H7.66997C7.02306 4.01758 6.50027 3.49227 6.50005 2.875V2.5H25.6709Z" fill="white" stroke="white"/>
</mask>
<g mask="url(#mask27_3_972)">
<path d="M-20.2849 -9.73889L46.879 55.9353" stroke="#302C6D" stroke-width="2" stroke-miterlimit="10"/>
</g>
<mask id="mask28_3_972" style="mask-type:luminance" maskUnits="userSpaceOnUse" x="6" y="2" width="21" height="41">
<path d="M25.6709 2.5V2.90137C25.6706 2.90748 25.6646 3.01657 25.6133 3.16797C25.5619 3.31983 25.4702 3.4992 25.3086 3.6582L25.3038 3.66309L25.2979 3.66797C24.9804 3.99868 24.5845 4.01758 24.501 4.01758H19.3848C17.7124 4.01758 16.38 5.35066 16.3799 6.98242V37.5176H16.3526V38.0176C16.3527 39.6528 17.7155 40.9824 19.3575 40.9824H24.4737C25.1206 40.9824 25.6434 41.5077 25.6436 42.125V42.1406L25.6553 42.5H6.50005V42.125C6.50027 41.5077 7.02306 40.9824 7.66997 40.9824H12.7862C14.4281 40.9824 15.791 39.6528 15.7911 38.0176V6.98242C15.791 5.34718 14.4281 4.01758 12.7862 4.01758H7.66997C7.02306 4.01758 6.50027 3.49227 6.50005 2.875V2.5H25.6709Z" fill="white" stroke="white"/>
</mask>
<g mask="url(#mask28_3_972)">
<path d="M-18.7756 -9.42245L48.3614 56.2518" stroke="#302C6D" stroke-width="2" stroke-miterlimit="10"/>
</g>
<mask id="mask29_3_972" style="mask-type:luminance" maskUnits="userSpaceOnUse" x="6" y="2" width="21" height="41">
<path d="M25.6709 2.5V2.90137C25.6706 2.90748 25.6646 3.01657 25.6133 3.16797C25.5619 3.31983 25.4702 3.4992 25.3086 3.6582L25.3038 3.66309L25.2979 3.66797C24.9804 3.99868 24.5845 4.01758 24.501 4.01758H19.3848C17.7124 4.01758 16.38 5.35066 16.3799 6.98242V37.5176H16.3526V38.0176C16.3527 39.6528 17.7155 40.9824 19.3575 40.9824H24.4737C25.1206 40.9824 25.6434 41.5077 25.6436 42.125V42.1406L25.6553 42.5H6.50005V42.125C6.50027 41.5077 7.02306 40.9824 7.66997 40.9824H12.7862C14.4281 40.9824 15.791 39.6528 15.7911 38.0176V6.98242C15.791 5.34718 14.4281 4.01758 12.7862 4.01758H7.66997C7.02306 4.01758 6.50027 3.49227 6.50005 2.875V2.5H25.6709Z" fill="white" stroke="white"/>
</mask>
<g mask="url(#mask29_3_972)">
<path d="M-17.2964 -9.13147L49.8675 56.5427" stroke="#302C6D" stroke-width="2" stroke-miterlimit="10"/>
</g>
<mask id="mask30_3_972" style="mask-type:luminance" maskUnits="userSpaceOnUse" x="6" y="2" width="21" height="41">
<path d="M25.6709 2.5V2.90137C25.6706 2.90748 25.6646 3.01657 25.6133 3.16797C25.5619 3.31983 25.4702 3.4992 25.3086 3.6582L25.3038 3.66309L25.2979 3.66797C24.9804 3.99868 24.5845 4.01758 24.501 4.01758H19.3848C17.7124 4.01758 16.38 5.35066 16.3799 6.98242V37.5176H16.3526V38.0176C16.3527 39.6528 17.7155 40.9824 19.3575 40.9824H24.4737C25.1206 40.9824 25.6434 41.5077 25.6436 42.125V42.1406L25.6553 42.5H6.50005V42.125C6.50027 41.5077 7.02306 40.9824 7.66997 40.9824H12.7862C14.4281 40.9824 15.791 39.6528 15.7911 38.0176V6.98242C15.791 5.34718 14.4281 4.01758 12.7862 4.01758H7.66997C7.02306 4.01758 6.50027 3.49227 6.50005 2.875V2.5H25.6709Z" fill="white" stroke="white"/>
</mask>
<g mask="url(#mask30_3_972)">
<path d="M-15.7887 -8.84048L51.3483 56.8602" stroke="#302C6D" stroke-width="2" stroke-miterlimit="10"/>
</g>
<mask id="mask31_3_972" style="mask-type:luminance" maskUnits="userSpaceOnUse" x="6" y="2" width="21" height="41">
<path d="M25.6709 2.5V2.90137C25.6706 2.90748 25.6646 3.01657 25.6133 3.16797C25.5619 3.31983 25.4702 3.4992 25.3086 3.6582L25.3038 3.66309L25.2979 3.66797C24.9804 3.99868 24.5845 4.01758 24.501 4.01758H19.3848C17.7124 4.01758 16.38 5.35066 16.3799 6.98242V37.5176H16.3526V38.0176C16.3527 39.6528 17.7155 40.9824 19.3575 40.9824H24.4737C25.1206 40.9824 25.6434 41.5077 25.6436 42.125V42.1406L25.6553 42.5H6.50005V42.125C6.50027 41.5077 7.02306 40.9824 7.66997 40.9824H12.7862C14.4281 40.9824 15.791 39.6528 15.7911 38.0176V6.98242C15.791 5.34718 14.4281 4.01758 12.7862 4.01758H7.66997C7.02306 4.01758 6.50027 3.49227 6.50005 2.875V2.5H25.6709Z" fill="white" stroke="white"/>
</mask>
<g mask="url(#mask31_3_972)">
<path d="M-14.306 -8.51764L52.8578 57.1566" stroke="#302C6D" stroke-width="2" stroke-miterlimit="10"/>
</g>
<mask id="mask32_3_972" style="mask-type:luminance" maskUnits="userSpaceOnUse" x="6" y="2" width="21" height="41">
<path d="M25.6709 2.5V2.90137C25.6706 2.90748 25.6646 3.01657 25.6133 3.16797C25.5619 3.31983 25.4702 3.4992 25.3086 3.6582L25.3038 3.66309L25.2979 3.66797C24.9804 3.99868 24.5845 4.01758 24.501 4.01758H19.3848C17.7124 4.01758 16.38 5.35066 16.3799 6.98242V37.5176H16.3526V38.0176C16.3527 39.6528 17.7155 40.9824 19.3575 40.9824H24.4737C25.1206 40.9824 25.6434 41.5077 25.6436 42.125V42.1406L25.6553 42.5H6.50005V42.125C6.50027 41.5077 7.02306 40.9824 7.66997 40.9824H12.7862C14.4281 40.9824 15.791 39.6528 15.7911 38.0176V6.98242C15.791 5.34718 14.4281 4.01758 12.7862 4.01758H7.66997C7.02306 4.01758 6.50027 3.49227 6.50005 2.875V2.5H25.6709Z" fill="white" stroke="white"/>
</mask>
<g mask="url(#mask32_3_972)">
<path d="M-12.7982 -8.22668L54.3388 57.4475" stroke="#302C6D" stroke-width="2" stroke-miterlimit="10"/>
</g>
<mask id="mask33_3_972" style="mask-type:luminance" maskUnits="userSpaceOnUse" x="6" y="2" width="21" height="41">
<path d="M25.6709 2.5V2.90137C25.6706 2.90748 25.6646 3.01657 25.6133 3.16797C25.5619 3.31983 25.4702 3.4992 25.3086 3.6582L25.3038 3.66309L25.2979 3.66797C24.9804 3.99868 24.5845 4.01758 24.501 4.01758H19.3848C17.7124 4.01758 16.38 5.35066 16.3799 6.98242V37.5176H16.3526V38.0176C16.3527 39.6528 17.7155 40.9824 19.3575 40.9824H24.4737C25.1206 40.9824 25.6434 41.5077 25.6436 42.125V42.1406L25.6553 42.5H6.50005V42.125C6.50027 41.5077 7.02306 40.9824 7.66997 40.9824H12.7862C14.4281 40.9824 15.791 39.6528 15.7911 38.0176V6.98242C15.791 5.34718 14.4281 4.01758 12.7862 4.01758H7.66997C7.02306 4.01758 6.50027 3.49227 6.50005 2.875V2.5H25.6709Z" fill="white" stroke="white"/>
</mask>
<g mask="url(#mask33_3_972)">
<path d="M-11.317 -7.91232L55.8469 57.7619" stroke="#302C6D" stroke-width="2" stroke-miterlimit="10"/>
</g>
<mask id="mask34_3_972" style="mask-type:luminance" maskUnits="userSpaceOnUse" x="6" y="2" width="21" height="41">
<path d="M25.6709 2.5V2.90137C25.6706 2.90748 25.6646 3.01657 25.6133 3.16797C25.5619 3.31983 25.4702 3.4992 25.3086 3.6582L25.3038 3.66309L25.2979 3.66797C24.9804 3.99868 24.5845 4.01758 24.501 4.01758H19.3848C17.7124 4.01758 16.38 5.35066 16.3799 6.98242V37.5176H16.3526V38.0176C16.3527 39.6528 17.7155 40.9824 19.3575 40.9824H24.4737C25.1206 40.9824 25.6434 41.5077 25.6436 42.125V42.1406L25.6553 42.5H6.50005V42.125C6.50027 41.5077 7.02306 40.9824 7.66997 40.9824H12.7862C14.4281 40.9824 15.791 39.6528 15.7911 38.0176V6.98242C15.791 5.34718 14.4281 4.01758 12.7862 4.01758H7.66997C7.02306 4.01758 6.50027 3.49227 6.50005 2.875V2.5H25.6709Z" fill="white" stroke="white"/>
</mask>
<g mask="url(#mask34_3_972)">
<path d="M-9.80997 -7.61923L57.327 58.055" stroke="#302C6D" stroke-width="2" stroke-miterlimit="10"/>
</g>
<mask id="mask35_3_972" style="mask-type:luminance" maskUnits="userSpaceOnUse" x="6" y="2" width="21" height="41">
<path d="M25.6709 2.5V2.90137C25.6706 2.90748 25.6646 3.01657 25.6133 3.16797C25.5619 3.31983 25.4702 3.4992 25.3086 3.6582L25.3038 3.66309L25.2979 3.66797C24.9804 3.99868 24.5845 4.01758 24.501 4.01758H19.3848C17.7124 4.01758 16.38 5.35066 16.3799 6.98242V37.5176H16.3526V38.0176C16.3527 39.6528 17.7155 40.9824 19.3575 40.9824H24.4737C25.1206 40.9824 25.6434 41.5077 25.6436 42.125V42.1406L25.6553 42.5H6.50005V42.125C6.50027 41.5077 7.02306 40.9824 7.66997 40.9824H12.7862C14.4281 40.9824 15.791 39.6528 15.7911 38.0176V6.98242C15.791 5.34718 14.4281 4.01758 12.7862 4.01758H7.66997C7.02306 4.01758 6.50027 3.49227 6.50005 2.875V2.5H25.6709Z" fill="white" stroke="white"/>
</mask>
<g mask="url(#mask35_3_972)">
<path d="M-8.32735 -7.32825L58.8365 58.3724" stroke="#302C6D" stroke-width="2" stroke-miterlimit="10"/>
</g>
<mask id="mask36_3_972" style="mask-type:luminance" maskUnits="userSpaceOnUse" x="6" y="2" width="21" height="41">
<path d="M25.6709 2.5V2.90137C25.6706 2.90748 25.6646 3.01657 25.6133 3.16797C25.5619 3.31983 25.4702 3.4992 25.3086 3.6582L25.3038 3.66309L25.2979 3.66797C24.9804 3.99868 24.5845 4.01758 24.501 4.01758H19.3848C17.7124 4.01758 16.38 5.35066 16.3799 6.98242V37.5176H16.3526V38.0176C16.3527 39.6528 17.7155 40.9824 19.3575 40.9824H24.4737C25.1206 40.9824 25.6434 41.5077 25.6436 42.125V42.1406L25.6553 42.5H6.50005V42.125C6.50027 41.5077 7.02306 40.9824 7.66997 40.9824H12.7862C14.4281 40.9824 15.791 39.6528 15.7911 38.0176V6.98242C15.791 5.34718 14.4281 4.01758 12.7862 4.01758H7.66997C7.02306 4.01758 6.50027 3.49227 6.50005 2.875V2.5H25.6709Z" fill="white" stroke="white"/>
</mask>
<g mask="url(#mask36_3_972)">
<path d="M-6.81883 -7.00967L60.3181 58.6645" stroke="#302C6D" stroke-width="2" stroke-miterlimit="10"/>
</g>
<mask id="mask37_3_972" style="mask-type:luminance" maskUnits="userSpaceOnUse" x="6" y="2" width="21" height="41">
<path d="M25.6709 2.5V2.90137C25.6706 2.90748 25.6646 3.01657 25.6133 3.16797C25.5619 3.31983 25.4702 3.4992 25.3086 3.6582L25.3038 3.66309L25.2979 3.66797C24.9804 3.99868 24.5845 4.01758 24.501 4.01758H19.3848C17.7124 4.01758 16.38 5.35066 16.3799 6.98242V37.5176H16.3526V38.0176C16.3527 39.6528 17.7155 40.9824 19.3575 40.9824H24.4737C25.1206 40.9824 25.6434 41.5077 25.6436 42.125V42.1406L25.6553 42.5H6.50005V42.125C6.50027 41.5077 7.02306 40.9824 7.66997 40.9824H12.7862C14.4281 40.9824 15.791 39.6528 15.7911 38.0176V6.98242C15.791 5.34718 14.4281 4.01758 12.7862 4.01758H7.66997C7.02306 4.01758 6.50027 3.49227 6.50005 2.875V2.5H25.6709Z" fill="white" stroke="white"/>
</mask>
<g mask="url(#mask37_3_972)">
<path d="M-5.33819 -6.72083L61.7988 58.9534" stroke="#302C6D" stroke-width="2" stroke-miterlimit="10"/>
</g>
<mask id="mask38_3_972" style="mask-type:luminance" maskUnits="userSpaceOnUse" x="6" y="2" width="21" height="41">
<path d="M25.6709 2.5V2.90137C25.6706 2.90748 25.6646 3.01657 25.6133 3.16797C25.5619 3.31983 25.4702 3.4992 25.3086 3.6582L25.3038 3.66309L25.2979 3.66797C24.9804 3.99868 24.5845 4.01758 24.501 4.01758H19.3848C17.7124 4.01758 16.38 5.35066 16.3799 6.98242V37.5176H16.3526V38.0176C16.3527 39.6528 17.7155 40.9824 19.3575 40.9824H24.4737C25.1206 40.9824 25.6434 41.5077 25.6436 42.125V42.1406L25.6553 42.5H6.50005V42.125C6.50027 41.5077 7.02306 40.9824 7.66997 40.9824H12.7862C14.4281 40.9824 15.791 39.6528 15.7911 38.0176V6.98242C15.791 5.34718 14.4281 4.01758 12.7862 4.01758H7.66997C7.02306 4.01758 6.50027 3.49227 6.50005 2.875V2.5H25.6709Z" fill="white" stroke="white"/>
</mask>
<g mask="url(#mask38_3_972)">
<path d="M-3.82768 -6.40012L63.3093 59.2741" stroke="#302C6D" stroke-width="2" stroke-miterlimit="10"/>
</g>
<mask id="mask39_3_972" style="mask-type:luminance" maskUnits="userSpaceOnUse" x="6" y="2" width="21" height="41">
<path d="M25.6709 2.5V2.90137C25.6706 2.90748 25.6646 3.01657 25.6133 3.16797C25.5619 3.31983 25.4702 3.4992 25.3086 3.6582L25.3038 3.66309L25.2979 3.66797C24.9804 3.99868 24.5845 4.01758 24.501 4.01758H19.3848C17.7124 4.01758 16.38 5.35066 16.3799 6.98242V37.5176H16.3526V38.0176C16.3527 39.6528 17.7155 40.9824 19.3575 40.9824H24.4737C25.1206 40.9824 25.6434 41.5077 25.6436 42.125V42.1406L25.6553 42.5H6.50005V42.125C6.50027 41.5077 7.02306 40.9824 7.66997 40.9824H12.7862C14.4281 40.9824 15.791 39.6528 15.7911 38.0176V6.98242C15.791 5.34718 14.4281 4.01758 12.7862 4.01758H7.66997C7.02306 4.01758 6.50027 3.49227 6.50005 2.875V2.5H25.6709Z" fill="white" stroke="white"/>
</mask>
<g mask="url(#mask39_3_972)">
<path d="M-2.34785 -6.10913L64.816 59.5651" stroke="#302C6D" stroke-width="2" stroke-miterlimit="10"/>
</g>
<mask id="mask40_3_972" style="mask-type:luminance" maskUnits="userSpaceOnUse" x="6" y="2" width="21" height="41">
<path d="M25.6709 2.5V2.90137C25.6706 2.90748 25.6646 3.01657 25.6133 3.16797C25.5619 3.31983 25.4702 3.4992 25.3086 3.6582L25.3038 3.66309L25.2979 3.66797C24.9804 3.99868 24.5845 4.01758 24.501 4.01758H19.3848C17.7124 4.01758 16.38 5.35066 16.3799 6.98242V37.5176H16.3526V38.0176C16.3527 39.6528 17.7155 40.9824 19.3575 40.9824H24.4737C25.1206 40.9824 25.6434 41.5077 25.6436 42.125V42.1406L25.6553 42.5H6.50005V42.125C6.50027 41.5077 7.02306 40.9824 7.66997 40.9824H12.7862C14.4281 40.9824 15.791 39.6528 15.7911 38.0176V6.98242C15.791 5.34718 14.4281 4.01758 12.7862 4.01758H7.66997C7.02306 4.01758 6.50027 3.49227 6.50005 2.875V2.5H25.6709Z" fill="white" stroke="white"/>
</mask>
<g mask="url(#mask40_3_972)">
<path d="M-0.870262 -5.81815L66.2936 59.856" stroke="#302C6D" stroke-width="2" stroke-miterlimit="10"/>
</g>
<mask id="mask41_3_972" style="mask-type:luminance" maskUnits="userSpaceOnUse" x="6" y="2" width="21" height="41">
<path d="M25.6709 2.5V2.90137C25.6706 2.90748 25.6646 3.01657 25.6133 3.16797C25.5619 3.31983 25.4702 3.4992 25.3086 3.6582L25.3038 3.66309L25.2979 3.66797C24.9804 3.99868 24.5845 4.01758 24.501 4.01758H19.3848C17.7124 4.01758 16.38 5.35066 16.3799 6.98242V37.5176H16.3526V38.0176C16.3527 39.6528 17.7155 40.9824 19.3575 40.9824H24.4737C25.1206 40.9824 25.6434 41.5077 25.6436 42.125V42.1406L25.6553 42.5H6.50005V42.125C6.50027 41.5077 7.02306 40.9824 7.66997 40.9824H12.7862C14.4281 40.9824 15.791 39.6528 15.7911 38.0176V6.98242C15.791 5.34718 14.4281 4.01758 12.7862 4.01758H7.66997C7.02306 4.01758 6.50027 3.49227 6.50005 2.875V2.5H25.6709Z" fill="white" stroke="white"/>
</mask>
<g mask="url(#mask41_3_972)">
<path d="M0.641838 -5.50168L67.7788 60.1725" stroke="#302C6D" stroke-width="2" stroke-miterlimit="10"/>
</g>
<mask id="mask42_3_972" style="mask-type:luminance" maskUnits="userSpaceOnUse" x="6" y="2" width="21" height="41">
<path d="M25.6709 2.5V2.90137C25.6706 2.90748 25.6646 3.01657 25.6133 3.16797C25.5619 3.31983 25.4702 3.4992 25.3086 3.6582L25.3038 3.66309L25.2979 3.66797C24.9804 3.99868 24.5845 4.01758 24.501 4.01758H19.3848C17.7124 4.01758 16.38 5.35066 16.3799 6.98242V37.5176H16.3526V38.0176C16.3527 39.6528 17.7155 40.9824 19.3575 40.9824H24.4737C25.1206 40.9824 25.6434 41.5077 25.6436 42.125V42.1406L25.6553 42.5H6.50005V42.125C6.50027 41.5077 7.02306 40.9824 7.66997 40.9824H12.7862C14.4281 40.9824 15.791 39.6528 15.7911 38.0176V6.98242C15.791 5.34718 14.4281 4.01758 12.7862 4.01758H7.66997C7.02306 4.01758 6.50027 3.49227 6.50005 2.875V2.5H25.6709Z" fill="white" stroke="white"/>
</mask>
<g mask="url(#mask42_3_972)">
<path d="M-29.1155 -35.7102L38.0484 29.964" stroke="#302C6D" stroke-width="2" stroke-miterlimit="10"/>
</g>
<mask id="mask43_3_972" style="mask-type:luminance" maskUnits="userSpaceOnUse" x="6" y="2" width="21" height="41">
<path d="M25.6709 2.5V2.90137C25.6706 2.90748 25.6646 3.01657 25.6133 3.16797C25.5619 3.31983 25.4702 3.4992 25.3086 3.6582L25.3038 3.66309L25.2979 3.66797C24.9804 3.99868 24.5845 4.01758 24.501 4.01758H19.3848C17.7124 4.01758 16.38 5.35066 16.3799 6.98242V37.5176H16.3526V38.0176C16.3527 39.6528 17.7155 40.9824 19.3575 40.9824H24.4737C25.1206 40.9824 25.6434 41.5077 25.6436 42.125V42.1406L25.6553 42.5H6.50005V42.125C6.50027 41.5077 7.02306 40.9824 7.66997 40.9824H12.7862C14.4281 40.9824 15.791 39.6528 15.7911 38.0176V6.98242C15.791 5.34718 14.4281 4.01758 12.7862 4.01758H7.66997C7.02306 4.01758 6.50027 3.49227 6.50005 2.875V2.5H25.6709Z" fill="white" stroke="white"/>
</mask>
<g mask="url(#mask43_3_972)">
<path d="M-27.6379 -35.4214L39.526 30.2528" stroke="#302C6D" stroke-width="2" stroke-miterlimit="10"/>
</g>
<mask id="mask44_3_972" style="mask-type:luminance" maskUnits="userSpaceOnUse" x="6" y="2" width="21" height="41">
<path d="M25.6709 2.5V2.90137C25.6706 2.90748 25.6646 3.01657 25.6133 3.16797C25.5619 3.31983 25.4702 3.4992 25.3086 3.6582L25.3038 3.66309L25.2979 3.66797C24.9804 3.99868 24.5845 4.01758 24.501 4.01758H19.3848C17.7124 4.01758 16.38 5.35066 16.3799 6.98242V37.5176H16.3526V38.0176C16.3527 39.6528 17.7155 40.9824 19.3575 40.9824H24.4737C25.1206 40.9824 25.6434 41.5077 25.6436 42.125V42.1406L25.6553 42.5H6.50005V42.125C6.50027 41.5077 7.02306 40.9824 7.66997 40.9824H12.7862C14.4281 40.9824 15.791 39.6528 15.7911 38.0176V6.98242C15.791 5.34718 14.4281 4.01758 12.7862 4.01758H7.66997C7.02306 4.01758 6.50027 3.49227 6.50005 2.875V2.5H25.6709Z" fill="white" stroke="white"/>
</mask>
<g mask="url(#mask44_3_972)">
<path d="M-26.1295 -35.1049L41.0075 30.5693" stroke="#302C6D" stroke-width="2" stroke-miterlimit="10"/>
</g>
<mask id="mask45_3_972" style="mask-type:luminance" maskUnits="userSpaceOnUse" x="6" y="2" width="21" height="41">
<path d="M25.6709 2.5V2.90137C25.6706 2.90748 25.6646 3.01657 25.6133 3.16797C25.5619 3.31983 25.4702 3.4992 25.3086 3.6582L25.3038 3.66309L25.2979 3.66797C24.9804 3.99868 24.5845 4.01758 24.501 4.01758H19.3848C17.7124 4.01758 16.38 5.35066 16.3799 6.98242V37.5176H16.3526V38.0176C16.3527 39.6528 17.7155 40.9824 19.3575 40.9824H24.4737C25.1206 40.9824 25.6434 41.5077 25.6436 42.125V42.1406L25.6553 42.5H6.50005V42.125C6.50027 41.5077 7.02306 40.9824 7.66997 40.9824H12.7862C14.4281 40.9824 15.791 39.6528 15.7911 38.0176V6.98242C15.791 5.34718 14.4281 4.01758 12.7862 4.01758H7.66997C7.02306 4.01758 6.50027 3.49227 6.50005 2.875V2.5H25.6709Z" fill="white" stroke="white"/>
</mask>
<g mask="url(#mask45_3_972)">
<path d="M-24.646 -34.8118L42.5179 30.8624" stroke="#302C6D" stroke-width="2" stroke-miterlimit="10"/>
</g>
<mask id="mask46_3_972" style="mask-type:luminance" maskUnits="userSpaceOnUse" x="6" y="2" width="21" height="41">
<path d="M25.6709 2.5V2.90137C25.6706 2.90748 25.6646 3.01657 25.6133 3.16797C25.5619 3.31983 25.4702 3.4992 25.3086 3.6582L25.3038 3.66309L25.2979 3.66797C24.9804 3.99868 24.5845 4.01758 24.501 4.01758H19.3848C17.7124 4.01758 16.38 5.35066 16.3799 6.98242V37.5176H16.3526V38.0176C16.3527 39.6528 17.7155 40.9824 19.3575 40.9824H24.4737C25.1206 40.9824 25.6434 41.5077 25.6436 42.125V42.1406L25.6553 42.5H6.50005V42.125C6.50027 41.5077 7.02306 40.9824 7.66997 40.9824H12.7862C14.4281 40.9824 15.791 39.6528 15.7911 38.0176V6.98242C15.791 5.34718 14.4281 4.01758 12.7862 4.01758H7.66997C7.02306 4.01758 6.50027 3.49227 6.50005 2.875V2.5H25.6709Z" fill="white" stroke="white"/>
</mask>
<g mask="url(#mask46_3_972)">
<path d="M-23.139 -34.5165L43.9979 31.1842" stroke="#302C6D" stroke-width="2" stroke-miterlimit="10"/>
</g>
<mask id="mask47_3_972" style="mask-type:luminance" maskUnits="userSpaceOnUse" x="6" y="2" width="21" height="41">
<path d="M25.6709 2.5V2.90137C25.6706 2.90748 25.6646 3.01657 25.6133 3.16797C25.5619 3.31983 25.4702 3.4992 25.3086 3.6582L25.3038 3.66309L25.2979 3.66797C24.9804 3.99868 24.5845 4.01758 24.501 4.01758H19.3848C17.7124 4.01758 16.38 5.35066 16.3799 6.98242V37.5176H16.3526V38.0176C16.3527 39.6528 17.7155 40.9824 19.3575 40.9824H24.4737C25.1206 40.9824 25.6434 41.5077 25.6436 42.125V42.1406L25.6553 42.5H6.50005V42.125C6.50027 41.5077 7.02306 40.9824 7.66997 40.9824H12.7862C14.4281 40.9824 15.791 39.6528 15.7911 38.0176V6.98242C15.791 5.34718 14.4281 4.01758 12.7862 4.01758H7.66997C7.02306 4.01758 6.50027 3.49227 6.50005 2.875V2.5H25.6709Z" fill="white" stroke="white"/>
</mask>
<g mask="url(#mask47_3_972)">
<path d="M-21.6577 -34.2001L45.5062 31.4741" stroke="#302C6D" stroke-width="2" stroke-miterlimit="10"/>
</g>
<mask id="mask48_3_972" style="mask-type:luminance" maskUnits="userSpaceOnUse" x="6" y="2" width="21" height="41">
<path d="M25.6709 2.5V2.90137C25.6706 2.90748 25.6646 3.01657 25.6133 3.16797C25.5619 3.31983 25.4702 3.4992 25.3086 3.6582L25.3038 3.66309L25.2979 3.66797C24.9804 3.99868 24.5845 4.01758 24.501 4.01758H19.3848C17.7124 4.01758 16.38 5.35066 16.3799 6.98242V37.5176H16.3526V38.0176C16.3527 39.6528 17.7155 40.9824 19.3575 40.9824H24.4737C25.1206 40.9824 25.6434 41.5077 25.6436 42.125V42.1406L25.6553 42.5H6.50005V42.125C6.50027 41.5077 7.02306 40.9824 7.66997 40.9824H12.7862C14.4281 40.9824 15.791 39.6528 15.7911 38.0176V6.98242C15.791 5.34718 14.4281 4.01758 12.7862 4.01758H7.66997C7.02306 4.01758 6.50027 3.49227 6.50005 2.875V2.5H25.6709Z" fill="white" stroke="white"/>
</mask>
<g mask="url(#mask48_3_972)">
<path d="M-20.1499 -33.9112L46.9871 31.763" stroke="#302C6D" stroke-width="2" stroke-miterlimit="10"/>
</g>
<mask id="mask49_3_972" style="mask-type:luminance" maskUnits="userSpaceOnUse" x="6" y="2" width="21" height="41">
<path d="M25.6709 2.5V2.90137C25.6706 2.90748 25.6646 3.01657 25.6133 3.16797C25.5619 3.31983 25.4702 3.4992 25.3086 3.6582L25.3038 3.66309L25.2979 3.66797C24.9804 3.99868 24.5845 4.01758 24.501 4.01758H19.3848C17.7124 4.01758 16.38 5.35066 16.3799 6.98242V37.5176H16.3526V38.0176C16.3527 39.6528 17.7155 40.9824 19.3575 40.9824H24.4737C25.1206 40.9824 25.6434 41.5077 25.6436 42.125V42.1406L25.6553 42.5H6.50005V42.125C6.50027 41.5077 7.02306 40.9824 7.66997 40.9824H12.7862C14.4281 40.9824 15.791 39.6528 15.7911 38.0176V6.98242C15.791 5.34718 14.4281 4.01758 12.7862 4.01758H7.66997C7.02306 4.01758 6.50027 3.49227 6.50005 2.875V2.5H25.6709Z" fill="white" stroke="white"/>
</mask>
<g mask="url(#mask49_3_972)">
<path d="M-18.6679 -33.5948L48.496 32.0794" stroke="#302C6D" stroke-width="2" stroke-miterlimit="10"/>
</g>
<mask id="mask50_3_972" style="mask-type:luminance" maskUnits="userSpaceOnUse" x="6" y="2" width="21" height="41">
<path d="M25.6709 2.5V2.90137C25.6706 2.90748 25.6646 3.01657 25.6133 3.16797C25.5619 3.31983 25.4702 3.4992 25.3086 3.6582L25.3038 3.66309L25.2979 3.66797C24.9804 3.99868 24.5845 4.01758 24.501 4.01758H19.3848C17.7124 4.01758 16.38 5.35066 16.3799 6.98242V37.5176H16.3526V38.0176C16.3527 39.6528 17.7155 40.9824 19.3575 40.9824H24.4737C25.1206 40.9824 25.6434 41.5077 25.6436 42.125V42.1406L25.6553 42.5H6.50005V42.125C6.50027 41.5077 7.02306 40.9824 7.66997 40.9824H12.7862C14.4281 40.9824 15.791 39.6528 15.7911 38.0176V6.98242C15.791 5.34718 14.4281 4.01758 12.7862 4.01758H7.66997C7.02306 4.01758 6.50027 3.49227 6.50005 2.875V2.5H25.6709Z" fill="white" stroke="white"/>
</mask>
<g mask="url(#mask50_3_972)">
<path d="M-17.1587 -33.3017L49.9782 32.3725" stroke="#302C6D" stroke-width="2" stroke-miterlimit="10"/>
</g>
<mask id="mask51_3_972" style="mask-type:luminance" maskUnits="userSpaceOnUse" x="6" y="2" width="21" height="41">
<path d="M25.6709 2.5V2.90137C25.6706 2.90748 25.6646 3.01657 25.6133 3.16797C25.5619 3.31983 25.4702 3.4992 25.3086 3.6582L25.3038 3.66309L25.2979 3.66797C24.9804 3.99868 24.5845 4.01758 24.501 4.01758H19.3848C17.7124 4.01758 16.38 5.35066 16.3799 6.98242V37.5176H16.3526V38.0176C16.3527 39.6528 17.7155 40.9824 19.3575 40.9824H24.4737C25.1206 40.9824 25.6434 41.5077 25.6436 42.125V42.1406L25.6553 42.5H6.50005V42.125C6.50027 41.5077 7.02306 40.9824 7.66997 40.9824H12.7862C14.4281 40.9824 15.791 39.6528 15.7911 38.0176V6.98242C15.791 5.34718 14.4281 4.01758 12.7862 4.01758H7.66997C7.02306 4.01758 6.50027 3.49227 6.50005 2.875V2.5H25.6709Z" fill="white" stroke="white"/>
</mask>
<g mask="url(#mask51_3_972)">
<path d="M-15.6782 -32.981L51.4857 32.6932" stroke="#302C6D" stroke-width="2" stroke-miterlimit="10"/>
</g>
<mask id="mask52_3_972" style="mask-type:luminance" maskUnits="userSpaceOnUse" x="6" y="2" width="21" height="41">
<path d="M25.6709 2.5V2.90137C25.6706 2.90748 25.6646 3.01657 25.6133 3.16797C25.5619 3.31983 25.4702 3.4992 25.3086 3.6582L25.3038 3.66309L25.2979 3.66797C24.9804 3.99868 24.5845 4.01758 24.501 4.01758H19.3848C17.7124 4.01758 16.38 5.35066 16.3799 6.98242V37.5176H16.3526V38.0176C16.3527 39.6528 17.7155 40.9824 19.3575 40.9824H24.4737C25.1206 40.9824 25.6434 41.5077 25.6436 42.125V42.1406L25.6553 42.5H6.50005V42.125C6.50027 41.5077 7.02306 40.9824 7.66997 40.9824H12.7862C14.4281 40.9824 15.791 39.6528 15.7911 38.0176V6.98242C15.791 5.34718 14.4281 4.01758 12.7862 4.01758H7.66997C7.02306 4.01758 6.50027 3.49227 6.50005 2.875V2.5H25.6709Z" fill="white" stroke="white"/>
</mask>
<g mask="url(#mask52_3_972)">
<path d="M-14.1733 -32.6879L52.9637 32.9863" stroke="#302C6D" stroke-width="2" stroke-miterlimit="10"/>
</g>
<mask id="mask53_3_972" style="mask-type:luminance" maskUnits="userSpaceOnUse" x="6" y="2" width="21" height="41">
<path d="M25.6709 2.5V2.90137C25.6706 2.90748 25.6646 3.01657 25.6133 3.16797C25.5619 3.31983 25.4702 3.4992 25.3086 3.6582L25.3038 3.66309L25.2979 3.66797C24.9804 3.99868 24.5845 4.01758 24.501 4.01758H19.3848C17.7124 4.01758 16.38 5.35066 16.3799 6.98242V37.5176H16.3526V38.0176C16.3527 39.6528 17.7155 40.9824 19.3575 40.9824H24.4737C25.1206 40.9824 25.6434 41.5077 25.6436 42.125V42.1406L25.6553 42.5H6.50005V42.125C6.50027 41.5077 7.02306 40.9824 7.66997 40.9824H12.7862C14.4281 40.9824 15.791 39.6528 15.7911 38.0176V6.98242C15.791 5.34718 14.4281 4.01758 12.7862 4.01758H7.66997C7.02306 4.01758 6.50027 3.49227 6.50005 2.875V2.5H25.6709Z" fill="white" stroke="white"/>
</mask>
<g mask="url(#mask53_3_972)">
<path d="M-12.6907 -32.4011L54.4732 33.2731" stroke="#302C6D" stroke-width="2" stroke-miterlimit="10"/>
</g>
<mask id="mask54_3_972" style="mask-type:luminance" maskUnits="userSpaceOnUse" x="6" y="2" width="21" height="41">
<path d="M25.6709 2.5V2.90137C25.6706 2.90748 25.6646 3.01657 25.6133 3.16797C25.5619 3.31983 25.4702 3.4992 25.3086 3.6582L25.3038 3.66309L25.2979 3.66797C24.9804 3.99868 24.5845 4.01758 24.501 4.01758H19.3848C17.7124 4.01758 16.38 5.35066 16.3799 6.98242V37.5176H16.3526V38.0176C16.3527 39.6528 17.7155 40.9824 19.3575 40.9824H24.4737C25.1206 40.9824 25.6434 41.5077 25.6436 42.125V42.1406L25.6553 42.5H6.50005V42.125C6.50027 41.5077 7.02306 40.9824 7.66997 40.9824H12.7862C14.4281 40.9824 15.791 39.6528 15.7911 38.0176V6.98242C15.791 5.34718 14.4281 4.01758 12.7862 4.01758H7.66997C7.02306 4.01758 6.50027 3.49227 6.50005 2.875V2.5H25.6709Z" fill="white" stroke="white"/>
</mask>
<g mask="url(#mask54_3_972)">
<path d="M-11.1828 -32.0847L55.9541 33.5896" stroke="#302C6D" stroke-width="2" stroke-miterlimit="10"/>
</g>
<mask id="mask55_3_972" style="mask-type:luminance" maskUnits="userSpaceOnUse" x="6" y="2" width="21" height="41">
<path d="M25.6709 2.5V2.90137C25.6706 2.90748 25.6646 3.01657 25.6133 3.16797C25.5619 3.31983 25.4702 3.4992 25.3086 3.6582L25.3038 3.66309L25.2979 3.66797C24.9804 3.99868 24.5845 4.01758 24.501 4.01758H19.3848C17.7124 4.01758 16.38 5.35066 16.3799 6.98242V37.5176H16.3526V38.0176C16.3527 39.6528 17.7155 40.9824 19.3575 40.9824H24.4737C25.1206 40.9824 25.6434 41.5077 25.6436 42.125V42.1406L25.6553 42.5H6.50005V42.125C6.50027 41.5077 7.02306 40.9824 7.66997 40.9824H12.7862C14.4281 40.9824 15.791 39.6528 15.7911 38.0176V6.98242C15.791 5.34718 14.4281 4.01758 12.7862 4.01758H7.66997C7.02306 4.01758 6.50027 3.49227 6.50005 2.875V2.5H25.6709Z" fill="white" stroke="white"/>
</mask>
<g mask="url(#mask55_3_972)">
<path d="M-9.70165 -31.7916L57.4353 33.8826" stroke="#302C6D" stroke-width="2" stroke-miterlimit="10"/>
</g>
<mask id="mask56_3_972" style="mask-type:luminance" maskUnits="userSpaceOnUse" x="6" y="2" width="21" height="41">
<path d="M25.6709 2.5V2.90137C25.6706 2.90748 25.6646 3.01657 25.6133 3.16797C25.5619 3.31983 25.4702 3.4992 25.3086 3.6582L25.3038 3.66309L25.2979 3.66797C24.9804 3.99868 24.5845 4.01758 24.501 4.01758H19.3848C17.7124 4.01758 16.38 5.35066 16.3799 6.98242V37.5176H16.3526V38.0176C16.3527 39.6528 17.7155 40.9824 19.3575 40.9824H24.4737C25.1206 40.9824 25.6434 41.5077 25.6436 42.125V42.1406L25.6553 42.5H6.50005V42.125C6.50027 41.5077 7.02306 40.9824 7.66997 40.9824H12.7862C14.4281 40.9824 15.791 39.6528 15.7911 38.0176V6.98242C15.791 5.34718 14.4281 4.01758 12.7862 4.01758H7.66997C7.02306 4.01758 6.50027 3.49227 6.50005 2.875V2.5H25.6709Z" fill="white" stroke="white"/>
</mask>
<g mask="url(#mask56_3_972)">
<path d="M-8.22181 -31.4666L58.9421 34.2076" stroke="#302C6D" stroke-width="2" stroke-miterlimit="10"/>
</g>
<mask id="mask57_3_972" style="mask-type:luminance" maskUnits="userSpaceOnUse" x="6" y="2" width="21" height="41">
<path d="M25.6709 2.5V2.90137C25.6706 2.90748 25.6646 3.01657 25.6133 3.16797C25.5619 3.31983 25.4702 3.4992 25.3086 3.6582L25.3038 3.66309L25.2979 3.66797C24.9804 3.99868 24.5845 4.01758 24.501 4.01758H19.3848C17.7124 4.01758 16.38 5.35066 16.3799 6.98242V37.5176H16.3526V38.0176C16.3527 39.6528 17.7155 40.9824 19.3575 40.9824H24.4737C25.1206 40.9824 25.6434 41.5077 25.6436 42.125V42.1406L25.6553 42.5H6.50005V42.125C6.50027 41.5077 7.02306 40.9824 7.66997 40.9824H12.7862C14.4281 40.9824 15.791 39.6528 15.7911 38.0176V6.98242C15.791 5.34718 14.4281 4.01758 12.7862 4.01758H7.66997C7.02306 4.01758 6.50027 3.49227 6.50005 2.875V2.5H25.6709Z" fill="white" stroke="white"/>
</mask>
<g mask="url(#mask57_3_972)">
<path d="M-6.71051 -31.182L60.4265 34.4922" stroke="#302C6D" stroke-width="2" stroke-miterlimit="10"/>
</g>
<mask id="mask58_3_972" style="mask-type:luminance" maskUnits="userSpaceOnUse" x="6" y="2" width="21" height="41">
<path d="M25.6709 2.5V2.90137C25.6706 2.90748 25.6646 3.01657 25.6133 3.16797C25.5619 3.31983 25.4702 3.4992 25.3086 3.6582L25.3038 3.66309L25.2979 3.66797C24.9804 3.99868 24.5845 4.01758 24.501 4.01758H19.3848C17.7124 4.01758 16.38 5.35066 16.3799 6.98242V37.5176H16.3526V38.0176C16.3527 39.6528 17.7155 40.9824 19.3575 40.9824H24.4737C25.1206 40.9824 25.6434 41.5077 25.6436 42.125V42.1406L25.6553 42.5H6.50005V42.125C6.50027 41.5077 7.02306 40.9824 7.66997 40.9824H12.7862C14.4281 40.9824 15.791 39.6528 15.7911 38.0176V6.98242C15.791 5.34718 14.4281 4.01758 12.7862 4.01758H7.66997C7.02306 4.01758 6.50027 3.49227 6.50005 2.875V2.5H25.6709Z" fill="white" stroke="white"/>
</mask>
<g mask="url(#mask58_3_972)">
<path d="M-5.23067 -30.8953L61.9332 34.8054" stroke="#302C6D" stroke-width="2" stroke-miterlimit="10"/>
</g>
<mask id="mask59_3_972" style="mask-type:luminance" maskUnits="userSpaceOnUse" x="6" y="2" width="21" height="41">
<path d="M25.6709 2.5V2.90137C25.6706 2.90748 25.6646 3.01657 25.6133 3.16797C25.5619 3.31983 25.4702 3.4992 25.3086 3.6582L25.3038 3.66309L25.2979 3.66797C24.9804 3.99868 24.5845 4.01758 24.501 4.01758H19.3848C17.7124 4.01758 16.38 5.35066 16.3799 6.98242V37.5176H16.3526V38.0176C16.3527 39.6528 17.7155 40.9824 19.3575 40.9824H24.4737C25.1206 40.9824 25.6434 41.5077 25.6436 42.125V42.1406L25.6553 42.5H6.50005V42.125C6.50027 41.5077 7.02306 40.9824 7.66997 40.9824H12.7862C14.4281 40.9824 15.791 39.6528 15.7911 38.0176V6.98242C15.791 5.34718 14.4281 4.01758 12.7862 4.01758H7.66997C7.02306 4.01758 6.50027 3.49227 6.50005 2.875V2.5H25.6709Z" fill="white" stroke="white"/>
</mask>
<g mask="url(#mask59_3_972)">
<path d="M-3.72215 -30.5724L63.4148 35.1018" stroke="#302C6D" stroke-width="2" stroke-miterlimit="10"/>
</g>
<mask id="mask60_3_972" style="mask-type:luminance" maskUnits="userSpaceOnUse" x="6" y="2" width="21" height="41">
<path d="M25.6709 2.5V2.90137C25.6706 2.90748 25.6646 3.01657 25.6133 3.16797C25.5619 3.31983 25.4702 3.4992 25.3086 3.6582L25.3038 3.66309L25.2979 3.66797C24.9804 3.99868 24.5845 4.01758 24.501 4.01758H19.3848C17.7124 4.01758 16.38 5.35066 16.3799 6.98242V37.5176H16.3526V38.0176C16.3527 39.6528 17.7155 40.9824 19.3575 40.9824H24.4737C25.1206 40.9824 25.6434 41.5077 25.6436 42.125V42.1406L25.6553 42.5H6.50005V42.125C6.50027 41.5077 7.02306 40.9824 7.66997 40.9824H12.7862C14.4281 40.9824 15.791 39.6528 15.7911 38.0176V6.98242C15.791 5.34718 14.4281 4.01758 12.7862 4.01758H7.66997C7.02306 4.01758 6.50027 3.49227 6.50005 2.875V2.5H25.6709Z" fill="white" stroke="white"/>
</mask>
<g mask="url(#mask60_3_972)">
<path d="M-2.24085 -30.2836L64.923 35.3906" stroke="#302C6D" stroke-width="2" stroke-miterlimit="10"/>
</g>
<mask id="mask61_3_972" style="mask-type:luminance" maskUnits="userSpaceOnUse" x="6" y="2" width="21" height="41">
<path d="M25.6709 2.5V2.90137C25.6706 2.90748 25.6646 3.01657 25.6133 3.16797C25.5619 3.31983 25.4702 3.4992 25.3086 3.6582L25.3038 3.66309L25.2979 3.66797C24.9804 3.99868 24.5845 4.01758 24.501 4.01758H19.3848C17.7124 4.01758 16.38 5.35066 16.3799 6.98242V37.5176H16.3526V38.0176C16.3527 39.6528 17.7155 40.9824 19.3575 40.9824H24.4737C25.1206 40.9824 25.6434 41.5077 25.6436 42.125V42.1406L25.6553 42.5H6.50005V42.125C6.50027 41.5077 7.02306 40.9824 7.66997 40.9824H12.7862C14.4281 40.9824 15.791 39.6528 15.7911 38.0176V6.98242C15.791 5.34718 14.4281 4.01758 12.7862 4.01758H7.66997C7.02306 4.01758 6.50027 3.49227 6.50005 2.875V2.5H25.6709Z" fill="white" stroke="white"/>
</mask>
<g mask="url(#mask61_3_972)">
<path d="M-0.732468 -29.9629L66.4045 35.7114" stroke="#302C6D" stroke-width="2" stroke-miterlimit="10"/>
</g>
<mask id="mask62_3_972" style="mask-type:luminance" maskUnits="userSpaceOnUse" x="6" y="2" width="21" height="41">
<path d="M25.6709 2.5V2.90137C25.6706 2.90748 25.6646 3.01657 25.6133 3.16797C25.5619 3.31983 25.4702 3.4992 25.3086 3.6582L25.3038 3.66309L25.2979 3.66797C24.9804 3.99868 24.5845 4.01758 24.501 4.01758H19.3848C17.7124 4.01758 16.38 5.35066 16.3799 6.98242V37.5176H16.3526V38.0176C16.3527 39.6528 17.7155 40.9824 19.3575 40.9824H24.4737C25.1206 40.9824 25.6434 41.5077 25.6436 42.125V42.1406L25.6553 42.5H6.50005V42.125C6.50027 41.5077 7.02306 40.9824 7.66997 40.9824H12.7862C14.4281 40.9824 15.791 39.6528 15.7911 38.0176V6.98242C15.791 5.34718 14.4281 4.01758 12.7862 4.01758H7.66997C7.02306 4.01758 6.50027 3.49227 6.50005 2.875V2.5H25.6709Z" fill="white" stroke="white"/>
</mask>
<g mask="url(#mask62_3_972)">
<path d="M0.746704 -29.674L67.9106 36.0002" stroke="#302C6D" stroke-width="2" stroke-miterlimit="10"/>
</g>
<mask id="mask63_3_972" style="mask-type:luminance" maskUnits="userSpaceOnUse" x="6" y="2" width="21" height="41">
<path d="M25.6709 2.5V2.90137C25.6706 2.90748 25.6646 3.01657 25.6133 3.16797C25.5619 3.31983 25.4702 3.4992 25.3086 3.6582L25.3038 3.66309L25.2979 3.66797C24.9804 3.99868 24.5845 4.01758 24.501 4.01758H19.3848C17.7124 4.01758 16.38 5.35066 16.3799 6.98242V37.5176H16.3526V38.0176C16.3527 39.6528 17.7155 40.9824 19.3575 40.9824H24.4737C25.1206 40.9824 25.6434 41.5077 25.6436 42.125V42.1406L25.6553 42.5H6.50005V42.125C6.50027 41.5077 7.02306 40.9824 7.66997 40.9824H12.7862C14.4281 40.9824 15.791 39.6528 15.7911 38.0176V6.98242C15.791 5.34718 14.4281 4.01758 12.7862 4.01758H7.66997C7.02306 4.01758 6.50027 3.49227 6.50005 2.875V2.5H25.6709Z" fill="white" stroke="white"/>
</mask>
<g mask="url(#mask63_3_972)">
<path d="M2.25588 -29.3533L69.3928 36.3209" stroke="#302C6D" stroke-width="2" stroke-miterlimit="10"/>
</g>
<mask id="mask64_3_972" style="mask-type:luminance" maskUnits="userSpaceOnUse" x="6" y="2" width="21" height="41">
<path d="M25.6709 2.5V2.90137C25.6706 2.90748 25.6646 3.01657 25.6133 3.16797C25.5619 3.31983 25.4702 3.4992 25.3086 3.6582L25.3038 3.66309L25.2979 3.66797C24.9804 3.99868 24.5845 4.01758 24.501 4.01758H19.3848C17.7124 4.01758 16.38 5.35066 16.3799 6.98242V37.5176H16.3526V38.0176C16.3527 39.6528 17.7155 40.9824 19.3575 40.9824H24.4737C25.1206 40.9824 25.6434 41.5077 25.6436 42.125V42.1406L25.6553 42.5H6.50005V42.125C6.50027 41.5077 7.02306 40.9824 7.66997 40.9824H12.7862C14.4281 40.9824 15.791 39.6528 15.7911 38.0176V6.98242C15.791 5.34718 14.4281 4.01758 12.7862 4.01758H7.66997C7.02306 4.01758 6.50027 3.49227 6.50005 2.875V2.5H25.6709Z" fill="white" stroke="white"/>
</mask>
<g mask="url(#mask64_3_972)">
<path d="M3.73705 -29.0645L70.9009 36.6097" stroke="#302C6D" stroke-width="2" stroke-miterlimit="10"/>
</g>
<mask id="mask65_3_972" style="mask-type:luminance" maskUnits="userSpaceOnUse" x="6" y="2" width="21" height="41">
<path d="M25.6709 2.5V2.90137C25.6706 2.90748 25.6646 3.01657 25.6133 3.16797C25.5619 3.31983 25.4702 3.4992 25.3086 3.6582L25.3038 3.66309L25.2979 3.66797C24.9804 3.99868 24.5845 4.01758 24.501 4.01758H19.3848C17.7124 4.01758 16.38 5.35066 16.3799 6.98242V37.5176H16.3526V38.0176C16.3527 39.6528 17.7155 40.9824 19.3575 40.9824H24.4737C25.1206 40.9824 25.6434 41.5077 25.6436 42.125V42.1406L25.6553 42.5H6.50005V42.125C6.50027 41.5077 7.02306 40.9824 7.66997 40.9824H12.7862C14.4281 40.9824 15.791 39.6528 15.7911 38.0176V6.98242C15.791 5.34718 14.4281 4.01758 12.7862 4.01758H7.66997C7.02306 4.01758 6.50027 3.49227 6.50005 2.875V2.5H25.6709Z" fill="white" stroke="white"/>
</mask>
<g mask="url(#mask65_3_972)">
<path d="M5.24557 -28.7692L72.3825 36.905" stroke="#302C6D" stroke-width="2" stroke-miterlimit="10"/>
</g>
<mask id="mask66_3_972" style="mask-type:luminance" maskUnits="userSpaceOnUse" x="6" y="2" width="21" height="41">
<path d="M25.6709 2.5V2.90137C25.6706 2.90748 25.6646 3.01657 25.6133 3.16797C25.5619 3.31983 25.4702 3.4992 25.3086 3.6582L25.3038 3.66309L25.2979 3.66797C24.9804 3.99868 24.5845 4.01758 24.501 4.01758H19.3848C17.7124 4.01758 16.38 5.35066 16.3799 6.98242V37.5176H16.3526V38.0176C16.3527 39.6528 17.7155 40.9824 19.3575 40.9824H24.4737C25.1206 40.9824 25.6434 41.5077 25.6436 42.125V42.1406L25.6553 42.5H6.50005V42.125C6.50027 41.5077 7.02306 40.9824 7.66997 40.9824H12.7862C14.4281 40.9824 15.791 39.6528 15.7911 38.0176V6.98242C15.791 5.34718 14.4281 4.01758 12.7862 4.01758H7.66997C7.02306 4.01758 6.50027 3.49227 6.50005 2.875V2.5H25.6709Z" fill="white" stroke="white"/>
</mask>
<g mask="url(#mask66_3_972)">
<path d="M6.72687 -28.4549L73.8908 37.2193" stroke="#302C6D" stroke-width="2" stroke-miterlimit="10"/>
</g>
<mask id="mask67_3_972" style="mask-type:luminance" maskUnits="userSpaceOnUse" x="6" y="2" width="21" height="41">
<path d="M25.6709 2.5V2.90137C25.6706 2.90748 25.6646 3.01657 25.6133 3.16797C25.5619 3.31983 25.4702 3.4992 25.3086 3.6582L25.3038 3.66309L25.2979 3.66797C24.9804 3.99868 24.5845 4.01758 24.501 4.01758H19.3848C17.7124 4.01758 16.38 5.35066 16.3799 6.98242V37.5176H16.3526V38.0176C16.3527 39.6528 17.7155 40.9824 19.3575 40.9824H24.4737C25.1206 40.9824 25.6434 41.5077 25.6436 42.125V42.1406L25.6553 42.5H6.50005V42.125C6.50027 41.5077 7.02306 40.9824 7.66997 40.9824H12.7862C14.4281 40.9824 15.791 39.6528 15.7911 38.0176V6.98242C15.791 5.34718 14.4281 4.01758 12.7862 4.01758H7.66997C7.02306 4.01758 6.50027 3.49227 6.50005 2.875V2.5H25.6709Z" fill="white" stroke="white"/>
</mask>
<g mask="url(#mask67_3_972)">
<path d="M8.23459 -28.1575L75.3716 37.5167" stroke="#302C6D" stroke-width="2" stroke-miterlimit="10"/>
</g>
<mask id="mask68_3_972" style="mask-type:luminance" maskUnits="userSpaceOnUse" x="6" y="2" width="21" height="41">
<path d="M25.6709 2.5V2.90137C25.6706 2.90748 25.6646 3.01657 25.6133 3.16797C25.5619 3.31983 25.4702 3.4992 25.3086 3.6582L25.3038 3.66309L25.2979 3.66797C24.9804 3.99868 24.5845 4.01758 24.501 4.01758H19.3848C17.7124 4.01758 16.38 5.35066 16.3799 6.98242V37.5176H16.3526V38.0176C16.3527 39.6528 17.7155 40.9824 19.3575 40.9824H24.4737C25.1206 40.9824 25.6434 41.5077 25.6436 42.125V42.1406L25.6553 42.5H6.50005V42.125C6.50027 41.5077 7.02306 40.9824 7.66997 40.9824H12.7862C14.4281 40.9824 15.791 39.6528 15.7911 38.0176V6.98242C15.791 5.34718 14.4281 4.01758 12.7862 4.01758H7.66997C7.02306 4.01758 6.50027 3.49227 6.50005 2.875V2.5H25.6709Z" fill="white" stroke="white"/>
</mask>
<g mask="url(#mask68_3_972)">
<path d="M9.71655 -27.8687L76.8535 37.832" stroke="#302C6D" stroke-width="2" stroke-miterlimit="10"/>
</g>
<mask id="mask69_3_972" style="mask-type:luminance" maskUnits="userSpaceOnUse" x="6" y="2" width="21" height="41">
<path d="M25.6709 2.5V2.90137C25.6706 2.90748 25.6646 3.01657 25.6133 3.16797C25.5619 3.31983 25.4702 3.4992 25.3086 3.6582L25.3038 3.66309L25.2979 3.66797C24.9804 3.99868 24.5845 4.01758 24.501 4.01758H19.3848C17.7124 4.01758 16.38 5.35066 16.3799 6.98242V37.5176H16.3526V38.0176C16.3527 39.6528 17.7155 40.9824 19.3575 40.9824H24.4737C25.1206 40.9824 25.6434 41.5077 25.6436 42.125V42.1406L25.6553 42.5H6.50005V42.125C6.50027 41.5077 7.02306 40.9824 7.66997 40.9824H12.7862C14.4281 40.9824 15.791 39.6528 15.7911 38.0176V6.98242C15.791 5.34718 14.4281 4.01758 12.7862 4.01758H7.66997C7.02306 4.01758 6.50027 3.49227 6.50005 2.875V2.5H25.6709Z" fill="white" stroke="white"/>
</mask>
<g mask="url(#mask69_3_972)">
<path d="M11.2229 -27.548L78.3599 38.1262" stroke="#302C6D" stroke-width="2" stroke-miterlimit="10"/>
</g>
<mask id="mask70_3_972" style="mask-type:luminance" maskUnits="userSpaceOnUse" x="6" y="2" width="21" height="41">
<path d="M25.6709 2.5V2.90137C25.6706 2.90748 25.6646 3.01657 25.6133 3.16797C25.5619 3.31983 25.4702 3.4992 25.3086 3.6582L25.3038 3.66309L25.2979 3.66797C24.9804 3.99868 24.5845 4.01758 24.501 4.01758H19.3848C17.7124 4.01758 16.38 5.35066 16.3799 6.98242V37.5176H16.3526V38.0176C16.3527 39.6528 17.7155 40.9824 19.3575 40.9824H24.4737C25.1206 40.9824 25.6434 41.5077 25.6436 42.125V42.1406L25.6553 42.5H6.50005V42.125C6.50027 41.5077 7.02306 40.9824 7.66997 40.9824H12.7862C14.4281 40.9824 15.791 39.6528 15.7911 38.0176V6.98242C15.791 5.34718 14.4281 4.01758 12.7862 4.01758H7.66997C7.02306 4.01758 6.50027 3.49227 6.50005 2.875V2.5H25.6709Z" fill="white" stroke="white"/>
</mask>
<g mask="url(#mask70_3_972)">
<path d="M12.7056 -27.2591L79.8425 38.4151" stroke="#302C6D" stroke-width="2" stroke-miterlimit="10"/>
</g>
<mask id="mask71_3_972" style="mask-type:luminance" maskUnits="userSpaceOnUse" x="6" y="2" width="21" height="41">
<path d="M25.6709 2.5V2.90137C25.6706 2.90748 25.6646 3.01657 25.6133 3.16797C25.5619 3.31983 25.4702 3.4992 25.3086 3.6582L25.3038 3.66309L25.2979 3.66797C24.9804 3.99868 24.5845 4.01758 24.501 4.01758H19.3848C17.7124 4.01758 16.38 5.35066 16.3799 6.98242V37.5176H16.3526V38.0176C16.3527 39.6528 17.7155 40.9824 19.3575 40.9824H24.4737C25.1206 40.9824 25.6434 41.5077 25.6436 42.125V42.1406L25.6553 42.5H6.50005V42.125C6.50027 41.5077 7.02306 40.9824 7.66997 40.9824H12.7862C14.4281 40.9824 15.791 39.6528 15.7911 38.0176V6.98242C15.791 5.34718 14.4281 4.01758 12.7862 4.01758H7.66997C7.02306 4.01758 6.50027 3.49227 6.50005 2.875V2.5H25.6709Z" fill="white" stroke="white"/>
</mask>
<g mask="url(#mask71_3_972)">
<path d="M14.1861 -26.9363L81.35 38.7379" stroke="#302C6D" stroke-width="2" stroke-miterlimit="10"/>
</g>
<mask id="mask72_3_972" style="mask-type:luminance" maskUnits="userSpaceOnUse" x="6" y="2" width="21" height="41">
<path d="M25.6709 2.5V2.90137C25.6706 2.90748 25.6646 3.01657 25.6133 3.16797C25.5619 3.31983 25.4702 3.4992 25.3086 3.6582L25.3038 3.66309L25.2979 3.66797C24.9804 3.99868 24.5845 4.01758 24.501 4.01758H19.3848C17.7124 4.01758 16.38 5.35066 16.3799 6.98242V37.5176H16.3526V38.0176C16.3527 39.6528 17.7155 40.9824 19.3575 40.9824H24.4737C25.1206 40.9824 25.6434 41.5077 25.6436 42.125V42.1406L25.6553 42.5H6.50005V42.125C6.50027 41.5077 7.02306 40.9824 7.66997 40.9824H12.7862C14.4281 40.9824 15.791 39.6528 15.7911 38.0176V6.98242C15.791 5.34718 14.4281 4.01758 12.7862 4.01758H7.66997C7.02306 4.01758 6.50027 3.49227 6.50005 2.875V2.5H25.6709Z" fill="white" stroke="white"/>
</mask>
<g mask="url(#mask72_3_972)">
<path d="M15.6954 -26.6474L82.8324 39.0268" stroke="#302C6D" stroke-width="2" stroke-miterlimit="10"/>
</g>
<mask id="mask73_3_972" style="mask-type:luminance" maskUnits="userSpaceOnUse" x="6" y="2" width="21" height="41">
<path d="M25.6709 2.5V2.90137C25.6706 2.90748 25.6646 3.01657 25.6133 3.16797C25.5619 3.31983 25.4702 3.4992 25.3086 3.6582L25.3038 3.66309L25.2979 3.66797C24.9804 3.99868 24.5845 4.01758 24.501 4.01758H19.3848C17.7124 4.01758 16.38 5.35066 16.3799 6.98242V37.5176H16.3526V38.0176C16.3527 39.6528 17.7155 40.9824 19.3575 40.9824H24.4737C25.1206 40.9824 25.6434 41.5077 25.6436 42.125V42.1406L25.6553 42.5H6.50005V42.125C6.50027 41.5077 7.02306 40.9824 7.66997 40.9824H12.7862C14.4281 40.9824 15.791 39.6528 15.7911 38.0176V6.98242C15.791 5.34718 14.4281 4.01758 12.7862 4.01758H7.66997C7.02306 4.01758 6.50027 3.49227 6.50005 2.875V2.5H25.6709Z" fill="white" stroke="white"/>
</mask>
<g mask="url(#mask73_3_972)">
<path d="M17.1738 -26.331L84.3377 39.3432" stroke="#302C6D" stroke-width="2" stroke-miterlimit="10"/>
</g>
<mask id="mask74_3_972" style="mask-type:luminance" maskUnits="userSpaceOnUse" x="6" y="2" width="21" height="41">
<path d="M25.6709 2.5V2.90137C25.6706 2.90748 25.6646 3.01657 25.6133 3.16797C25.5619 3.31983 25.4702 3.4992 25.3086 3.6582L25.3038 3.66309L25.2979 3.66797C24.9804 3.99868 24.5845 4.01758 24.501 4.01758H19.3848C17.7124 4.01758 16.38 5.35066 16.3799 6.98242V37.5176H16.3526V38.0176C16.3527 39.6528 17.7155 40.9824 19.3575 40.9824H24.4737C25.1206 40.9824 25.6434 41.5077 25.6436 42.125V42.1406L25.6553 42.5H6.50005V42.125C6.50027 41.5077 7.02306 40.9824 7.66997 40.9824H12.7862C14.4281 40.9824 15.791 39.6528 15.7911 38.0176V6.98242C15.791 5.34718 14.4281 4.01758 12.7862 4.01758H7.66997C7.02306 4.01758 6.50027 3.49227 6.50005 2.875V2.5H25.6709Z" fill="white" stroke="white"/>
</mask>
<g mask="url(#mask74_3_972)">
<path d="M18.6843 -26.0379L85.8212 39.6363" stroke="#302C6D" stroke-width="2" stroke-miterlimit="10"/>
</g>
<mask id="mask75_3_972" style="mask-type:luminance" maskUnits="userSpaceOnUse" x="6" y="2" width="21" height="41">
<path d="M25.6709 2.5V2.90137C25.6706 2.90748 25.6646 3.01657 25.6133 3.16797C25.5619 3.31983 25.4702 3.4992 25.3086 3.6582L25.3038 3.66309L25.2979 3.66797C24.9804 3.99868 24.5845 4.01758 24.501 4.01758H19.3848C17.7124 4.01758 16.38 5.35066 16.3799 6.98242V37.5176H16.3526V38.0176C16.3527 39.6528 17.7155 40.9824 19.3575 40.9824H24.4737C25.1206 40.9824 25.6434 41.5077 25.6436 42.125V42.1406L25.6553 42.5H6.50005V42.125C6.50027 41.5077 7.02306 40.9824 7.66997 40.9824H12.7862C14.4281 40.9824 15.791 39.6528 15.7911 38.0176V6.98242C15.791 5.34718 14.4281 4.01758 12.7862 4.01758H7.66997C7.02306 4.01758 6.50027 3.49227 6.50005 2.875V2.5H25.6709Z" fill="white" stroke="white"/>
</mask>
<g mask="url(#mask75_3_972)">
<path d="M20.1642 -25.749L87.3281 39.9252" stroke="#302C6D" stroke-width="2" stroke-miterlimit="10"/>
</g>
<mask id="mask76_3_972" style="mask-type:luminance" maskUnits="userSpaceOnUse" x="6" y="2" width="21" height="41">
<path d="M25.6709 2.5V2.90137C25.6706 2.90748 25.6646 3.01657 25.6133 3.16797C25.5619 3.31983 25.4702 3.4992 25.3086 3.6582L25.3038 3.66309L25.2979 3.66797C24.9804 3.99868 24.5845 4.01758 24.501 4.01758H19.3848C17.7124 4.01758 16.38 5.35066 16.3799 6.98242V37.5176H16.3526V38.0176C16.3527 39.6528 17.7155 40.9824 19.3575 40.9824H24.4737C25.1206 40.9824 25.6434 41.5077 25.6436 42.125V42.1406L25.6553 42.5H6.50005V42.125C6.50027 41.5077 7.02306 40.9824 7.66997 40.9824H12.7862C14.4281 40.9824 15.791 39.6528 15.7911 38.0176V6.98242C15.791 5.34718 14.4281 4.01758 12.7862 4.01758H7.66997C7.02306 4.01758 6.50027 3.49227 6.50005 2.875V2.5H25.6709Z" fill="white" stroke="white"/>
</mask>
<g mask="url(#mask76_3_972)">
<path d="M21.6741 -25.4304L88.8111 40.2438" stroke="#302C6D" stroke-width="2" stroke-miterlimit="10"/>
</g>
<mask id="mask77_3_972" style="mask-type:luminance" maskUnits="userSpaceOnUse" x="6" y="2" width="21" height="41">
<path d="M25.6709 2.5V2.90137C25.6706 2.90748 25.6646 3.01657 25.6133 3.16797C25.5619 3.31983 25.4702 3.4992 25.3086 3.6582L25.3038 3.66309L25.2979 3.66797C24.9804 3.99868 24.5845 4.01758 24.501 4.01758H19.3848C17.7124 4.01758 16.38 5.35066 16.3799 6.98242V37.5176H16.3526V38.0176C16.3527 39.6528 17.7155 40.9824 19.3575 40.9824H24.4737C25.1206 40.9824 25.6434 41.5077 25.6436 42.125V42.1406L25.6553 42.5H6.50005V42.125C6.50027 41.5077 7.02306 40.9824 7.66997 40.9824H12.7862C14.4281 40.9824 15.791 39.6528 15.7911 38.0176V6.98242C15.791 5.34718 14.4281 4.01758 12.7862 4.01758H7.66997C7.02306 4.01758 6.50027 3.49227 6.50005 2.875V2.5H25.6709Z" fill="white" stroke="white"/>
</mask>
<g mask="url(#mask77_3_972)">
<path d="M23.1539 -25.1373L90.3178 40.5369" stroke="#302C6D" stroke-width="2" stroke-miterlimit="10"/>
</g>
<mask id="mask78_3_972" style="mask-type:luminance" maskUnits="userSpaceOnUse" x="6" y="2" width="21" height="41">
<path d="M25.6709 2.5V2.90137C25.6706 2.90748 25.6646 3.01657 25.6133 3.16797C25.5619 3.31983 25.4702 3.4992 25.3086 3.6582L25.3038 3.66309L25.2979 3.66797C24.9804 3.99868 24.5845 4.01758 24.501 4.01758H19.3848C17.7124 4.01758 16.38 5.35066 16.3799 6.98242V37.5176H16.3526V38.0176C16.3527 39.6528 17.7155 40.9824 19.3575 40.9824H24.4737C25.1206 40.9824 25.6434 41.5077 25.6436 42.125V42.1406L25.6553 42.5H6.50005V42.125C6.50027 41.5077 7.02306 40.9824 7.66997 40.9824H12.7862C14.4281 40.9824 15.791 39.6528 15.7911 38.0176V6.98242C15.791 5.34718 14.4281 4.01758 12.7862 4.01758H7.66997C7.02306 4.01758 6.50027 3.49227 6.50005 2.875V2.5H25.6709Z" fill="white" stroke="white"/>
</mask>
<g mask="url(#mask78_3_972)">
<path d="M24.6624 -24.8187L91.7994 40.8555" stroke="#302C6D" stroke-width="2" stroke-miterlimit="10"/>
</g>
<mask id="mask79_3_972" style="mask-type:luminance" maskUnits="userSpaceOnUse" x="6" y="2" width="21" height="41">
<path d="M25.6709 2.5V2.90137C25.6706 2.90748 25.6646 3.01657 25.6133 3.16797C25.5619 3.31983 25.4702 3.4992 25.3086 3.6582L25.3038 3.66309L25.2979 3.66797C24.9804 3.99868 24.5845 4.01758 24.501 4.01758H19.3848C17.7124 4.01758 16.38 5.35066 16.3799 6.98242V37.5176H16.3526V38.0176C16.3527 39.6528 17.7155 40.9824 19.3575 40.9824H24.4737C25.1206 40.9824 25.6434 41.5077 25.6436 42.125V42.1406L25.6553 42.5H6.50005V42.125C6.50027 41.5077 7.02306 40.9824 7.66997 40.9824H12.7862C14.4281 40.9824 15.791 39.6528 15.7911 38.0176V6.98242C15.791 5.34718 14.4281 4.01758 12.7862 4.01758H7.66997C7.02306 4.01758 6.50027 3.49227 6.50005 2.875V2.5H25.6709Z" fill="white" stroke="white"/>
</mask>
<g mask="url(#mask79_3_972)">
<path d="M26.1436 -24.5299L93.3075 41.1443" stroke="#302C6D" stroke-width="2" stroke-miterlimit="10"/>
</g>
<path d="M19.3844 4.51778H24.5011C24.6357 4.51778 25.2013 4.49127 25.6591 4.01422C26.1169 3.56367 26.1708 3.00711 26.1708 2.9011C26.1708 2.9011 26.1708 2.9011 26.1708 2.8746V2H6.00005V2.8746C6.00005 3.77569 6.75409 4.51778 7.66972 4.51778H12.7865C14.1599 4.51778 15.291 5.6309 15.291 6.98255V38.0175C15.291 39.3691 14.1599 40.4822 12.7865 40.4822H7.66972C6.75409 40.4822 6.00005 41.2243 6.00005 42.1254V43H26.1708L26.1438 42.1254C26.1438 41.2243 25.3898 40.4822 24.4742 40.4822H19.3574C17.984 40.4822 16.8529 39.3691 16.8529 38.0175H16.8798V6.98255C16.8798 5.6309 17.984 4.51778 19.3844 4.51778Z" stroke="#302C6D" stroke-width="3" stroke-miterlimit="10"/>
</g>
<defs>
<filter id="filter0_d_3_972" x="0.500046" y="0.5" width="31.2176" height="52" filterUnits="userSpaceOnUse" color-interpolation-filters="sRGB">
<feFlood flood-opacity="0" result="BackgroundImageFix"/>
<feColorMatrix in="SourceAlpha" type="matrix" values="0 0 0 0 0 0 0 0 0 0 0 0 0 0 0 0 0 0 127 0" result="hardAlpha"/>
<feOffset dy="4"/>
<feGaussianBlur stdDeviation="2"/>
<feComposite in2="hardAlpha" operator="out"/>
<feColorMatrix type="matrix" values="0 0 0 0 0 0 0 0 0 0 0 0 0 0 0 0 0 0 0.25 0"/>
<feBlend mode="normal" in2="BackgroundImageFix" result="effect1_dropShadow_3_972"/>
<feBlend mode="normal" in="SourceGraphic" in2="effect1_dropShadow_3_972" result="shape"/>
</filter>
</defs>
</svg>
