<svg width="238" height="487" viewBox="0 0 238 487" fill="none" xmlns="http://www.w3.org/2000/svg">
<mask id="mask0_1042_1131" style="mask-type:luminance" maskUnits="userSpaceOnUse" x="2" y="2" width="234" height="483">
<path d="M157.117 31.6501H216.417C217.978 31.6501 224.532 31.338 229.838 25.7201C235.144 20.4143 235.768 13.8601 235.768 12.6116C235.768 12.6116 235.768 12.6116 235.768 12.2995V2H2V12.2995C2 22.9112 10.739 31.6501 21.3506 31.6501H80.6509C96.5683 31.6501 109.677 44.7586 109.677 60.6761V426.153C109.677 442.071 96.5683 455.179 80.6509 455.179H21.3506C10.739 455.179 2 463.918 2 474.53V484.829H235.768L235.456 474.53C235.456 463.918 226.717 455.179 216.105 455.179H156.805C140.888 455.179 127.779 442.071 127.779 426.153H128.091V60.6761C128.091 44.7586 140.887 31.6501 157.117 31.6501Z" fill="white"/>
</mask>
<g mask="url(#mask0_1042_1131)">
<path d="M-769.841 -232.387L8.24116 541.014" stroke="#627ABA" stroke-width="2" stroke-miterlimit="10"/>
</g>
<mask id="mask1_1042_1131" style="mask-type:luminance" maskUnits="userSpaceOnUse" x="2" y="2" width="234" height="483">
<path d="M157.117 31.6501H216.417C217.978 31.6501 224.532 31.338 229.838 25.7201C235.144 20.4143 235.768 13.8601 235.768 12.6116C235.768 12.6116 235.768 12.6116 235.768 12.2995V2H2V12.2995C2 22.9112 10.739 31.6501 21.3506 31.6501H80.6509C96.5683 31.6501 109.677 44.7586 109.677 60.6761V426.153C109.677 442.071 96.5683 455.179 80.6509 455.179H21.3506C10.739 455.179 2 463.918 2 474.53V484.829H235.768L235.456 474.53C235.456 463.918 226.717 455.179 216.105 455.179H156.805C140.888 455.179 127.779 442.071 127.779 426.153H128.091V60.6761C128.091 44.7586 140.887 31.6501 157.117 31.6501Z" fill="white"/>
</mask>
<g mask="url(#mask1_1042_1131)">
<path d="M-752.673 -228.645L25.7213 544.756" stroke="#627ABA" stroke-width="2" stroke-miterlimit="10"/>
</g>
<mask id="mask2_1042_1131" style="mask-type:luminance" maskUnits="userSpaceOnUse" x="2" y="2" width="234" height="483">
<path d="M157.117 31.6501H216.417C217.978 31.6501 224.532 31.338 229.838 25.7201C235.144 20.4143 235.768 13.8601 235.768 12.6116C235.768 12.6116 235.768 12.6116 235.768 12.2995V2H2V12.2995C2 22.9112 10.739 31.6501 21.3506 31.6501H80.6509C96.5683 31.6501 109.677 44.7586 109.677 60.6761V426.153C109.677 442.071 96.5683 455.179 80.6509 455.179H21.3506C10.739 455.179 2 463.918 2 474.53V484.829H235.768L235.456 474.53C235.456 463.918 226.717 455.179 216.105 455.179H156.805C140.888 455.179 127.779 442.071 127.779 426.153H128.091V60.6761C128.091 44.7586 140.887 31.6501 157.117 31.6501Z" fill="white"/>
</mask>
<g mask="url(#mask2_1042_1131)">
<path d="M-735.197 -225.215L42.8847 548.186" stroke="#627ABA" stroke-width="2" stroke-miterlimit="10"/>
</g>
<mask id="mask3_1042_1131" style="mask-type:luminance" maskUnits="userSpaceOnUse" x="2" y="2" width="234" height="483">
<path d="M157.117 31.6501H216.417C217.978 31.6501 224.532 31.338 229.838 25.7201C235.144 20.4143 235.768 13.8601 235.768 12.6116C235.768 12.6116 235.768 12.6116 235.768 12.2995V2H2V12.2995C2 22.9112 10.739 31.6501 21.3506 31.6501H80.6509C96.5683 31.6501 109.677 44.7586 109.677 60.6761V426.153C109.677 442.071 96.5683 455.179 80.6509 455.179H21.3506C10.739 455.179 2 463.918 2 474.53V484.829H235.768L235.456 474.53C235.456 463.918 226.717 455.179 216.105 455.179H156.805C140.888 455.179 127.779 442.071 127.779 426.153H128.091V60.6761C128.091 44.7586 140.887 31.6501 157.117 31.6501Z" fill="white"/>
</mask>
<g mask="url(#mask3_1042_1131)">
<path d="M-718.028 -221.777L60.3658 551.623" stroke="#627ABA" stroke-width="2" stroke-miterlimit="10"/>
</g>
<mask id="mask4_1042_1131" style="mask-type:luminance" maskUnits="userSpaceOnUse" x="2" y="2" width="234" height="483">
<path d="M157.117 31.6501H216.417C217.978 31.6501 224.532 31.338 229.838 25.7201C235.144 20.4143 235.768 13.8601 235.768 12.6116C235.768 12.6116 235.768 12.6116 235.768 12.2995V2H2V12.2995C2 22.9112 10.739 31.6501 21.3506 31.6501H80.6509C96.5683 31.6501 109.677 44.7586 109.677 60.6761V426.153C109.677 442.071 96.5683 455.179 80.6509 455.179H21.3506C10.739 455.179 2 463.918 2 474.53V484.829H235.768L235.456 474.53C235.456 463.918 226.717 455.179 216.105 455.179H156.805C140.888 455.179 127.779 442.071 127.779 426.153H128.091V60.6761C128.091 44.7586 140.887 31.6501 157.117 31.6501Z" fill="white"/>
</mask>
<g mask="url(#mask4_1042_1131)">
<path d="M-700.552 -218.035L77.5302 555.365" stroke="#627ABA" stroke-width="2" stroke-miterlimit="10"/>
</g>
<mask id="mask5_1042_1131" style="mask-type:luminance" maskUnits="userSpaceOnUse" x="2" y="2" width="234" height="483">
<path d="M157.117 31.6501H216.417C217.978 31.6501 224.532 31.338 229.838 25.7201C235.144 20.4143 235.768 13.8601 235.768 12.6116C235.768 12.6116 235.768 12.6116 235.768 12.2995V2H2V12.2995C2 22.9112 10.739 31.6501 21.3506 31.6501H80.6509C96.5683 31.6501 109.677 44.7586 109.677 60.6761V426.153C109.677 442.071 96.5683 455.179 80.6509 455.179H21.3506C10.739 455.179 2 463.918 2 474.53V484.829H235.768L235.456 474.53C235.456 463.918 226.717 455.179 216.105 455.179H156.805C140.888 455.179 127.779 442.071 127.779 426.153H128.091V60.6761C128.091 44.7586 140.887 31.6501 157.117 31.6501Z" fill="white"/>
</mask>
<g mask="url(#mask5_1042_1131)">
<path d="M-683.386 -214.605L95.0084 558.795" stroke="#627ABA" stroke-width="2" stroke-miterlimit="10"/>
</g>
<mask id="mask6_1042_1131" style="mask-type:luminance" maskUnits="userSpaceOnUse" x="2" y="2" width="234" height="483">
<path d="M157.117 31.6501H216.417C217.978 31.6501 224.532 31.338 229.838 25.7201C235.144 20.4143 235.768 13.8601 235.768 12.6116C235.768 12.6116 235.768 12.6116 235.768 12.2995V2H2V12.2995C2 22.9112 10.739 31.6501 21.3506 31.6501H80.6509C96.5683 31.6501 109.677 44.7586 109.677 60.6761V426.153C109.677 442.071 96.5683 455.179 80.6509 455.179H21.3506C10.739 455.179 2 463.918 2 474.53V484.829H235.768L235.456 474.53C235.456 463.918 226.717 455.179 216.105 455.179H156.805C140.888 455.179 127.779 442.071 127.779 426.153H128.091V60.6761C128.091 44.7586 140.887 31.6501 157.117 31.6501Z" fill="white"/>
</mask>
<g mask="url(#mask6_1042_1131)">
<path d="M-665.912 -210.863L112.17 562.537" stroke="#627ABA" stroke-width="2" stroke-miterlimit="10"/>
</g>
<mask id="mask7_1042_1131" style="mask-type:luminance" maskUnits="userSpaceOnUse" x="2" y="2" width="234" height="483">
<path d="M157.117 31.6501H216.417C217.978 31.6501 224.532 31.338 229.838 25.7201C235.144 20.4143 235.768 13.8601 235.768 12.6116C235.768 12.6116 235.768 12.6116 235.768 12.2995V2H2V12.2995C2 22.9112 10.739 31.6501 21.3506 31.6501H80.6509C96.5683 31.6501 109.677 44.7586 109.677 60.6761V426.153C109.677 442.071 96.5683 455.179 80.6509 455.179H21.3506C10.739 455.179 2 463.918 2 474.53V484.829H235.768L235.456 474.53C235.456 463.918 226.717 455.179 216.105 455.179H156.805C140.888 455.179 127.779 442.071 127.779 426.153H128.091V60.6761C128.091 44.7586 140.887 31.6501 157.117 31.6501Z" fill="white"/>
</mask>
<g mask="url(#mask7_1042_1131)">
<path d="M-648.746 -207.422L129.648 565.979" stroke="#627ABA" stroke-width="2" stroke-miterlimit="10"/>
</g>
<mask id="mask8_1042_1131" style="mask-type:luminance" maskUnits="userSpaceOnUse" x="2" y="2" width="234" height="483">
<path d="M157.117 31.6501H216.417C217.978 31.6501 224.532 31.338 229.838 25.7201C235.144 20.4143 235.768 13.8601 235.768 12.6116C235.768 12.6116 235.768 12.6116 235.768 12.2995V2H2V12.2995C2 22.9112 10.739 31.6501 21.3506 31.6501H80.6509C96.5683 31.6501 109.677 44.7586 109.677 60.6761V426.153C109.677 442.071 96.5683 455.179 80.6509 455.179H21.3506C10.739 455.179 2 463.918 2 474.53V484.829H235.768L235.456 474.53C235.456 463.918 226.717 455.179 216.105 455.179H156.805C140.888 455.179 127.779 442.071 127.779 426.153H128.091V60.6761C128.091 44.7586 140.887 31.6501 157.117 31.6501Z" fill="white"/>
</mask>
<g mask="url(#mask8_1042_1131)">
<path d="M-631.264 -203.992L146.818 569.408" stroke="#627ABA" stroke-width="2" stroke-miterlimit="10"/>
</g>
<mask id="mask9_1042_1131" style="mask-type:luminance" maskUnits="userSpaceOnUse" x="2" y="2" width="234" height="483">
<path d="M157.117 31.6501H216.417C217.978 31.6501 224.532 31.338 229.838 25.7201C235.144 20.4143 235.768 13.8601 235.768 12.6116C235.768 12.6116 235.768 12.6116 235.768 12.2995V2H2V12.2995C2 22.9112 10.739 31.6501 21.3506 31.6501H80.6509C96.5683 31.6501 109.677 44.7586 109.677 60.6761V426.153C109.677 442.071 96.5683 455.179 80.6509 455.179H21.3506C10.739 455.179 2 463.918 2 474.53V484.829H235.768L235.456 474.53C235.456 463.918 226.717 455.179 216.105 455.179H156.805C140.888 455.179 127.779 442.071 127.779 426.153H128.091V60.6761C128.091 44.7586 140.887 31.6501 157.117 31.6501Z" fill="white"/>
</mask>
<g mask="url(#mask9_1042_1131)">
<path d="M-614.096 -200.246L164.298 573.154" stroke="#627ABA" stroke-width="2" stroke-miterlimit="10"/>
</g>
<mask id="mask10_1042_1131" style="mask-type:luminance" maskUnits="userSpaceOnUse" x="2" y="2" width="234" height="483">
<path d="M157.117 31.6501H216.417C217.978 31.6501 224.532 31.338 229.838 25.7201C235.144 20.4143 235.768 13.8601 235.768 12.6116C235.768 12.6116 235.768 12.6116 235.768 12.2995V2H2V12.2995C2 22.9112 10.739 31.6501 21.3506 31.6501H80.6509C96.5683 31.6501 109.677 44.7586 109.677 60.6761V426.153C109.677 442.071 96.5683 455.179 80.6509 455.179H21.3506C10.739 455.179 2 463.918 2 474.53V484.829H235.768L235.456 474.53C235.456 463.918 226.717 455.179 216.105 455.179H156.805C140.888 455.179 127.779 442.071 127.779 426.153H128.091V60.6761C128.091 44.7586 140.887 31.6501 157.117 31.6501Z" fill="white"/>
</mask>
<g mask="url(#mask10_1042_1131)">
<path d="M-596.621 -196.812L181.461 576.588" stroke="#627ABA" stroke-width="2" stroke-miterlimit="10"/>
</g>
<mask id="mask11_1042_1131" style="mask-type:luminance" maskUnits="userSpaceOnUse" x="2" y="2" width="234" height="483">
<path d="M157.117 31.6501H216.417C217.978 31.6501 224.532 31.338 229.838 25.7201C235.144 20.4143 235.768 13.8601 235.768 12.6116C235.768 12.6116 235.768 12.6116 235.768 12.2995V2H2V12.2995C2 22.9112 10.739 31.6501 21.3506 31.6501H80.6509C96.5683 31.6501 109.677 44.7586 109.677 60.6761V426.153C109.677 442.071 96.5683 455.179 80.6509 455.179H21.3506C10.739 455.179 2 463.918 2 474.53V484.829H235.768L235.456 474.53C235.456 463.918 226.717 455.179 216.105 455.179H156.805C140.888 455.179 127.779 442.071 127.779 426.153H128.091V60.6761C128.091 44.7586 140.887 31.6501 157.117 31.6501Z" fill="white"/>
</mask>
<g mask="url(#mask11_1042_1131)">
<path d="M-579.454 -193.066L198.628 580.334" stroke="#627ABA" stroke-width="2" stroke-miterlimit="10"/>
</g>
<mask id="mask12_1042_1131" style="mask-type:luminance" maskUnits="userSpaceOnUse" x="2" y="2" width="234" height="483">
<path d="M157.117 31.6501H216.417C217.978 31.6501 224.532 31.338 229.838 25.7201C235.144 20.4143 235.768 13.8601 235.768 12.6116C235.768 12.6116 235.768 12.6116 235.768 12.2995V2H2V12.2995C2 22.9112 10.739 31.6501 21.3506 31.6501H80.6509C96.5683 31.6501 109.677 44.7586 109.677 60.6761V426.153C109.677 442.071 96.5683 455.179 80.6509 455.179H21.3506C10.739 455.179 2 463.918 2 474.53V484.829H235.768L235.456 474.53C235.456 463.918 226.717 455.179 216.105 455.179H156.805C140.888 455.179 127.779 442.071 127.779 426.153H128.091V60.6761C128.091 44.7586 140.887 31.6501 157.117 31.6501Z" fill="white"/>
</mask>
<g mask="url(#mask12_1042_1131)">
<path d="M-561.979 -189.629L216.103 583.772" stroke="#627ABA" stroke-width="2" stroke-miterlimit="10"/>
</g>
<mask id="mask13_1042_1131" style="mask-type:luminance" maskUnits="userSpaceOnUse" x="2" y="2" width="234" height="483">
<path d="M157.117 31.6501H216.417C217.978 31.6501 224.532 31.338 229.838 25.7201C235.144 20.4143 235.768 13.8601 235.768 12.6116C235.768 12.6116 235.768 12.6116 235.768 12.2995V2H2V12.2995C2 22.9112 10.739 31.6501 21.3506 31.6501H80.6509C96.5683 31.6501 109.677 44.7586 109.677 60.6761V426.153C109.677 442.071 96.5683 455.179 80.6509 455.179H21.3506C10.739 455.179 2 463.918 2 474.53V484.829H235.768L235.456 474.53C235.456 463.918 226.717 455.179 216.105 455.179H156.805C140.888 455.179 127.779 442.071 127.779 426.153H128.091V60.6761C128.091 44.7586 140.887 31.6501 157.117 31.6501Z" fill="white"/>
</mask>
<g mask="url(#mask13_1042_1131)">
<path d="M-544.812 -186.203L233.269 587.197" stroke="#627ABA" stroke-width="2" stroke-miterlimit="10"/>
</g>
<mask id="mask14_1042_1131" style="mask-type:luminance" maskUnits="userSpaceOnUse" x="2" y="2" width="234" height="483">
<path d="M157.117 31.6501H216.417C217.978 31.6501 224.532 31.338 229.838 25.7201C235.144 20.4143 235.768 13.8601 235.768 12.6116C235.768 12.6116 235.768 12.6116 235.768 12.2995V2H2V12.2995C2 22.9112 10.739 31.6501 21.3506 31.6501H80.6509C96.5683 31.6501 109.677 44.7586 109.677 60.6761V426.153C109.677 442.071 96.5683 455.179 80.6509 455.179H21.3506C10.739 455.179 2 463.918 2 474.53V484.829H235.768L235.456 474.53C235.456 463.918 226.717 455.179 216.105 455.179H156.805C140.888 455.179 127.779 442.071 127.779 426.153H128.091V60.6761C128.091 44.7586 140.887 31.6501 157.117 31.6501Z" fill="white"/>
</mask>
<g mask="url(#mask14_1042_1131)">
<path d="M-527.643 -182.461L250.752 590.94" stroke="#627ABA" stroke-width="2" stroke-miterlimit="10"/>
</g>
<mask id="mask15_1042_1131" style="mask-type:luminance" maskUnits="userSpaceOnUse" x="2" y="2" width="234" height="483">
<path d="M157.117 31.6501H216.417C217.978 31.6501 224.532 31.338 229.838 25.7201C235.144 20.4143 235.768 13.8601 235.768 12.6116C235.768 12.6116 235.768 12.6116 235.768 12.2995V2H2V12.2995C2 22.9112 10.739 31.6501 21.3506 31.6501H80.6509C96.5683 31.6501 109.677 44.7586 109.677 60.6761V426.153C109.677 442.071 96.5683 455.179 80.6509 455.179H21.3506C10.739 455.179 2 463.918 2 474.53V484.829H235.768L235.456 474.53C235.456 463.918 226.717 455.179 216.105 455.179H156.805C140.888 455.179 127.779 442.071 127.779 426.153H128.091V60.6761C128.091 44.7586 140.887 31.6501 157.117 31.6501Z" fill="white"/>
</mask>
<g mask="url(#mask15_1042_1131)">
<path d="M-510.168 -179.016L267.914 594.385" stroke="#627ABA" stroke-width="2" stroke-miterlimit="10"/>
</g>
<mask id="mask16_1042_1131" style="mask-type:luminance" maskUnits="userSpaceOnUse" x="2" y="2" width="234" height="483">
<path d="M157.117 31.6501H216.417C217.978 31.6501 224.532 31.338 229.838 25.7201C235.144 20.4143 235.768 13.8601 235.768 12.6116C235.768 12.6116 235.768 12.6116 235.768 12.2995V2H2V12.2995C2 22.9112 10.739 31.6501 21.3506 31.6501H80.6509C96.5683 31.6501 109.677 44.7586 109.677 60.6761V426.153C109.677 442.071 96.5683 455.179 80.6509 455.179H21.3506C10.739 455.179 2 463.918 2 474.53V484.829H235.768L235.456 474.53C235.456 463.918 226.717 455.179 216.105 455.179H156.805C140.888 455.179 127.779 442.071 127.779 426.153H128.091V60.6761C128.091 44.7586 140.887 31.6501 157.117 31.6501Z" fill="white"/>
</mask>
<g mask="url(#mask16_1042_1131)">
<path d="M-493.001 -175.281L285.393 598.119" stroke="#627ABA" stroke-width="2" stroke-miterlimit="10"/>
</g>
<mask id="mask17_1042_1131" style="mask-type:luminance" maskUnits="userSpaceOnUse" x="2" y="2" width="234" height="483">
<path d="M157.117 31.6501H216.417C217.978 31.6501 224.532 31.338 229.838 25.7201C235.144 20.4143 235.768 13.8601 235.768 12.6116C235.768 12.6116 235.768 12.6116 235.768 12.2995V2H2V12.2995C2 22.9112 10.739 31.6501 21.3506 31.6501H80.6509C96.5683 31.6501 109.677 44.7586 109.677 60.6761V426.153C109.677 442.071 96.5683 455.179 80.6509 455.179H21.3506C10.739 455.179 2 463.918 2 474.53V484.829H235.768L235.456 474.53C235.456 463.918 226.717 455.179 216.105 455.179H156.805C140.888 455.179 127.779 442.071 127.779 426.153H128.091V60.6761C128.091 44.7586 140.887 31.6501 157.117 31.6501Z" fill="white"/>
</mask>
<g mask="url(#mask17_1042_1131)">
<path d="M-475.525 -171.848L302.557 601.553" stroke="#627ABA" stroke-width="2" stroke-miterlimit="10"/>
</g>
<mask id="mask18_1042_1131" style="mask-type:luminance" maskUnits="userSpaceOnUse" x="2" y="2" width="234" height="483">
<path d="M157.117 31.6501H216.417C217.978 31.6501 224.532 31.338 229.838 25.7201C235.144 20.4143 235.768 13.8601 235.768 12.6116C235.768 12.6116 235.768 12.6116 235.768 12.2995V2H2V12.2995C2 22.9112 10.739 31.6501 21.3506 31.6501H80.6509C96.5683 31.6501 109.677 44.7586 109.677 60.6761V426.153C109.677 442.071 96.5683 455.179 80.6509 455.179H21.3506C10.739 455.179 2 463.918 2 474.53V484.829H235.768L235.456 474.53C235.456 463.918 226.717 455.179 216.105 455.179H156.805C140.888 455.179 127.779 442.071 127.779 426.153H128.091V60.6761C128.091 44.7586 140.887 31.6501 157.117 31.6501Z" fill="white"/>
</mask>
<g mask="url(#mask18_1042_1131)">
<path d="M-458.359 -168.414L320.035 605.298" stroke="#627ABA" stroke-width="2" stroke-miterlimit="10"/>
</g>
<mask id="mask19_1042_1131" style="mask-type:luminance" maskUnits="userSpaceOnUse" x="2" y="2" width="234" height="483">
<path d="M157.117 31.6501H216.417C217.978 31.6501 224.532 31.338 229.838 25.7201C235.144 20.4143 235.768 13.8601 235.768 12.6116C235.768 12.6116 235.768 12.6116 235.768 12.2995V2H2V12.2995C2 22.9112 10.739 31.6501 21.3506 31.6501H80.6509C96.5683 31.6501 109.677 44.7586 109.677 60.6761V426.153C109.677 442.071 96.5683 455.179 80.6509 455.179H21.3506C10.739 455.179 2 463.918 2 474.53V484.829H235.768L235.456 474.53C235.456 463.918 226.717 455.179 216.105 455.179H156.805C140.888 455.179 127.779 442.071 127.779 426.153H128.091V60.6761C128.091 44.7586 140.887 31.6501 157.117 31.6501Z" fill="white"/>
</mask>
<g mask="url(#mask19_1042_1131)">
<path d="M-440.879 -164.66L337.203 608.74" stroke="#627ABA" stroke-width="2" stroke-miterlimit="10"/>
</g>
<mask id="mask20_1042_1131" style="mask-type:luminance" maskUnits="userSpaceOnUse" x="2" y="2" width="234" height="483">
<path d="M157.117 31.6501H216.417C217.978 31.6501 224.532 31.338 229.838 25.7201C235.144 20.4143 235.768 13.8601 235.768 12.6116C235.768 12.6116 235.768 12.6116 235.768 12.2995V2H2V12.2995C2 22.9112 10.739 31.6501 21.3506 31.6501H80.6509C96.5683 31.6501 109.677 44.7586 109.677 60.6761V426.153C109.677 442.071 96.5683 455.179 80.6509 455.179H21.3506C10.739 455.179 2 463.918 2 474.53V484.829H235.768L235.456 474.53C235.456 463.918 226.717 455.179 216.105 455.179H156.805C140.888 455.179 127.779 442.071 127.779 426.153H128.091V60.6761C128.091 44.7586 140.887 31.6501 157.117 31.6501Z" fill="white"/>
</mask>
<g mask="url(#mask20_1042_1131)">
<path d="M-423.714 -161.23L354.68 612.17" stroke="#627ABA" stroke-width="2" stroke-miterlimit="10"/>
</g>
<mask id="mask21_1042_1131" style="mask-type:luminance" maskUnits="userSpaceOnUse" x="2" y="2" width="234" height="483">
<path d="M157.117 31.6501H216.417C217.978 31.6501 224.532 31.338 229.838 25.7201C235.144 20.4143 235.768 13.8601 235.768 12.6116C235.768 12.6116 235.768 12.6116 235.768 12.2995V2H2V12.2995C2 22.9112 10.739 31.6501 21.3506 31.6501H80.6509C96.5683 31.6501 109.677 44.7586 109.677 60.6761V426.153C109.677 442.071 96.5683 455.179 80.6509 455.179H21.3506C10.739 455.179 2 463.918 2 474.53V484.829H235.768L235.456 474.53C235.456 463.918 226.717 455.179 216.105 455.179H156.805C140.888 455.179 127.779 442.071 127.779 426.153H128.091V60.6761C128.091 44.7586 140.887 31.6501 157.117 31.6501Z" fill="white"/>
</mask>
<g mask="url(#mask21_1042_1131)">
<path d="M-406.238 -157.484L371.844 615.916" stroke="#627ABA" stroke-width="2" stroke-miterlimit="10"/>
</g>
<mask id="mask22_1042_1131" style="mask-type:luminance" maskUnits="userSpaceOnUse" x="2" y="2" width="234" height="483">
<path d="M157.117 31.6501H216.417C217.978 31.6501 224.532 31.338 229.838 25.7201C235.144 20.4143 235.768 13.8601 235.768 12.6116C235.768 12.6116 235.768 12.6116 235.768 12.2995V2H2V12.2995C2 22.9112 10.739 31.6501 21.3506 31.6501H80.6509C96.5683 31.6501 109.677 44.7586 109.677 60.6761V426.153C109.677 442.071 96.5683 455.179 80.6509 455.179H21.3506C10.739 455.179 2 463.918 2 474.53V484.829H235.768L235.456 474.53C235.456 463.918 226.717 455.179 216.105 455.179H156.805C140.888 455.179 127.779 442.071 127.779 426.153H128.091V60.6761C128.091 44.7586 140.887 31.6501 157.117 31.6501Z" fill="white"/>
</mask>
<g mask="url(#mask22_1042_1131)">
<path d="M-389.071 -154.055L389.323 619.346" stroke="#627ABA" stroke-width="2" stroke-miterlimit="10"/>
</g>
<mask id="mask23_1042_1131" style="mask-type:luminance" maskUnits="userSpaceOnUse" x="2" y="2" width="234" height="483">
<path d="M157.117 31.6501H216.417C217.978 31.6501 224.532 31.338 229.838 25.7201C235.144 20.4143 235.768 13.8601 235.768 12.6116C235.768 12.6116 235.768 12.6116 235.768 12.2995V2H2V12.2995C2 22.9112 10.739 31.6501 21.3506 31.6501H80.6509C96.5683 31.6501 109.677 44.7586 109.677 60.6761V426.153C109.677 442.071 96.5683 455.179 80.6509 455.179H21.3506C10.739 455.179 2 463.918 2 474.53V484.829H235.768L235.456 474.53C235.456 463.918 226.717 455.179 216.105 455.179H156.805C140.888 455.179 127.779 442.071 127.779 426.153H128.091V60.6761C128.091 44.7586 140.887 31.6501 157.117 31.6501Z" fill="white"/>
</mask>
<g mask="url(#mask23_1042_1131)">
<path d="M-371.592 -150.312L406.49 623.088" stroke="#627ABA" stroke-width="2" stroke-miterlimit="10"/>
</g>
<mask id="mask24_1042_1131" style="mask-type:luminance" maskUnits="userSpaceOnUse" x="2" y="2" width="234" height="483">
<path d="M157.117 31.6501H216.417C217.978 31.6501 224.532 31.338 229.838 25.7201C235.144 20.4143 235.768 13.8601 235.768 12.6116C235.768 12.6116 235.768 12.6116 235.768 12.2995V2H2V12.2995C2 22.9112 10.739 31.6501 21.3506 31.6501H80.6509C96.5683 31.6501 109.677 44.7586 109.677 60.6761V426.153C109.677 442.071 96.5683 455.179 80.6509 455.179H21.3506C10.739 455.179 2 463.918 2 474.53V484.829H235.768L235.456 474.53C235.456 463.918 226.717 455.179 216.105 455.179H156.805C140.888 455.179 127.779 442.071 127.779 426.153H128.091V60.6761C128.091 44.7586 140.887 31.6501 157.117 31.6501Z" fill="white"/>
</mask>
<g mask="url(#mask24_1042_1131)">
<path d="M-354.426 -146.879L423.968 626.522" stroke="#627ABA" stroke-width="2" stroke-miterlimit="10"/>
</g>
<mask id="mask25_1042_1131" style="mask-type:luminance" maskUnits="userSpaceOnUse" x="2" y="2" width="234" height="483">
<path d="M157.117 31.6501H216.417C217.978 31.6501 224.532 31.338 229.838 25.7201C235.144 20.4143 235.768 13.8601 235.768 12.6116C235.768 12.6116 235.768 12.6116 235.768 12.2995V2H2V12.2995C2 22.9112 10.739 31.6501 21.3506 31.6501H80.6509C96.5683 31.6501 109.677 44.7586 109.677 60.6761V426.153C109.677 442.071 96.5683 455.179 80.6509 455.179H21.3506C10.739 455.179 2 463.918 2 474.53V484.829H235.768L235.456 474.53C235.456 463.918 226.717 455.179 216.105 455.179H156.805C140.888 455.179 127.779 442.071 127.779 426.153H128.091V60.6761C128.091 44.7586 140.887 31.6501 157.117 31.6501Z" fill="white"/>
</mask>
<g mask="url(#mask25_1042_1131)">
<path d="M-336.947 -143.438L441.135 629.963" stroke="#627ABA" stroke-width="2" stroke-miterlimit="10"/>
</g>
<mask id="mask26_1042_1131" style="mask-type:luminance" maskUnits="userSpaceOnUse" x="2" y="2" width="234" height="483">
<path d="M157.117 31.6501H216.417C217.978 31.6501 224.532 31.338 229.838 25.7201C235.144 20.4143 235.768 13.8601 235.768 12.6116C235.768 12.6116 235.768 12.6116 235.768 12.2995V2H2V12.2995C2 22.9112 10.739 31.6501 21.3506 31.6501H80.6509C96.5683 31.6501 109.677 44.7586 109.677 60.6761V426.153C109.677 442.071 96.5683 455.179 80.6509 455.179H21.3506C10.739 455.179 2 463.918 2 474.53V484.829H235.768L235.456 474.53C235.456 463.918 226.717 455.179 216.105 455.179H156.805C140.888 455.179 127.779 442.071 127.779 426.153H128.091V60.6761C128.091 44.7586 140.887 31.6501 157.117 31.6501Z" fill="white"/>
</mask>
<g mask="url(#mask26_1042_1131)">
<path d="M-319.783 -139.695L458.299 633.705" stroke="#627ABA" stroke-width="2" stroke-miterlimit="10"/>
</g>
<mask id="mask27_1042_1131" style="mask-type:luminance" maskUnits="userSpaceOnUse" x="2" y="2" width="234" height="483">
<path d="M157.117 31.6501H216.417C217.978 31.6501 224.532 31.338 229.838 25.7201C235.144 20.4143 235.768 13.8601 235.768 12.6116C235.768 12.6116 235.768 12.6116 235.768 12.2995V2H2V12.2995C2 22.9112 10.739 31.6501 21.3506 31.6501H80.6509C96.5683 31.6501 109.677 44.7586 109.677 60.6761V426.153C109.677 442.071 96.5683 455.179 80.6509 455.179H21.3506C10.739 455.179 2 463.918 2 474.53V484.829H235.768L235.456 474.53C235.456 463.918 226.717 455.179 216.105 455.179H156.805C140.888 455.179 127.779 442.071 127.779 426.153H128.091V60.6761C128.091 44.7586 140.887 31.6501 157.117 31.6501Z" fill="white"/>
</mask>
<g mask="url(#mask27_1042_1131)">
<path d="M-302.616 -136.258L475.778 637.143" stroke="#627ABA" stroke-width="2" stroke-miterlimit="10"/>
</g>
<mask id="mask28_1042_1131" style="mask-type:luminance" maskUnits="userSpaceOnUse" x="2" y="2" width="234" height="483">
<path d="M157.117 31.6501H216.417C217.978 31.6501 224.532 31.338 229.838 25.7201C235.144 20.4143 235.768 13.8601 235.768 12.6116C235.768 12.6116 235.768 12.6116 235.768 12.2995V2H2V12.2995C2 22.9112 10.739 31.6501 21.3506 31.6501H80.6509C96.5683 31.6501 109.677 44.7586 109.677 60.6761V426.153C109.677 442.071 96.5683 455.179 80.6509 455.179H21.3506C10.739 455.179 2 463.918 2 474.53V484.829H235.768L235.456 474.53C235.456 463.918 226.717 455.179 216.105 455.179H156.805C140.888 455.179 127.779 442.071 127.779 426.153H128.091V60.6761C128.091 44.7586 140.887 31.6501 157.117 31.6501Z" fill="white"/>
</mask>
<g mask="url(#mask28_1042_1131)">
<path d="M-285.141 -132.523L492.941 640.877" stroke="#627ABA" stroke-width="2" stroke-miterlimit="10"/>
</g>
<mask id="mask29_1042_1131" style="mask-type:luminance" maskUnits="userSpaceOnUse" x="2" y="2" width="234" height="483">
<path d="M157.117 31.6501H216.417C217.978 31.6501 224.532 31.338 229.838 25.7201C235.144 20.4143 235.768 13.8601 235.768 12.6116C235.768 12.6116 235.768 12.6116 235.768 12.2995V2H2V12.2995C2 22.9112 10.739 31.6501 21.3506 31.6501H80.6509C96.5683 31.6501 109.677 44.7586 109.677 60.6761V426.153C109.677 442.071 96.5683 455.179 80.6509 455.179H21.3506C10.739 455.179 2 463.918 2 474.53V484.829H235.768L235.456 474.53C235.456 463.918 226.717 455.179 216.105 455.179H156.805C140.888 455.179 127.779 442.071 127.779 426.153H128.091V60.6761C128.091 44.7586 140.887 31.6501 157.117 31.6501Z" fill="white"/>
</mask>
<g mask="url(#mask29_1042_1131)">
<path d="M-267.969 -129.086L510.425 644.314" stroke="#627ABA" stroke-width="2" stroke-miterlimit="10"/>
</g>
<mask id="mask30_1042_1131" style="mask-type:luminance" maskUnits="userSpaceOnUse" x="2" y="2" width="234" height="483">
<path d="M157.117 31.6501H216.417C217.978 31.6501 224.532 31.338 229.838 25.7201C235.144 20.4143 235.768 13.8601 235.768 12.6116C235.768 12.6116 235.768 12.6116 235.768 12.2995V2H2V12.2995C2 22.9112 10.739 31.6501 21.3506 31.6501H80.6509C96.5683 31.6501 109.677 44.7586 109.677 60.6761V426.153C109.677 442.071 96.5683 455.179 80.6509 455.179H21.3506C10.739 455.179 2 463.918 2 474.53V484.829H235.768L235.456 474.53C235.456 463.918 226.717 455.179 216.105 455.179H156.805C140.888 455.179 127.779 442.071 127.779 426.153H128.091V60.6761C128.091 44.7586 140.887 31.6501 157.117 31.6501Z" fill="white"/>
</mask>
<g mask="url(#mask30_1042_1131)">
<path d="M-250.492 -125.648L527.59 648.064" stroke="#627ABA" stroke-width="2" stroke-miterlimit="10"/>
</g>
<mask id="mask31_1042_1131" style="mask-type:luminance" maskUnits="userSpaceOnUse" x="2" y="2" width="234" height="483">
<path d="M157.117 31.6501H216.417C217.978 31.6501 224.532 31.338 229.838 25.7201C235.144 20.4143 235.768 13.8601 235.768 12.6116C235.768 12.6116 235.768 12.6116 235.768 12.2995V2H2V12.2995C2 22.9112 10.739 31.6501 21.3506 31.6501H80.6509C96.5683 31.6501 109.677 44.7586 109.677 60.6761V426.153C109.677 442.071 96.5683 455.179 80.6509 455.179H21.3506C10.739 455.179 2 463.918 2 474.53V484.829H235.768L235.456 474.53C235.456 463.918 226.717 455.179 216.105 455.179H156.805C140.888 455.179 127.779 442.071 127.779 426.153H128.091V60.6761C128.091 44.7586 140.887 31.6501 157.117 31.6501Z" fill="white"/>
</mask>
<g mask="url(#mask31_1042_1131)">
<path d="M-233.329 -121.906L545.065 651.494" stroke="#627ABA" stroke-width="2" stroke-miterlimit="10"/>
</g>
<mask id="mask32_1042_1131" style="mask-type:luminance" maskUnits="userSpaceOnUse" x="2" y="2" width="234" height="483">
<path d="M157.117 31.6501H216.417C217.978 31.6501 224.532 31.338 229.838 25.7201C235.144 20.4143 235.768 13.8601 235.768 12.6116C235.768 12.6116 235.768 12.6116 235.768 12.2995V2H2V12.2995C2 22.9112 10.739 31.6501 21.3506 31.6501H80.6509C96.5683 31.6501 109.677 44.7586 109.677 60.6761V426.153C109.677 442.071 96.5683 455.179 80.6509 455.179H21.3506C10.739 455.179 2 463.918 2 474.53V484.829H235.768L235.456 474.53C235.456 463.918 226.717 455.179 216.105 455.179H156.805C140.888 455.179 127.779 442.071 127.779 426.153H128.091V60.6761C128.091 44.7586 140.887 31.6501 157.117 31.6501Z" fill="white"/>
</mask>
<g mask="url(#mask32_1042_1131)">
<path d="M-215.852 -118.469L562.23 654.932" stroke="#627ABA" stroke-width="2" stroke-miterlimit="10"/>
</g>
<mask id="mask33_1042_1131" style="mask-type:luminance" maskUnits="userSpaceOnUse" x="2" y="2" width="234" height="483">
<path d="M157.117 31.6501H216.417C217.978 31.6501 224.532 31.338 229.838 25.7201C235.144 20.4143 235.768 13.8601 235.768 12.6116C235.768 12.6116 235.768 12.6116 235.768 12.2995V2H2V12.2995C2 22.9112 10.739 31.6501 21.3506 31.6501H80.6509C96.5683 31.6501 109.677 44.7586 109.677 60.6761V426.153C109.677 442.071 96.5683 455.179 80.6509 455.179H21.3506C10.739 455.179 2 463.918 2 474.53V484.829H235.768L235.456 474.53C235.456 463.918 226.717 455.179 216.105 455.179H156.805C140.888 455.179 127.779 442.071 127.779 426.153H128.091V60.6761C128.091 44.7586 140.887 31.6501 157.117 31.6501Z" fill="white"/>
</mask>
<g mask="url(#mask33_1042_1131)">
<path d="M-198.685 -114.727L579.71 658.674" stroke="#627ABA" stroke-width="2" stroke-miterlimit="10"/>
</g>
<mask id="mask34_1042_1131" style="mask-type:luminance" maskUnits="userSpaceOnUse" x="2" y="2" width="234" height="483">
<path d="M157.117 31.6501H216.417C217.978 31.6501 224.532 31.338 229.838 25.7201C235.144 20.4143 235.768 13.8601 235.768 12.6116C235.768 12.6116 235.768 12.6116 235.768 12.2995V2H2V12.2995C2 22.9112 10.739 31.6501 21.3506 31.6501H80.6509C96.5683 31.6501 109.677 44.7586 109.677 60.6761V426.153C109.677 442.071 96.5683 455.179 80.6509 455.179H21.3506C10.739 455.179 2 463.918 2 474.53V484.829H235.768L235.456 474.53C235.456 463.918 226.717 455.179 216.105 455.179H156.805C140.888 455.179 127.779 442.071 127.779 426.153H128.091V60.6761C128.091 44.7586 140.887 31.6501 157.117 31.6501Z" fill="white"/>
</mask>
<g mask="url(#mask34_1042_1131)">
<path d="M-181.205 -111.297L596.877 662.104" stroke="#627ABA" stroke-width="2" stroke-miterlimit="10"/>
</g>
<mask id="mask35_1042_1131" style="mask-type:luminance" maskUnits="userSpaceOnUse" x="2" y="2" width="234" height="483">
<path d="M157.117 31.6501H216.417C217.978 31.6501 224.532 31.338 229.838 25.7201C235.144 20.4143 235.768 13.8601 235.768 12.6116C235.768 12.6116 235.768 12.6116 235.768 12.2995V2H2V12.2995C2 22.9112 10.739 31.6501 21.3506 31.6501H80.6509C96.5683 31.6501 109.677 44.7586 109.677 60.6761V426.153C109.677 442.071 96.5683 455.179 80.6509 455.179H21.3506C10.739 455.179 2 463.918 2 474.53V484.829H235.768L235.456 474.53C235.456 463.918 226.717 455.179 216.105 455.179H156.805C140.888 455.179 127.779 442.071 127.779 426.153H128.091V60.6761C128.091 44.7586 140.887 31.6501 157.117 31.6501Z" fill="white"/>
</mask>
<g mask="url(#mask35_1042_1131)">
<path d="M-164.042 -107.863L614.352 665.849" stroke="#627ABA" stroke-width="2" stroke-miterlimit="10"/>
</g>
<mask id="mask36_1042_1131" style="mask-type:luminance" maskUnits="userSpaceOnUse" x="2" y="2" width="234" height="483">
<path d="M157.117 31.6501H216.417C217.978 31.6501 224.532 31.338 229.838 25.7201C235.144 20.4143 235.768 13.8601 235.768 12.6116C235.768 12.6116 235.768 12.6116 235.768 12.2995V2H2V12.2995C2 22.9112 10.739 31.6501 21.3506 31.6501H80.6509C96.5683 31.6501 109.677 44.7586 109.677 60.6761V426.153C109.677 442.071 96.5683 455.179 80.6509 455.179H21.3506C10.739 455.179 2 463.918 2 474.53V484.829H235.768L235.456 474.53C235.456 463.918 226.717 455.179 216.105 455.179H156.805C140.888 455.179 127.779 442.071 127.779 426.153H128.091V60.6761C128.091 44.7586 140.887 31.6501 157.117 31.6501Z" fill="white"/>
</mask>
<g mask="url(#mask36_1042_1131)">
<path d="M-146.563 -104.113L631.518 669.287" stroke="#627ABA" stroke-width="2" stroke-miterlimit="10"/>
</g>
<mask id="mask37_1042_1131" style="mask-type:luminance" maskUnits="userSpaceOnUse" x="2" y="2" width="234" height="483">
<path d="M157.117 31.6501H216.417C217.978 31.6501 224.532 31.338 229.838 25.7201C235.144 20.4143 235.768 13.8601 235.768 12.6116C235.768 12.6116 235.768 12.6116 235.768 12.2995V2H2V12.2995C2 22.9112 10.739 31.6501 21.3506 31.6501H80.6509C96.5683 31.6501 109.677 44.7586 109.677 60.6761V426.153C109.677 442.071 96.5683 455.179 80.6509 455.179H21.3506C10.739 455.179 2 463.918 2 474.53V484.829H235.768L235.456 474.53C235.456 463.918 226.717 455.179 216.105 455.179H156.805C140.888 455.179 127.779 442.071 127.779 426.153H128.091V60.6761C128.091 44.7586 140.887 31.6501 157.117 31.6501Z" fill="white"/>
</mask>
<g mask="url(#mask37_1042_1131)">
<path d="M-129.394 -100.688L648.688 672.713" stroke="#627ABA" stroke-width="2" stroke-miterlimit="10"/>
</g>
<mask id="mask38_1042_1131" style="mask-type:luminance" maskUnits="userSpaceOnUse" x="2" y="2" width="234" height="483">
<path d="M157.117 31.6501H216.417C217.978 31.6501 224.532 31.338 229.838 25.7201C235.144 20.4143 235.768 13.8601 235.768 12.6116C235.768 12.6116 235.768 12.6116 235.768 12.2995V2H2V12.2995C2 22.9112 10.739 31.6501 21.3506 31.6501H80.6509C96.5683 31.6501 109.677 44.7586 109.677 60.6761V426.153C109.677 442.071 96.5683 455.179 80.6509 455.179H21.3506C10.739 455.179 2 463.918 2 474.53V484.829H235.768L235.456 474.53C235.456 463.918 226.717 455.179 216.105 455.179H156.805C140.888 455.179 127.779 442.071 127.779 426.153H128.091V60.6761C128.091 44.7586 140.887 31.6501 157.117 31.6501Z" fill="white"/>
</mask>
<g mask="url(#mask38_1042_1131)">
<path d="M-111.918 -96.9375L666.164 676.463" stroke="#627ABA" stroke-width="2" stroke-miterlimit="10"/>
</g>
<mask id="mask39_1042_1131" style="mask-type:luminance" maskUnits="userSpaceOnUse" x="2" y="2" width="234" height="483">
<path d="M157.117 31.6501H216.417C217.978 31.6501 224.532 31.338 229.838 25.7201C235.144 20.4143 235.768 13.8601 235.768 12.6116C235.768 12.6116 235.768 12.6116 235.768 12.2995V2H2V12.2995C2 22.9112 10.739 31.6501 21.3506 31.6501H80.6509C96.5683 31.6501 109.677 44.7586 109.677 60.6761V426.153C109.677 442.071 96.5683 455.179 80.6509 455.179H21.3506C10.739 455.179 2 463.918 2 474.53V484.829H235.768L235.456 474.53C235.456 463.918 226.717 455.179 216.105 455.179H156.805C140.888 455.179 127.779 442.071 127.779 426.153H128.091V60.6761C128.091 44.7586 140.887 31.6501 157.117 31.6501Z" fill="white"/>
</mask>
<g mask="url(#mask39_1042_1131)">
<path d="M-94.751 -93.5078L683.643 679.893" stroke="#627ABA" stroke-width="2" stroke-miterlimit="10"/>
</g>
<mask id="mask40_1042_1131" style="mask-type:luminance" maskUnits="userSpaceOnUse" x="2" y="2" width="234" height="483">
<path d="M157.117 31.6501H216.417C217.978 31.6501 224.532 31.338 229.838 25.7201C235.144 20.4143 235.768 13.8601 235.768 12.6116C235.768 12.6116 235.768 12.6116 235.768 12.2995V2H2V12.2995C2 22.9112 10.739 31.6501 21.3506 31.6501H80.6509C96.5683 31.6501 109.677 44.7586 109.677 60.6761V426.153C109.677 442.071 96.5683 455.179 80.6509 455.179H21.3506C10.739 455.179 2 463.918 2 474.53V484.829H235.768L235.456 474.53C235.456 463.918 226.717 455.179 216.105 455.179H156.805C140.888 455.179 127.779 442.071 127.779 426.153H128.091V60.6761C128.091 44.7586 140.887 31.6501 157.117 31.6501Z" fill="white"/>
</mask>
<g mask="url(#mask40_1042_1131)">
<path d="M-77.5879 -90.0781L700.806 683.322" stroke="#627ABA" stroke-width="2" stroke-miterlimit="10"/>
</g>
<mask id="mask41_1042_1131" style="mask-type:luminance" maskUnits="userSpaceOnUse" x="2" y="2" width="234" height="483">
<path d="M157.117 31.6501H216.417C217.978 31.6501 224.532 31.338 229.838 25.7201C235.144 20.4143 235.768 13.8601 235.768 12.6116C235.768 12.6116 235.768 12.6116 235.768 12.2995V2H2V12.2995C2 22.9112 10.739 31.6501 21.3506 31.6501H80.6509C96.5683 31.6501 109.677 44.7586 109.677 60.6761V426.153C109.677 442.071 96.5683 455.179 80.6509 455.179H21.3506C10.739 455.179 2 463.918 2 474.53V484.829H235.768L235.456 474.53C235.456 463.918 226.717 455.179 216.105 455.179H156.805C140.888 455.179 127.779 442.071 127.779 426.153H128.091V60.6761C128.091 44.7586 140.887 31.6501 157.117 31.6501Z" fill="white"/>
</mask>
<g mask="url(#mask41_1042_1131)">
<path d="M-60.1094 -86.332L717.973 687.069" stroke="#627ABA" stroke-width="2" stroke-miterlimit="10"/>
</g>
<mask id="mask42_1042_1131" style="mask-type:luminance" maskUnits="userSpaceOnUse" x="2" y="2" width="234" height="483">
<path d="M157.117 31.6501H216.417C217.978 31.6501 224.532 31.338 229.838 25.7201C235.144 20.4143 235.768 13.8601 235.768 12.6116C235.768 12.6116 235.768 12.6116 235.768 12.2995V2H2V12.2995C2 22.9112 10.739 31.6501 21.3506 31.6501H80.6509C96.5683 31.6501 109.677 44.7586 109.677 60.6761V426.153C109.677 442.071 96.5683 455.179 80.6509 455.179H21.3506C10.739 455.179 2 463.918 2 474.53V484.829H235.768L235.456 474.53C235.456 463.918 226.717 455.179 216.105 455.179H156.805C140.888 455.179 127.779 442.071 127.779 426.153H128.091V60.6761C128.091 44.7586 140.887 31.6501 157.117 31.6501Z" fill="white"/>
</mask>
<g mask="url(#mask42_1042_1131)">
<path d="M-404.984 -442.133L373.41 331.268" stroke="#627ABA" stroke-width="2" stroke-miterlimit="10"/>
</g>
<mask id="mask43_1042_1131" style="mask-type:luminance" maskUnits="userSpaceOnUse" x="2" y="2" width="234" height="483">
<path d="M157.117 31.6501H216.417C217.978 31.6501 224.532 31.338 229.838 25.7201C235.144 20.4143 235.768 13.8601 235.768 12.6116C235.768 12.6116 235.768 12.6116 235.768 12.2995V2H2V12.2995C2 22.9112 10.739 31.6501 21.3506 31.6501H80.6509C96.5683 31.6501 109.677 44.7586 109.677 60.6761V426.153C109.677 442.071 96.5683 455.179 80.6509 455.179H21.3506C10.739 455.179 2 463.918 2 474.53V484.829H235.768L235.456 474.53C235.456 463.918 226.717 455.179 216.105 455.179H156.805C140.888 455.179 127.779 442.071 127.779 426.153H128.091V60.6761C128.091 44.7586 140.887 31.6501 157.117 31.6501Z" fill="white"/>
</mask>
<g mask="url(#mask43_1042_1131)">
<path d="M-387.819 -438.703L390.575 334.697" stroke="#627ABA" stroke-width="2" stroke-miterlimit="10"/>
</g>
<mask id="mask44_1042_1131" style="mask-type:luminance" maskUnits="userSpaceOnUse" x="2" y="2" width="234" height="483">
<path d="M157.117 31.6501H216.417C217.978 31.6501 224.532 31.338 229.838 25.7201C235.144 20.4143 235.768 13.8601 235.768 12.6116C235.768 12.6116 235.768 12.6116 235.768 12.2995V2H2V12.2995C2 22.9112 10.739 31.6501 21.3506 31.6501H80.6509C96.5683 31.6501 109.677 44.7586 109.677 60.6761V426.153C109.677 442.071 96.5683 455.179 80.6509 455.179H21.3506C10.739 455.179 2 463.918 2 474.53V484.829H235.768L235.456 474.53C235.456 463.918 226.717 455.179 216.105 455.179H156.805C140.888 455.179 127.779 442.071 127.779 426.153H128.091V60.6761C128.091 44.7586 140.887 31.6501 157.117 31.6501Z" fill="white"/>
</mask>
<g mask="url(#mask44_1042_1131)">
<path d="M-370.344 -434.949L407.738 338.451" stroke="#627ABA" stroke-width="2" stroke-miterlimit="10"/>
</g>
<mask id="mask45_1042_1131" style="mask-type:luminance" maskUnits="userSpaceOnUse" x="2" y="2" width="234" height="483">
<path d="M157.117 31.6501H216.417C217.978 31.6501 224.532 31.338 229.838 25.7201C235.144 20.4143 235.768 13.8601 235.768 12.6116C235.768 12.6116 235.768 12.6116 235.768 12.2995V2H2V12.2995C2 22.9112 10.739 31.6501 21.3506 31.6501H80.6509C96.5683 31.6501 109.677 44.7586 109.677 60.6761V426.153C109.677 442.071 96.5683 455.179 80.6509 455.179H21.3506C10.739 455.179 2 463.918 2 474.53V484.829H235.768L235.456 474.53C235.456 463.918 226.717 455.179 216.105 455.179H156.805C140.888 455.179 127.779 442.071 127.779 426.153H128.091V60.6761C128.091 44.7586 140.887 31.6501 157.117 31.6501Z" fill="white"/>
</mask>
<g mask="url(#mask45_1042_1131)">
<path d="M-353.178 -431.512L425.216 341.889" stroke="#627ABA" stroke-width="2" stroke-miterlimit="10"/>
</g>
<mask id="mask46_1042_1131" style="mask-type:luminance" maskUnits="userSpaceOnUse" x="2" y="2" width="234" height="483">
<path d="M157.117 31.6501H216.417C217.978 31.6501 224.532 31.338 229.838 25.7201C235.144 20.4143 235.768 13.8601 235.768 12.6116C235.768 12.6116 235.768 12.6116 235.768 12.2995V2H2V12.2995C2 22.9112 10.739 31.6501 21.3506 31.6501H80.6509C96.5683 31.6501 109.677 44.7586 109.677 60.6761V426.153C109.677 442.071 96.5683 455.179 80.6509 455.179H21.3506C10.739 455.179 2 463.918 2 474.53V484.829H235.768L235.456 474.53C235.456 463.918 226.717 455.179 216.105 455.179H156.805C140.888 455.179 127.779 442.071 127.779 426.153H128.091V60.6761C128.091 44.7586 140.887 31.6501 157.117 31.6501Z" fill="white"/>
</mask>
<g mask="url(#mask46_1042_1131)">
<path d="M-335.7 -428.078L442.382 345.634" stroke="#627ABA" stroke-width="2" stroke-miterlimit="10"/>
</g>
<mask id="mask47_1042_1131" style="mask-type:luminance" maskUnits="userSpaceOnUse" x="2" y="2" width="234" height="483">
<path d="M157.117 31.6501H216.417C217.978 31.6501 224.532 31.338 229.838 25.7201C235.144 20.4143 235.768 13.8601 235.768 12.6116C235.768 12.6116 235.768 12.6116 235.768 12.2995V2H2V12.2995C2 22.9112 10.739 31.6501 21.3506 31.6501H80.6509C96.5683 31.6501 109.677 44.7586 109.677 60.6761V426.153C109.677 442.071 96.5683 455.179 80.6509 455.179H21.3506C10.739 455.179 2 463.918 2 474.53V484.829H235.768L235.456 474.53C235.456 463.918 226.717 455.179 216.105 455.179H156.805C140.888 455.179 127.779 442.071 127.779 426.153H128.091V60.6761C128.091 44.7586 140.887 31.6501 157.117 31.6501Z" fill="white"/>
</mask>
<g mask="url(#mask47_1042_1131)">
<path d="M-318.531 -424.348L459.863 349.053" stroke="#627ABA" stroke-width="2" stroke-miterlimit="10"/>
</g>
<mask id="mask48_1042_1131" style="mask-type:luminance" maskUnits="userSpaceOnUse" x="2" y="2" width="234" height="483">
<path d="M157.117 31.6501H216.417C217.978 31.6501 224.532 31.338 229.838 25.7201C235.144 20.4143 235.768 13.8601 235.768 12.6116C235.768 12.6116 235.768 12.6116 235.768 12.2995V2H2V12.2995C2 22.9112 10.739 31.6501 21.3506 31.6501H80.6509C96.5683 31.6501 109.677 44.7586 109.677 60.6761V426.153C109.677 442.071 96.5683 455.179 80.6509 455.179H21.3506C10.739 455.179 2 463.918 2 474.53V484.829H235.768L235.456 474.53C235.456 463.918 226.717 455.179 216.105 455.179H156.805C140.888 455.179 127.779 442.071 127.779 426.153H128.091V60.6761C128.091 44.7586 140.887 31.6501 157.117 31.6501Z" fill="white"/>
</mask>
<g mask="url(#mask48_1042_1131)">
<path d="M-301.058 -420.914L477.024 352.486" stroke="#627ABA" stroke-width="2" stroke-miterlimit="10"/>
</g>
<mask id="mask49_1042_1131" style="mask-type:luminance" maskUnits="userSpaceOnUse" x="2" y="2" width="234" height="483">
<path d="M157.117 31.6501H216.417C217.978 31.6501 224.532 31.338 229.838 25.7201C235.144 20.4143 235.768 13.8601 235.768 12.6116C235.768 12.6116 235.768 12.6116 235.768 12.2995V2H2V12.2995C2 22.9112 10.739 31.6501 21.3506 31.6501H80.6509C96.5683 31.6501 109.677 44.7586 109.677 60.6761V426.153C109.677 442.071 96.5683 455.179 80.6509 455.179H21.3506C10.739 455.179 2 463.918 2 474.53V484.829H235.768L235.456 474.53C235.456 463.918 226.717 455.179 216.105 455.179H156.805C140.888 455.179 127.779 442.071 127.779 426.153H128.091V60.6761C128.091 44.7586 140.887 31.6501 157.117 31.6501Z" fill="white"/>
</mask>
<g mask="url(#mask49_1042_1131)">
<path d="M-283.892 -417.164L494.503 356.236" stroke="#627ABA" stroke-width="2" stroke-miterlimit="10"/>
</g>
<mask id="mask50_1042_1131" style="mask-type:luminance" maskUnits="userSpaceOnUse" x="2" y="2" width="234" height="483">
<path d="M157.117 31.6501H216.417C217.978 31.6501 224.532 31.338 229.838 25.7201C235.144 20.4143 235.768 13.8601 235.768 12.6116C235.768 12.6116 235.768 12.6116 235.768 12.2995V2H2V12.2995C2 22.9112 10.739 31.6501 21.3506 31.6501H80.6509C96.5683 31.6501 109.677 44.7586 109.677 60.6761V426.153C109.677 442.071 96.5683 455.179 80.6509 455.179H21.3506C10.739 455.179 2 463.918 2 474.53V484.829H235.768L235.456 474.53C235.456 463.918 226.717 455.179 216.105 455.179H156.805C140.888 455.179 127.779 442.071 127.779 426.153H128.091V60.6761C128.091 44.7586 140.887 31.6501 157.117 31.6501Z" fill="white"/>
</mask>
<g mask="url(#mask50_1042_1131)">
<path d="M-266.408 -413.723L511.674 359.678" stroke="#627ABA" stroke-width="2" stroke-miterlimit="10"/>
</g>
<mask id="mask51_1042_1131" style="mask-type:luminance" maskUnits="userSpaceOnUse" x="2" y="2" width="234" height="483">
<path d="M157.117 31.6501H216.417C217.978 31.6501 224.532 31.338 229.838 25.7201C235.144 20.4143 235.768 13.8601 235.768 12.6116C235.768 12.6116 235.768 12.6116 235.768 12.2995V2H2V12.2995C2 22.9112 10.739 31.6501 21.3506 31.6501H80.6509C96.5683 31.6501 109.677 44.7586 109.677 60.6761V426.153C109.677 442.071 96.5683 455.179 80.6509 455.179H21.3506C10.739 455.179 2 463.918 2 474.53V484.829H235.768L235.456 474.53C235.456 463.918 226.717 455.179 216.105 455.179H156.805C140.888 455.179 127.779 442.071 127.779 426.153H128.091V60.6761C128.091 44.7586 140.887 31.6501 157.117 31.6501Z" fill="white"/>
</mask>
<g mask="url(#mask51_1042_1131)">
<path d="M-249.246 -409.984L529.148 363.416" stroke="#627ABA" stroke-width="2" stroke-miterlimit="10"/>
</g>
<mask id="mask52_1042_1131" style="mask-type:luminance" maskUnits="userSpaceOnUse" x="2" y="2" width="234" height="483">
<path d="M157.117 31.6501H216.417C217.978 31.6501 224.532 31.338 229.838 25.7201C235.144 20.4143 235.768 13.8601 235.768 12.6116C235.768 12.6116 235.768 12.6116 235.768 12.2995V2H2V12.2995C2 22.9112 10.739 31.6501 21.3506 31.6501H80.6509C96.5683 31.6501 109.677 44.7586 109.677 60.6761V426.153C109.677 442.071 96.5683 455.179 80.6509 455.179H21.3506C10.739 455.179 2 463.918 2 474.53V484.829H235.768L235.456 474.53C235.456 463.918 226.717 455.179 216.105 455.179H156.805C140.888 455.179 127.779 442.071 127.779 426.153H128.091V60.6761C128.091 44.7586 140.887 31.6501 157.117 31.6501Z" fill="white"/>
</mask>
<g mask="url(#mask52_1042_1131)">
<path d="M-231.769 -406.547L546.313 366.854" stroke="#627ABA" stroke-width="2" stroke-miterlimit="10"/>
</g>
<mask id="mask53_1042_1131" style="mask-type:luminance" maskUnits="userSpaceOnUse" x="2" y="2" width="234" height="483">
<path d="M157.117 31.6501H216.417C217.978 31.6501 224.532 31.338 229.838 25.7201C235.144 20.4143 235.768 13.8601 235.768 12.6116C235.768 12.6116 235.768 12.6116 235.768 12.2995V2H2V12.2995C2 22.9112 10.739 31.6501 21.3506 31.6501H80.6509C96.5683 31.6501 109.677 44.7586 109.677 60.6761V426.153C109.677 442.071 96.5683 455.179 80.6509 455.179H21.3506C10.739 455.179 2 463.918 2 474.53V484.829H235.768L235.456 474.53C235.456 463.918 226.717 455.179 216.105 455.179H156.805C140.888 455.179 127.779 442.071 127.779 426.153H128.091V60.6761C128.091 44.7586 140.887 31.6501 157.117 31.6501Z" fill="white"/>
</mask>
<g mask="url(#mask53_1042_1131)">
<path d="M-214.604 -403.113L563.791 370.287" stroke="#627ABA" stroke-width="2" stroke-miterlimit="10"/>
</g>
<mask id="mask54_1042_1131" style="mask-type:luminance" maskUnits="userSpaceOnUse" x="2" y="2" width="234" height="483">
<path d="M157.117 31.6501H216.417C217.978 31.6501 224.532 31.338 229.838 25.7201C235.144 20.4143 235.768 13.8601 235.768 12.6116C235.768 12.6116 235.768 12.6116 235.768 12.2995V2H2V12.2995C2 22.9112 10.739 31.6501 21.3506 31.6501H80.6509C96.5683 31.6501 109.677 44.7586 109.677 60.6761V426.153C109.677 442.071 96.5683 455.179 80.6509 455.179H21.3506C10.739 455.179 2 463.918 2 474.53V484.829H235.768L235.456 474.53C235.456 463.918 226.717 455.179 216.105 455.179H156.805C140.888 455.179 127.779 442.071 127.779 426.153H128.091V60.6761C128.091 44.7586 140.887 31.6501 157.117 31.6501Z" fill="white"/>
</mask>
<g mask="url(#mask54_1042_1131)">
<path d="M-197.124 -399.375L580.958 374.026" stroke="#627ABA" stroke-width="2" stroke-miterlimit="10"/>
</g>
<mask id="mask55_1042_1131" style="mask-type:luminance" maskUnits="userSpaceOnUse" x="2" y="2" width="234" height="483">
<path d="M157.117 31.6501H216.417C217.978 31.6501 224.532 31.338 229.838 25.7201C235.144 20.4143 235.768 13.8601 235.768 12.6116C235.768 12.6116 235.768 12.6116 235.768 12.2995V2H2V12.2995C2 22.9112 10.739 31.6501 21.3506 31.6501H80.6509C96.5683 31.6501 109.677 44.7586 109.677 60.6761V426.153C109.677 442.071 96.5683 455.179 80.6509 455.179H21.3506C10.739 455.179 2 463.918 2 474.53V484.829H235.768L235.456 474.53C235.456 463.918 226.717 455.179 216.105 455.179H156.805C140.888 455.179 127.779 442.071 127.779 426.153H128.091V60.6761C128.091 44.7586 140.887 31.6501 157.117 31.6501Z" fill="white"/>
</mask>
<g mask="url(#mask55_1042_1131)">
<path d="M-179.959 -395.934L598.123 377.467" stroke="#627ABA" stroke-width="2" stroke-miterlimit="10"/>
</g>
<mask id="mask56_1042_1131" style="mask-type:luminance" maskUnits="userSpaceOnUse" x="2" y="2" width="234" height="483">
<path d="M157.117 31.6501H216.417C217.978 31.6501 224.532 31.338 229.838 25.7201C235.144 20.4143 235.768 13.8601 235.768 12.6116C235.768 12.6116 235.768 12.6116 235.768 12.2995V2H2V12.2995C2 22.9112 10.739 31.6501 21.3506 31.6501H80.6509C96.5683 31.6501 109.677 44.7586 109.677 60.6761V426.153C109.677 442.071 96.5683 455.179 80.6509 455.179H21.3506C10.739 455.179 2 463.918 2 474.53V484.829H235.768L235.456 474.53C235.456 463.918 226.717 455.179 216.105 455.179H156.805C140.888 455.179 127.779 442.071 127.779 426.153H128.091V60.6761C128.091 44.7586 140.887 31.6501 157.117 31.6501Z" fill="white"/>
</mask>
<g mask="url(#mask56_1042_1131)">
<path d="M-162.793 -392.191L615.601 381.209" stroke="#627ABA" stroke-width="2" stroke-miterlimit="10"/>
</g>
<mask id="mask57_1042_1131" style="mask-type:luminance" maskUnits="userSpaceOnUse" x="2" y="2" width="234" height="483">
<path d="M157.117 31.6501H216.417C217.978 31.6501 224.532 31.338 229.838 25.7201C235.144 20.4143 235.768 13.8601 235.768 12.6116C235.768 12.6116 235.768 12.6116 235.768 12.2995V2H2V12.2995C2 22.9112 10.739 31.6501 21.3506 31.6501H80.6509C96.5683 31.6501 109.677 44.7586 109.677 60.6761V426.153C109.677 442.071 96.5683 455.179 80.6509 455.179H21.3506C10.739 455.179 2 463.918 2 474.53V484.829H235.768L235.456 474.53C235.456 463.918 226.717 455.179 216.105 455.179H156.805C140.888 455.179 127.779 442.071 127.779 426.153H128.091V60.6761C128.091 44.7586 140.887 31.6501 157.117 31.6501Z" fill="white"/>
</mask>
<g mask="url(#mask57_1042_1131)">
<path d="M-145.315 -388.758L632.767 384.643" stroke="#627ABA" stroke-width="2" stroke-miterlimit="10"/>
</g>
<mask id="mask58_1042_1131" style="mask-type:luminance" maskUnits="userSpaceOnUse" x="2" y="2" width="234" height="483">
<path d="M157.117 31.6501H216.417C217.978 31.6501 224.532 31.338 229.838 25.7201C235.144 20.4143 235.768 13.8601 235.768 12.6116C235.768 12.6116 235.768 12.6116 235.768 12.2995V2H2V12.2995C2 22.9112 10.739 31.6501 21.3506 31.6501H80.6509C96.5683 31.6501 109.677 44.7586 109.677 60.6761V426.153C109.677 442.071 96.5683 455.179 80.6509 455.179H21.3506C10.739 455.179 2 463.918 2 474.53V484.829H235.768L235.456 474.53C235.456 463.918 226.717 455.179 216.105 455.179H156.805C140.888 455.179 127.779 442.071 127.779 426.153H128.091V60.6761C128.091 44.7586 140.887 31.6501 157.117 31.6501Z" fill="white"/>
</mask>
<g mask="url(#mask58_1042_1131)">
<path d="M-128.149 -385.32L650.245 388.392" stroke="#627ABA" stroke-width="2" stroke-miterlimit="10"/>
</g>
<mask id="mask59_1042_1131" style="mask-type:luminance" maskUnits="userSpaceOnUse" x="2" y="2" width="234" height="483">
<path d="M157.117 31.6501H216.417C217.978 31.6501 224.532 31.338 229.838 25.7201C235.144 20.4143 235.768 13.8601 235.768 12.6116C235.768 12.6116 235.768 12.6116 235.768 12.2995V2H2V12.2995C2 22.9112 10.739 31.6501 21.3506 31.6501H80.6509C96.5683 31.6501 109.677 44.7586 109.677 60.6761V426.153C109.677 442.071 96.5683 455.179 80.6509 455.179H21.3506C10.739 455.179 2 463.918 2 474.53V484.829H235.768L235.456 474.53C235.456 463.918 226.717 455.179 216.105 455.179H156.805C140.888 455.179 127.779 442.071 127.779 426.153H128.091V60.6761C128.091 44.7586 140.887 31.6501 157.117 31.6501Z" fill="white"/>
</mask>
<g mask="url(#mask59_1042_1131)">
<path d="M-110.671 -381.578L667.411 391.822" stroke="#627ABA" stroke-width="2" stroke-miterlimit="10"/>
</g>
<mask id="mask60_1042_1131" style="mask-type:luminance" maskUnits="userSpaceOnUse" x="2" y="2" width="234" height="483">
<path d="M157.117 31.6501H216.417C217.978 31.6501 224.532 31.338 229.838 25.7201C235.144 20.4143 235.768 13.8601 235.768 12.6116C235.768 12.6116 235.768 12.6116 235.768 12.2995V2H2V12.2995C2 22.9112 10.739 31.6501 21.3506 31.6501H80.6509C96.5683 31.6501 109.677 44.7586 109.677 60.6761V426.153C109.677 442.071 96.5683 455.179 80.6509 455.179H21.3506C10.739 455.179 2 463.918 2 474.53V484.829H235.768L235.456 474.53C235.456 463.918 226.717 455.179 216.105 455.179H156.805C140.888 455.179 127.779 442.071 127.779 426.153H128.091V60.6761C128.091 44.7586 140.887 31.6501 157.117 31.6501Z" fill="white"/>
</mask>
<g mask="url(#mask60_1042_1131)">
<path d="M-93.5049 -378.152L684.889 395.248" stroke="#627ABA" stroke-width="2" stroke-miterlimit="10"/>
</g>
<mask id="mask61_1042_1131" style="mask-type:luminance" maskUnits="userSpaceOnUse" x="2" y="2" width="234" height="483">
<path d="M157.117 31.6501H216.417C217.978 31.6501 224.532 31.338 229.838 25.7201C235.144 20.4143 235.768 13.8601 235.768 12.6116C235.768 12.6116 235.768 12.6116 235.768 12.2995V2H2V12.2995C2 22.9112 10.739 31.6501 21.3506 31.6501H80.6509C96.5683 31.6501 109.677 44.7586 109.677 60.6761V426.153C109.677 442.071 96.5683 455.179 80.6509 455.179H21.3506C10.739 455.179 2 463.918 2 474.53V484.829H235.768L235.456 474.53C235.456 463.918 226.717 455.179 216.105 455.179H156.805C140.888 455.179 127.779 442.071 127.779 426.153H128.091V60.6761C128.091 44.7586 140.887 31.6501 157.117 31.6501Z" fill="white"/>
</mask>
<g mask="url(#mask61_1042_1131)">
<path d="M-76.0273 -374.398L702.055 399.002" stroke="#627ABA" stroke-width="2" stroke-miterlimit="10"/>
</g>
<mask id="mask62_1042_1131" style="mask-type:luminance" maskUnits="userSpaceOnUse" x="2" y="2" width="234" height="483">
<path d="M157.117 31.6501H216.417C217.978 31.6501 224.532 31.338 229.838 25.7201C235.144 20.4143 235.768 13.8601 235.768 12.6116C235.768 12.6116 235.768 12.6116 235.768 12.2995V2H2V12.2995C2 22.9112 10.739 31.6501 21.3506 31.6501H80.6509C96.5683 31.6501 109.677 44.7586 109.677 60.6761V426.153C109.677 442.071 96.5683 455.179 80.6509 455.179H21.3506C10.739 455.179 2 463.918 2 474.53V484.829H235.768L235.456 474.53C235.456 463.918 226.717 455.179 216.105 455.179H156.805C140.888 455.179 127.779 442.071 127.779 426.153H128.091V60.6761C128.091 44.7586 140.887 31.6501 157.117 31.6501Z" fill="white"/>
</mask>
<g mask="url(#mask62_1042_1131)">
<path d="M-58.8604 -370.965L719.534 402.436" stroke="#627ABA" stroke-width="2" stroke-miterlimit="10"/>
</g>
<mask id="mask63_1042_1131" style="mask-type:luminance" maskUnits="userSpaceOnUse" x="2" y="2" width="234" height="483">
<path d="M157.117 31.6501H216.417C217.978 31.6501 224.532 31.338 229.838 25.7201C235.144 20.4143 235.768 13.8601 235.768 12.6116C235.768 12.6116 235.768 12.6116 235.768 12.2995V2H2V12.2995C2 22.9112 10.739 31.6501 21.3506 31.6501H80.6509C96.5683 31.6501 109.677 44.7586 109.677 60.6761V426.153C109.677 442.071 96.5683 455.179 80.6509 455.179H21.3506C10.739 455.179 2 463.918 2 474.53V484.829H235.768L235.456 474.53C235.456 463.918 226.717 455.179 216.105 455.179H156.805C140.888 455.179 127.779 442.071 127.779 426.153H128.091V60.6761C128.091 44.7586 140.887 31.6501 157.117 31.6501Z" fill="white"/>
</mask>
<g mask="url(#mask63_1042_1131)">
<path d="M-41.3838 -367.223L736.698 406.178" stroke="#627ABA" stroke-width="2" stroke-miterlimit="10"/>
</g>
<mask id="mask64_1042_1131" style="mask-type:luminance" maskUnits="userSpaceOnUse" x="2" y="2" width="234" height="483">
<path d="M157.117 31.6501H216.417C217.978 31.6501 224.532 31.338 229.838 25.7201C235.144 20.4143 235.768 13.8601 235.768 12.6116C235.768 12.6116 235.768 12.6116 235.768 12.2995V2H2V12.2995C2 22.9112 10.739 31.6501 21.3506 31.6501H80.6509C96.5683 31.6501 109.677 44.7586 109.677 60.6761V426.153C109.677 442.071 96.5683 455.179 80.6509 455.179H21.3506C10.739 455.179 2 463.918 2 474.53V484.829H235.768L235.456 474.53C235.456 463.918 226.717 455.179 216.105 455.179H156.805C140.888 455.179 127.779 442.071 127.779 426.153H128.091V60.6761C128.091 44.7586 140.887 31.6501 157.117 31.6501Z" fill="white"/>
</mask>
<g mask="url(#mask64_1042_1131)">
<path d="M-24.2188 -363.789L754.175 409.611" stroke="#627ABA" stroke-width="2" stroke-miterlimit="10"/>
</g>
<mask id="mask65_1042_1131" style="mask-type:luminance" maskUnits="userSpaceOnUse" x="2" y="2" width="234" height="483">
<path d="M157.117 31.6501H216.417C217.978 31.6501 224.532 31.338 229.838 25.7201C235.144 20.4143 235.768 13.8601 235.768 12.6116C235.768 12.6116 235.768 12.6116 235.768 12.2995V2H2V12.2995C2 22.9112 10.739 31.6501 21.3506 31.6501H80.6509C96.5683 31.6501 109.677 44.7586 109.677 60.6761V426.153C109.677 442.071 96.5683 455.179 80.6509 455.179H21.3506C10.739 455.179 2 463.918 2 474.53V484.829H235.768L235.456 474.53C235.456 463.918 226.717 455.179 216.105 455.179H156.805C140.888 455.179 127.779 442.071 127.779 426.153H128.091V60.6761C128.091 44.7586 140.887 31.6501 157.117 31.6501Z" fill="white"/>
</mask>
<g mask="url(#mask65_1042_1131)">
<path d="M-6.74023 -360.359L771.342 413.041" stroke="#627ABA" stroke-width="2" stroke-miterlimit="10"/>
</g>
<mask id="mask66_1042_1131" style="mask-type:luminance" maskUnits="userSpaceOnUse" x="2" y="2" width="234" height="483">
<path d="M157.117 31.6501H216.417C217.978 31.6501 224.532 31.338 229.838 25.7201C235.144 20.4143 235.768 13.8601 235.768 12.6116C235.768 12.6116 235.768 12.6116 235.768 12.2995V2H2V12.2995C2 22.9112 10.739 31.6501 21.3506 31.6501H80.6509C96.5683 31.6501 109.677 44.7586 109.677 60.6761V426.153C109.677 442.071 96.5683 455.179 80.6509 455.179H21.3506C10.739 455.179 2 463.918 2 474.53V484.829H235.768L235.456 474.53C235.456 463.918 226.717 455.179 216.105 455.179H156.805C140.888 455.179 127.779 442.071 127.779 426.153H128.091V60.6761C128.091 44.7586 140.887 31.6501 157.117 31.6501Z" fill="white"/>
</mask>
<g mask="url(#mask66_1042_1131)">
<path d="M10.4287 -356.609L788.823 416.791" stroke="#627ABA" stroke-width="2" stroke-miterlimit="10"/>
</g>
<mask id="mask67_1042_1131" style="mask-type:luminance" maskUnits="userSpaceOnUse" x="2" y="2" width="234" height="483">
<path d="M157.117 31.6501H216.417C217.978 31.6501 224.532 31.338 229.838 25.7201C235.144 20.4143 235.768 13.8601 235.768 12.6116C235.768 12.6116 235.768 12.6116 235.768 12.2995V2H2V12.2995C2 22.9112 10.739 31.6501 21.3506 31.6501H80.6509C96.5683 31.6501 109.677 44.7586 109.677 60.6761V426.153C109.677 442.071 96.5683 455.179 80.6509 455.179H21.3506C10.739 455.179 2 463.918 2 474.53V484.829H235.768L235.456 474.53C235.456 463.918 226.717 455.179 216.105 455.179H156.805C140.888 455.179 127.779 442.071 127.779 426.153H128.091V60.6761C128.091 44.7586 140.887 31.6501 157.117 31.6501Z" fill="white"/>
</mask>
<g mask="url(#mask67_1042_1131)">
<path d="M27.9062 -353.176L805.988 420.225" stroke="#627ABA" stroke-width="2" stroke-miterlimit="10"/>
</g>
<mask id="mask68_1042_1131" style="mask-type:luminance" maskUnits="userSpaceOnUse" x="2" y="2" width="234" height="483">
<path d="M157.117 31.6501H216.417C217.978 31.6501 224.532 31.338 229.838 25.7201C235.144 20.4143 235.768 13.8601 235.768 12.6116C235.768 12.6116 235.768 12.6116 235.768 12.2995V2H2V12.2995C2 22.9112 10.739 31.6501 21.3506 31.6501H80.6509C96.5683 31.6501 109.677 44.7586 109.677 60.6761V426.153C109.677 442.071 96.5683 455.179 80.6509 455.179H21.3506C10.739 455.179 2 463.918 2 474.53V484.829H235.768L235.456 474.53C235.456 463.918 226.717 455.179 216.105 455.179H156.805C140.888 455.179 127.779 442.071 127.779 426.153H128.091V60.6761C128.091 44.7586 140.887 31.6501 157.117 31.6501Z" fill="white"/>
</mask>
<g mask="url(#mask68_1042_1131)">
<path d="M45.0703 -349.746L823.152 423.966" stroke="#627ABA" stroke-width="2" stroke-miterlimit="10"/>
</g>
<mask id="mask69_1042_1131" style="mask-type:luminance" maskUnits="userSpaceOnUse" x="2" y="2" width="234" height="483">
<path d="M157.117 31.6501H216.417C217.978 31.6501 224.532 31.338 229.838 25.7201C235.144 20.4143 235.768 13.8601 235.768 12.6116C235.768 12.6116 235.768 12.6116 235.768 12.2995V2H2V12.2995C2 22.9112 10.739 31.6501 21.3506 31.6501H80.6509C96.5683 31.6501 109.677 44.7586 109.677 60.6761V426.153C109.677 442.071 96.5683 455.179 80.6509 455.179H21.3506C10.739 455.179 2 463.918 2 474.53V484.829H235.768L235.456 474.53C235.456 463.918 226.717 455.179 216.105 455.179H156.805C140.888 455.179 127.779 442.071 127.779 426.153H128.091V60.6761C128.091 44.7586 140.887 31.6501 157.117 31.6501Z" fill="white"/>
</mask>
<g mask="url(#mask69_1042_1131)">
<path d="M62.5469 -346.004L840.629 427.396" stroke="#627ABA" stroke-width="2" stroke-miterlimit="10"/>
</g>
<mask id="mask70_1042_1131" style="mask-type:luminance" maskUnits="userSpaceOnUse" x="2" y="2" width="234" height="483">
<path d="M157.117 31.6501H216.417C217.978 31.6501 224.532 31.338 229.838 25.7201C235.144 20.4143 235.768 13.8601 235.768 12.6116C235.768 12.6116 235.768 12.6116 235.768 12.2995V2H2V12.2995C2 22.9112 10.739 31.6501 21.3506 31.6501H80.6509C96.5683 31.6501 109.677 44.7586 109.677 60.6761V426.153C109.677 442.071 96.5683 455.179 80.6509 455.179H21.3506C10.739 455.179 2 463.918 2 474.53V484.829H235.768L235.456 474.53C235.456 463.918 226.717 455.179 216.105 455.179H156.805C140.888 455.179 127.779 442.071 127.779 426.153H128.091V60.6761C128.091 44.7586 140.887 31.6501 157.117 31.6501Z" fill="white"/>
</mask>
<g mask="url(#mask70_1042_1131)">
<path d="M79.7148 -342.566L857.797 430.834" stroke="#627ABA" stroke-width="2" stroke-miterlimit="10"/>
</g>
<mask id="mask71_1042_1131" style="mask-type:luminance" maskUnits="userSpaceOnUse" x="2" y="2" width="234" height="483">
<path d="M157.117 31.6501H216.417C217.978 31.6501 224.532 31.338 229.838 25.7201C235.144 20.4143 235.768 13.8601 235.768 12.6116C235.768 12.6116 235.768 12.6116 235.768 12.2995V2H2V12.2995C2 22.9112 10.739 31.6501 21.3506 31.6501H80.6509C96.5683 31.6501 109.677 44.7586 109.677 60.6761V426.153C109.677 442.071 96.5683 455.179 80.6509 455.179H21.3506C10.739 455.179 2 463.918 2 474.53V484.829H235.768L235.456 474.53C235.456 463.918 226.717 455.179 216.105 455.179H156.805C140.888 455.179 127.779 442.071 127.779 426.153H128.091V60.6761C128.091 44.7586 140.887 31.6501 157.117 31.6501Z" fill="white"/>
</mask>
<g mask="url(#mask71_1042_1131)">
<path d="M96.8818 -338.82L875.276 434.58" stroke="#627ABA" stroke-width="2" stroke-miterlimit="10"/>
</g>
<mask id="mask72_1042_1131" style="mask-type:luminance" maskUnits="userSpaceOnUse" x="2" y="2" width="234" height="483">
<path d="M157.117 31.6501H216.417C217.978 31.6501 224.532 31.338 229.838 25.7201C235.144 20.4143 235.768 13.8601 235.768 12.6116C235.768 12.6116 235.768 12.6116 235.768 12.2995V2H2V12.2995C2 22.9112 10.739 31.6501 21.3506 31.6501H80.6509C96.5683 31.6501 109.677 44.7586 109.677 60.6761V426.153C109.677 442.071 96.5683 455.179 80.6509 455.179H21.3506C10.739 455.179 2 463.918 2 474.53V484.829H235.768L235.456 474.53C235.456 463.918 226.717 455.179 216.105 455.179H156.805C140.888 455.179 127.779 442.071 127.779 426.153H128.091V60.6761C128.091 44.7586 140.887 31.6501 157.117 31.6501Z" fill="white"/>
</mask>
<g mask="url(#mask72_1042_1131)">
<path d="M114.361 -335.395L892.443 438.006" stroke="#627ABA" stroke-width="2" stroke-miterlimit="10"/>
</g>
<mask id="mask73_1042_1131" style="mask-type:luminance" maskUnits="userSpaceOnUse" x="2" y="2" width="234" height="483">
<path d="M157.117 31.6501H216.417C217.978 31.6501 224.532 31.338 229.838 25.7201C235.144 20.4143 235.768 13.8601 235.768 12.6116C235.768 12.6116 235.768 12.6116 235.768 12.2995V2H2V12.2995C2 22.9112 10.739 31.6501 21.3506 31.6501H80.6509C96.5683 31.6501 109.677 44.7586 109.677 60.6761V426.153C109.677 442.071 96.5683 455.179 80.6509 455.179H21.3506C10.739 455.179 2 463.918 2 474.53V484.829H235.768L235.456 474.53C235.456 463.918 226.717 455.179 216.105 455.179H156.805C140.888 455.179 127.779 442.071 127.779 426.153H128.091V60.6761C128.091 44.7586 140.887 31.6501 157.117 31.6501Z" fill="white"/>
</mask>
<g mask="url(#mask73_1042_1131)">
<path d="M131.524 -331.641L909.919 441.76" stroke="#627ABA" stroke-width="2" stroke-miterlimit="10"/>
</g>
<mask id="mask74_1042_1131" style="mask-type:luminance" maskUnits="userSpaceOnUse" x="2" y="2" width="234" height="483">
<path d="M157.117 31.6501H216.417C217.978 31.6501 224.532 31.338 229.838 25.7201C235.144 20.4143 235.768 13.8601 235.768 12.6116C235.768 12.6116 235.768 12.6116 235.768 12.2995V2H2V12.2995C2 22.9112 10.739 31.6501 21.3506 31.6501H80.6509C96.5683 31.6501 109.677 44.7586 109.677 60.6761V426.153C109.677 442.071 96.5683 455.179 80.6509 455.179H21.3506C10.739 455.179 2 463.918 2 474.53V484.829H235.768L235.456 474.53C235.456 463.918 226.717 455.179 216.105 455.179H156.805C140.888 455.179 127.779 442.071 127.779 426.153H128.091V60.6761C128.091 44.7586 140.887 31.6501 157.117 31.6501Z" fill="white"/>
</mask>
<g mask="url(#mask74_1042_1131)">
<path d="M149.003 -328.211L927.085 445.19" stroke="#627ABA" stroke-width="2" stroke-miterlimit="10"/>
</g>
<mask id="mask75_1042_1131" style="mask-type:luminance" maskUnits="userSpaceOnUse" x="2" y="2" width="234" height="483">
<path d="M157.117 31.6501H216.417C217.978 31.6501 224.532 31.338 229.838 25.7201C235.144 20.4143 235.768 13.8601 235.768 12.6116C235.768 12.6116 235.768 12.6116 235.768 12.2995V2H2V12.2995C2 22.9112 10.739 31.6501 21.3506 31.6501H80.6509C96.5683 31.6501 109.677 44.7586 109.677 60.6761V426.153C109.677 442.071 96.5683 455.179 80.6509 455.179H21.3506C10.739 455.179 2 463.918 2 474.53V484.829H235.768L235.456 474.53C235.456 463.918 226.717 455.179 216.105 455.179H156.805C140.888 455.179 127.779 442.071 127.779 426.153H128.091V60.6761C128.091 44.7586 140.887 31.6501 157.117 31.6501Z" fill="white"/>
</mask>
<g mask="url(#mask75_1042_1131)">
<path d="M166.167 -324.773L944.561 448.627" stroke="#627ABA" stroke-width="2" stroke-miterlimit="10"/>
</g>
<mask id="mask76_1042_1131" style="mask-type:luminance" maskUnits="userSpaceOnUse" x="2" y="2" width="234" height="483">
<path d="M157.117 31.6501H216.417C217.978 31.6501 224.532 31.338 229.838 25.7201C235.144 20.4143 235.768 13.8601 235.768 12.6116C235.768 12.6116 235.768 12.6116 235.768 12.2995V2H2V12.2995C2 22.9112 10.739 31.6501 21.3506 31.6501H80.6509C96.5683 31.6501 109.677 44.7586 109.677 60.6761V426.153C109.677 442.071 96.5683 455.179 80.6509 455.179H21.3506C10.739 455.179 2 463.918 2 474.53V484.829H235.768L235.456 474.53C235.456 463.918 226.717 455.179 216.105 455.179H156.805C140.888 455.179 127.779 442.071 127.779 426.153H128.091V60.6761C128.091 44.7586 140.887 31.6501 157.117 31.6501Z" fill="white"/>
</mask>
<g mask="url(#mask76_1042_1131)">
<path d="M183.646 -321.035L961.728 452.365" stroke="#627ABA" stroke-width="2" stroke-miterlimit="10"/>
</g>
<mask id="mask77_1042_1131" style="mask-type:luminance" maskUnits="userSpaceOnUse" x="2" y="2" width="234" height="483">
<path d="M157.117 31.6501H216.417C217.978 31.6501 224.532 31.338 229.838 25.7201C235.144 20.4143 235.768 13.8601 235.768 12.6116C235.768 12.6116 235.768 12.6116 235.768 12.2995V2H2V12.2995C2 22.9112 10.739 31.6501 21.3506 31.6501H80.6509C96.5683 31.6501 109.677 44.7586 109.677 60.6761V426.153C109.677 442.071 96.5683 455.179 80.6509 455.179H21.3506C10.739 455.179 2 463.918 2 474.53V484.829H235.768L235.456 474.53C235.456 463.918 226.717 455.179 216.105 455.179H156.805C140.888 455.179 127.779 442.071 127.779 426.153H128.091V60.6761C128.091 44.7586 140.887 31.6501 157.117 31.6501Z" fill="white"/>
</mask>
<g mask="url(#mask77_1042_1131)">
<path d="M200.815 -317.602L979.21 455.799" stroke="#627ABA" stroke-width="2" stroke-miterlimit="10"/>
</g>
<mask id="mask78_1042_1131" style="mask-type:luminance" maskUnits="userSpaceOnUse" x="2" y="2" width="234" height="483">
<path d="M157.117 31.6501H216.417C217.978 31.6501 224.532 31.338 229.838 25.7201C235.144 20.4143 235.768 13.8601 235.768 12.6116C235.768 12.6116 235.768 12.6116 235.768 12.2995V2H2V12.2995C2 22.9112 10.739 31.6501 21.3506 31.6501H80.6509C96.5683 31.6501 109.677 44.7586 109.677 60.6761V426.153C109.677 442.071 96.5683 455.179 80.6509 455.179H21.3506C10.739 455.179 2 463.918 2 474.53V484.829H235.768L235.456 474.53C235.456 463.918 226.717 455.179 216.105 455.179H156.805C140.888 455.179 127.779 442.071 127.779 426.153H128.091V60.6761C128.091 44.7586 140.887 31.6501 157.117 31.6501Z" fill="white"/>
</mask>
<g mask="url(#mask78_1042_1131)">
<path d="M218.29 -313.852L996.372 459.549" stroke="#627ABA" stroke-width="2" stroke-miterlimit="10"/>
</g>
<mask id="mask79_1042_1131" style="mask-type:luminance" maskUnits="userSpaceOnUse" x="2" y="2" width="234" height="483">
<path d="M157.117 31.6501H216.417C217.978 31.6501 224.532 31.338 229.838 25.7201C235.144 20.4143 235.768 13.8601 235.768 12.6116C235.768 12.6116 235.768 12.6116 235.768 12.2995V2H2V12.2995C2 22.9112 10.739 31.6501 21.3506 31.6501H80.6509C96.5683 31.6501 109.677 44.7586 109.677 60.6761V426.153C109.677 442.071 96.5683 455.179 80.6509 455.179H21.3506C10.739 455.179 2 463.918 2 474.53V484.829H235.768L235.456 474.53C235.456 463.918 226.717 455.179 216.105 455.179H156.805C140.888 455.179 127.779 442.071 127.779 426.153H128.091V60.6761C128.091 44.7586 140.887 31.6501 157.117 31.6501Z" fill="white"/>
</mask>
<g mask="url(#mask79_1042_1131)">
<path d="M235.455 -310.418L1013.85 462.983" stroke="#627ABA" stroke-width="2" stroke-miterlimit="10"/>
</g>
<path d="M157.117 31.6501H216.417C217.978 31.6501 224.532 31.338 229.838 25.7201C235.144 20.4143 235.768 13.8601 235.768 12.6116C235.768 12.6116 235.768 12.6116 235.768 12.2995V2H2V12.2995C2 22.9111 10.739 31.6501 21.3506 31.6501H80.6509C96.5683 31.6501 109.677 44.7586 109.677 60.6761V426.153C109.677 442.07 96.5683 455.179 80.6509 455.179H21.3506C10.739 455.179 2 463.918 2 474.53V484.829H235.768L235.456 474.53C235.456 463.918 226.717 455.179 216.105 455.179H156.805C140.888 455.179 127.779 442.07 127.779 426.153H128.091V60.6761C128.091 44.7586 140.887 31.6501 157.117 31.6501Z" fill="#302C6D" stroke="#2F2C6E" stroke-width="3" stroke-miterlimit="10"/>
</svg>
